{
.appVersion = "939";
DisplayStrings = (
/file
);
copyright = "Copyright © 2009 Apple Inc. Copyright ©  2006 by Tavmjong Bah. Copyright © 2003 by Bitstream, Inc. All Rights Reserved.";
customParameters = (
{
name = description;
value = "Menlo is based upon the Open Source font Bitstream Vera and the public domain font Deja Vu. Bitstream Vera is a trademark of Bitstream, Inc., designed by Jim Lyles.";
},
{
name = vendorID;
value = PfEd;
},
{
name = glyphOrder;
value = (
.notdef,
space,
exclam,
quotedbl,
numbersign,
dollar,
percent,
ampersand,
quotesingle,
parenleft,
parenright,
asterisk,
plus,
comma,
hyphen,
period,
slash,
zero,
one,
two,
three,
four,
five,
six,
seven,
eight,
nine,
colon,
semicolon,
less,
equal,
greater,
question,
at,
A,
B,
C,
D,
E,
F,
G,
H,
I,
J,
K,
L,
M,
N,
O,
P,
Q,
R,
S,
T,
U,
V,
W,
X,
Y,
Z,
bracketleft,
backslash,
bracketright,
asciicircum,
underscore,
grave,
a,
b,
c,
d,
e,
f,
g,
h,
i,
j,
k,
l,
m,
n,
o,
p,
q,
r,
s,
t,
u,
v,
w,
x,
y,
z,
braceleft,
bar,
braceright,
asciitilde,
nonbreakingspace,
exclamdown,
cent,
sterling,
currency,
yen,
brokenbar,
section,
dieresis,
copyright,
ordfeminine,
guillemotleft,
logicalnot,
sfthyphen,
registered,
macron,
degree,
plusminus,
twosuperior,
threesuperior,
acute,
mu,
paragraph,
periodcentered,
cedilla,
onesuperior,
ordmasculine,
guillemotright,
onequarter,
onehalf,
threequarters,
questiondown,
Agrave,
Aacute,
Acircumflex,
Atilde,
Adieresis,
Aring,
AE,
Ccedilla,
Egrave,
Eacute,
Ecircumflex,
Edieresis,
Igrave,
Iacute,
Icircumflex,
Idieresis,
Eth,
Ntilde,
Ograve,
Oacute,
Ocircumflex,
Otilde,
Odieresis,
multiply,
Oslash,
Ugrave,
Uacute,
Ucircumflex,
Udieresis,
Yacute,
Thorn,
germandbls,
agrave,
aacute,
acircumflex,
atilde,
adieresis,
aring,
ae,
ccedilla,
egrave,
eacute,
ecircumflex,
edieresis,
igrave,
iacute,
icircumflex,
idieresis,
eth,
ntilde,
ograve,
oacute,
ocircumflex,
otilde,
odieresis,
divide,
oslash,
ugrave,
uacute,
ucircumflex,
udieresis,
yacute,
thorn,
ydieresis,
Amacron,
amacron,
Abreve,
abreve,

glyphs = (
{
glyphname = .notdef;
layers = (
{
layerId = "8A8F53B0-DF48-4C43-86E4-F0539724E722";
paths = (
{
closed = 1;
nodes = (
"104 -362 LINE",
"1128 -362 LINE",
"1128 1444 LINE",
"104 1444 LINE"
);
},
{
closed = 1;
nodes = (
"219 -248 LINE",
"219 1329 LINE",
"1014 1329 LINE",
"1014 -248 LINE"
);
}
);
width = 1233;
}
);
},
{
glyphname = exclam;
layers = (
{
layerId = "8A8F53B0-DF48-4C43-86E4-F0539724E722";
paths = (
{
closed = 1;
nodes = (
"546 1493 LINE",
"546 838 LINE",
"567 531 LINE",
"728 531 LINE",
"749 838 LINE",
"749 1493 LINE"
);
},
{
closed = 1;
nodes = (
"516 254 LINE",
"516 0 LINE",
"779 0 LINE",
"779 254 LINE"
);
}
);
width = 1233;
}
);
unicode = 0021;
},
{
glyphname = quotedbl;
layers = (
{
layerId = "8A8F53B0-DF48-4C43-86E4-F0539724E722";
paths = (
{
closed = 1;
nodes = (
"945 1547 LINE",
"721 1547 LINE",
"721 935 LINE",
"945 935 LINE"
);
},
{
closed = 1;
nodes = (
"412 1547 LINE",
"188 1547 LINE",
"188 935 LINE",
"412 935 LINE"
);
}
);
width = 1233;
}
);
unicode = 0022;
},
{
glyphname = numbersign;
layers = (
{
layerId = "8A8F53B0-DF48-4C43-86E4-F0539724E722";
paths = (
{
closed = 1;
nodes = (
"684 1465 LINE",
"524 1465 LINE",
"434 1111 LINE",
"131 1111 LINE",
"131 958 LINE",
"397 958 LINE",
"299 565 LINE",
"2 565 LINE",
"2 412 LINE",
"260 412 LINE",
"156 0 LINE",
"315 0 LINE",
"420 412 LINE",
"666 412 LINE",
"561 0 LINE",
"721 0 LINE",
"825 412 LINE",
"1114 412 LINE",
"1114 565 LINE",
"864 565 LINE",
"962 958 LINE",
"1243 958 LINE",
"1243 1111 LINE",
"998.999 1111 LINE",
"1090 1465 LINE",
"930 1465 LINE",
"839 1111 LINE",
"594 1111 LINE"
);
},
{
closed = 1;
nodes = (
"802 958 LINE",
"705 565 LINE",
"459 565 LINE",
"557 958 LINE"
);
}
);
width = 1233;
}
);
unicode = 0023;
},
{
glyphname = dollar;
layers = (
{
layerId = "8A8F53B0-DF48-4C43-86E4-F0539724E722";
paths = (
{
closed = 1;
nodes = (
"692 580 LINE",
"773.333 567.333 OFFCURVE",
"832.666 543.833 OFFCURVE",
"869.999 509.5 CURVE SMOOTH",
"907.333 475.166 OFFCURVE",
"925.999 427 OFFCURVE",
"925.999 365 CURVE SMOOTH",
"925.999 298.333 OFFCURVE",
"905.333 245.667 OFFCURVE",
"863.999 207 CURVE SMOOTH",
"822.666 168.333 OFFCURVE",
"765.333 148 OFFCURVE",
"692 146 CURVE"
);
},
{
closed = 1;
nodes = (
"592 770 LINE",
"517.333 781.333 OFFCURVE",
"461.833 803.666 OFFCURVE",
"425.5 837 CURVE SMOOTH",
"389.166 870.333 OFFCURVE",
"371 915.666 OFFCURVE",
"371 972.999 CURVE SMOOTH",
"371 1035.67 OFFCURVE",
"390.5 1085.67 OFFCURVE",
"429.5 1123 CURVE SMOOTH",
"468.5 1160.33 OFFCURVE",
"522.666 1180.33 OFFCURVE",
"592 1183 CURVE"
);
},
{
closed = 1;
nodes = (
"692 -301 LINE",
"693 2 LINE",
"818.333 8 OFFCURVE",
"919.833 45.333 OFFCURVE",
"997.499 114 CURVE SMOOTH",
"1075.17 182.667 OFFCURVE",
"1114 268.333 OFFCURVE",
"1114 371 CURVE SMOOTH",
"1114 473.666 OFFCURVE",
"1078 557.333 OFFCURVE",
"1006 622 CURVE SMOOTH",
"934 686.666 OFFCURVE",
"829.333 729.333 OFFCURVE",
"692 750 CURVE",
"692 1181 LINE",
"745.333 1178.33 OFFCURVE",
"798.833 1169.17 OFFCURVE",
"852.5 1153.5 CURVE SMOOTH",
"906.166 1137.83 OFFCURVE",
"961.333 1115.67 OFFCURVE",
"1018 1087 CURVE",
"1018 1260 LINE",
"962 1277.33 OFFCURVE",
"907 1291 OFFCURVE",
"853 1301 CURVE SMOOTH",
"799 1311 OFFCURVE",
"745.666 1317.67 OFFCURVE",
"693 1321 CURVE",
"692 1556 LINE",
"592 1556 LINE",
"592 1321 LINE",
"464.667 1311.67 OFFCURVE",
"365.833 1275.83 OFFCURVE",
"295.5 1213.5 CURVE SMOOTH",
"225.167 1151.17 OFFCURVE",
"190 1067.67 OFFCURVE",
"190 963 CURVE SMOOTH",
"190 863 OFFCURVE",
"223.667 782.666 OFFCURVE",
"291 722 CURVE SMOOTH",
"358.333 661.333 OFFCURVE",
"458.666 620.666 OFFCURVE",
"592 600 CURVE",
"592 142 LINE",
"526 143.333 OFFCURVE",
"459.167 155 OFFCURVE",
"391.5 177 CURVE SMOOTH",
"323.833 199 OFFCURVE",
"256.667 230.667 OFFCURVE",
"190 272 CURVE",
"190 92 LINE",
"255.333 64.667 OFFCURVE",
"321.5 43.333 OFFCURVE",
"388.5 28 CURVE SMOOTH",
"455.5 12.667 OFFCURVE",
"523 3.333 OFFCURVE",
"591 0 CURVE",
"592 -301 LINE"
);
}
);
width = 1233;
}
);
unicode = 0024;
},
{
glyphname = percent;
layers = (
{
layerId = "8A8F53B0-DF48-4C43-86E4-F0539724E722";
paths = (
{
closed = 1;
nodes = (
"696 371.666 OFFCURVE",
"713.5 415.666 OFFCURVE",
"748.5 451 CURVE SMOOTH",
"783.5 486.333 OFFCURVE",
"827 504 OFFCURVE",
"879 504 CURVE SMOOTH",
"929.666 504 OFFCURVE",
"972.999 486 OFFCURVE",
"1009 450 CURVE SMOOTH",
"1045 414 OFFCURVE",
"1063 370.333 OFFCURVE",
"1063 319 CURVE SMOOTH",
"1063 267.667 OFFCURVE",
"1045.17 224.167 OFFCURVE",
"1009.5 188.5 CURVE SMOOTH",
"973.833 152.833 OFFCURVE",
"930.333 135 OFFCURVE",
"878.999 135 CURVE SMOOTH",
"827 135 OFFCURVE",
"783.5 152.667 OFFCURVE",
"748.5 188 CURVE SMOOTH",
"713.5 223.333 OFFCURVE",
"696 267 OFFCURVE",
"696 319 CURVE SMOOTH"
);
},
{
closed = 1;
nodes = (
"561 228.333 OFFCURVE",
"591.333 152.5 OFFCURVE",
"652 91.5 CURVE SMOOTH",
"712.666 30.5 OFFCURVE",
"788.333 0 OFFCURVE",
"878.999 0 CURVE SMOOTH",
"968.999 0 OFFCURVE",
"1045 31 OFFCURVE",
"1107 93 CURVE SMOOTH",
"1169 155 OFFCURVE",
"1200 230.333 OFFCURVE",
"1200 319 CURVE SMOOTH",
"1200 361 OFFCURVE",
"1191.67 401.333 OFFCURVE",
"1175 440 CURVE SMOOTH",
"1158.33 478.666 OFFCURVE",
"1134.67 513.666 OFFCURVE",
"1104 545 CURVE SMOOTH",
"1073.33 575.666 OFFCURVE",
"1038.83 599 OFFCURVE",
"1000.5 615 CURVE SMOOTH",
"962.166 631 OFFCURVE",
"921.666 639 OFFCURVE",
"879 639 CURVE SMOOTH",
"789.666 639 OFFCURVE",
"714.333 608.166 OFFCURVE",
"653 546.5 CURVE SMOOTH",
"591.667 484.833 OFFCURVE",
"561 409 OFFCURVE",
"561 319 CURVE SMOOTH"
);
},
{
closed = 1;
nodes = (
"83 440 LINE",
"1204 886 LINE",
"1154 998.999 LINE",
"39 553 LINE"
);
},
{
closed = 1;
nodes = (
"168 1164 OFFCURVE",
"185.833 1207.67 OFFCURVE",
"221.5 1243 CURVE SMOOTH",
"257.167 1278.33 OFFCURVE",
"300.667 1296 OFFCURVE",
"352 1296 CURVE SMOOTH",
"403.333 1296 OFFCURVE",
"447 1278.17 OFFCURVE",
"483 1242.5 CURVE SMOOTH",
"519 1206.83 OFFCURVE",
"537 1163.33 OFFCURVE",
"537 1112 CURVE SMOOTH",
"537 1060.67 OFFCURVE",
"519 1017.17 OFFCURVE",
"483 981.499 CURVE SMOOTH",
"447 945.833 OFFCURVE",
"403.333 927.999 OFFCURVE",
"352 927.999 CURVE SMOOTH",
"299.333 927.999 OFFCURVE",
"255.5 945.499 OFFCURVE",
"220.5 980.499 CURVE SMOOTH",
"185.5 1015.5 OFFCURVE",
"168 1059.33 OFFCURVE",
"168 1112 CURVE SMOOTH"
);
},
{
closed = 1;
nodes = (
"33 1022 OFFCURVE",
"63.667 946.333 OFFCURVE",
"125 884.999 CURVE SMOOTH",
"186.333 823.666 OFFCURVE",
"262 792.999 OFFCURVE",
"352 792.999 CURVE SMOOTH",
"441.333 792.999 OFFCURVE",
"517 823.833 OFFCURVE",
"579 885.499 CURVE SMOOTH",
"641 947.166 OFFCURVE",
"672 1022.67 OFFCURVE",
"672 1112 CURVE SMOOTH",
"672 1155.33 OFFCURVE",
"663.833 1196.5 OFFCURVE",
"647.5 1235.5 CURVE SMOOTH",
"631.167 1274.5 OFFCURVE",
"608 1309 OFFCURVE",
"578 1339 CURVE SMOOTH",
"548 1369 OFFCURVE",
"513.5 1392 OFFCURVE",
"474.5 1408 CURVE SMOOTH",
"435.5 1424 OFFCURVE",
"394.667 1432 OFFCURVE",
"352 1432 CURVE SMOOTH",
"262 1432 OFFCURVE",
"186.333 1401.17 OFFCURVE",
"125 1339.5 CURVE SMOOTH",
"63.667 1277.83 OFFCURVE",
"33 1202 OFFCURVE",
"33 1112 CURVE SMOOTH"
);
}
);
width = 1233;
}
);
unicode = 0025;
},
{
glyphname = ampersand;
layers = (
{
layerId = "8A8F53B0-DF48-4C43-86E4-F0539724E722";
paths = (
{
closed = 1;
nodes = (
"547 907 LINE SMOOTH",
"495.666 975.666 OFFCURVE",
"460.333 1031.5 OFFCURVE",
"441 1074.5 CURVE SMOOTH",
"421.666 1117.5 OFFCURVE",
"412 1158.67 OFFCURVE",
"412 1198 CURVE SMOOTH",
"412 1249.33 OFFCURVE",
"430.666 1290.17 OFFCURVE",
"468 1320.5 CURVE SMOOTH",
"505.333 1350.83 OFFCURVE",
"556.333 1366 OFFCURVE",
"621 1366 CURVE SMOOTH",
"667 1366 OFFCURVE",
"710.833 1359.83 OFFCURVE",
"752.5 1347.5 CURVE SMOOTH",
"794.166 1335.17 OFFCURVE",
"834.666 1316 OFFCURVE",
"874 1290 CURVE",
"874 1473 LINE",
"827.333 1488.33 OFFCURVE",
"782.166 1500 OFFCURVE",
"738.5 1508 CURVE SMOOTH",
"694.833 1516 OFFCURVE",
"651.333 1520 OFFCURVE",
"608 1520 CURVE SMOOTH",
"492.666 1520 OFFCURVE",
"401.833 1491 OFFCURVE",
"335.5 1433 CURVE SMOOTH",
"269.166 1375 OFFCURVE",
"236 1296 OFFCURVE",
"236 1196 CURVE SMOOTH",
"236 1148.67 OFFCURVE",
"244 1102 OFFCURVE",
"260 1056 CURVE SMOOTH",
"276 1010 OFFCURVE",
"300.666 963 OFFCURVE",
"334 915 CURVE",
"241.333 848.333 OFFCURVE",
"172 776 OFFCURVE",
"126 698 CURVE SMOOTH",
"80 620 OFFCURVE",
"57 535.333 OFFCURVE",
"57 444 CURVE SMOOTH",
"57 308 OFFCURVE",
"104 195.167 OFFCURVE",
"198 105.5 CURVE SMOOTH",
"292 15.833 OFFCURVE",
"411 -29 OFFCURVE",
"555 -29 CURVE SMOOTH",
"625.666 -29 OFFCURVE",
"692 -17.666 OFFCURVE",
"754 5 CURVE SMOOTH",
"816 27.667 OFFCURVE",
"874.666 62.333 OFFCURVE",
"929.999 109 CURVE",
"1008 0 LINE",
"1221 0 LINE",
"1051 229 LINE",
"1101 287.667 OFFCURVE",
"1138.33 357.5 OFFCURVE",
"1163 438.5 CURVE SMOOTH",
"1187.67 519.5 OFFCURVE",
"1200 613.667 OFFCURVE",
"1200 721 CURVE SMOOTH",
"1200 760 LINE",
"1036 760 LINE",
"1037 753 LINE",
"1039 706.333 OFFCURVE",
"1040 672.333 OFFCURVE",
"1040 651 CURVE SMOOTH",
"1040 581.667 OFFCURVE",
"1033.67 522 OFFCURVE",
"1021 472 CURVE SMOOTH",
"1008.33 422 OFFCURVE",
"988.999 380.667 OFFCURVE",
"962.999 348 CURVE"
);
},
{
closed = 1;
nodes = (
"844 223 LINE",
"833.333 214.333 OFFCURVE",
"822.166 206.167 OFFCURVE",
"810.5 198.5 CURVE SMOOTH",
"798.833 190.833 OFFCURVE",
"784 182 OFFCURVE",
"766 172 CURVE SMOOTH",
"736.666 156.667 OFFCURVE",
"706.666 145 OFFCURVE",
"676 137 CURVE SMOOTH",
"645.333 129 OFFCURVE",
"616 125 OFFCURVE",
"588 125 CURVE SMOOTH",
"484.666 125 OFFCURVE",
"399.666 158.167 OFFCURVE",
"333 224.5 CURVE SMOOTH",
"266.333 290.833 OFFCURVE",
"233 374.333 OFFCURVE",
"233 475 CURVE SMOOTH",
"233 536.333 OFFCURVE",
"248.166 594.166 OFFCURVE",
"278.5 648.5 CURVE SMOOTH",
"308.833 702.833 OFFCURVE",
"354.666 754.333 OFFCURVE",
"416 803 CURVE"
);
}
);
width = 1233;
}
);
unicode = 0026;
},
{
glyphname = quotesingle;
layers = (
{
layerId = "8A8F53B0-DF48-4C43-86E4-F0539724E722";
paths = (
{
closed = 1;
nodes = (
"742 1558 LINE",
"518 1558 LINE",
"518 935 LINE",
"742 935 LINE"
);
}
);
width = 1233;
}
);
unicode = 0027;
},
{
glyphname = parenleft;
layers = (
{
layerId = "8A8F53B0-DF48-4C43-86E4-F0539724E722";
paths = (
{
closed = 1;
nodes = (
"695 1654 LINE",
"594.333 1496.67 OFFCURVE",
"519.333 1342.67 OFFCURVE",
"470 1192 CURVE SMOOTH",
"420.666 1041.33 OFFCURVE",
"396 891.666 OFFCURVE",
"396 743 CURVE SMOOTH",
"396 593.666 OFFCURVE",
"420.666 443.833 OFFCURVE",
"470 293.5 CURVE SMOOTH",
"519.333 143.167 OFFCURVE",
"594.333 -11.333 OFFCURVE",
"695 -170 CURVE",
"855 -170 LINE",
"766.333 -16.667 OFFCURVE",
"700.166 135.667 OFFCURVE",
"656.5 287 CURVE SMOOTH",
"612.833 438.333 OFFCURVE",
"591 590.333 OFFCURVE",
"591 743 CURVE SMOOTH",
"591 896.333 OFFCURVE",
"612.833 1048.5 OFFCURVE",
"656.5 1199.5 CURVE SMOOTH",
"700.166 1350.5 OFFCURVE",
"766.333 1502 OFFCURVE",
"854.999 1654 CURVE"
);
}
);
width = 1233;
}
);
unicode = 0028;
},
{
glyphname = parenright;
layers = (
{
layerId = "8A8F53B0-DF48-4C43-86E4-F0539724E722";
paths = (
{
closed = 1;
nodes = (
"348 1654 LINE",
"436.666 1501.33 OFFCURVE",
"502.833 1349.33 OFFCURVE",
"546.5 1198 CURVE SMOOTH",
"590.166 1046.67 OFFCURVE",
"612 894.999 OFFCURVE",
"612 743 CURVE SMOOTH",
"612 591.666 OFFCURVE",
"590.166 440.333 OFFCURVE",
"546.5 289 CURVE SMOOTH",
"502.833 137.667 OFFCURVE",
"436.666 -15.333 OFFCURVE",
"348 -170 CURVE",
"508 -170 LINE",
"608.666 -12.667 OFFCURVE",
"683.666 141.333 OFFCURVE",
"733 292 CURVE SMOOTH",
"782.333 442.666 OFFCURVE",
"807 593 OFFCURVE",
"807 743 CURVE SMOOTH",
"807 891.666 OFFCURVE",
"782.333 1041.33 OFFCURVE",
"733 1192 CURVE SMOOTH",
"683.666 1342.67 OFFCURVE",
"608.666 1496.67 OFFCURVE",
"508 1654 CURVE"
);
}
);
width = 1233;
}
);
unicode = 0029;
},
{
glyphname = asterisk;
layers = (
{
layerId = "8A8F53B0-DF48-4C43-86E4-F0539724E722";
paths = (
{
closed = 1;
nodes = (
"1179 871 LINE",
"1109 993.999 LINE",
"691 743 LINE",
"691 1209 LINE",
"548 1209 LINE",
"548 743 LINE",
"130 993.999 LINE",
"60 871 LINE",
"505 631 LINE",
"60 390 LINE",
"130 268 LINE",
"548 519 LINE",
"548 53 LINE",
"691 53 LINE",
"691 519 LINE",
"1109 268 LINE",
"1179 390 LINE",
"735 631 LINE"
);
}
);
width = 1233;
}
);
unicode = 002A;
},
{
glyphname = plus;
layers = (
{
layerId = "8A8F53B0-DF48-4C43-86E4-F0539724E722";
paths = (
{
closed = 1;
nodes = (
"720 1178 LINE",
"552 1178 LINE",
"552 735 LINE",
"108 735 LINE",
"108 566 LINE",
"552 566 LINE",
"552 123 LINE",
"720 123 LINE",
"720 566 LINE",
"1165 566 LINE",
"1165 735 LINE",
"720 735 LINE"
);
}
);
width = 1233;
}
);
unicode = 002B;
},
{
glyphname = comma;
layers = (
{
layerId = "8A8F53B0-DF48-4C43-86E4-F0539724E722";
paths = (
{
closed = 1;
nodes = (
"442 361 LINE",
"442 96 LINE",
"332 -336 LINE",
"532 -335 LINE",
"754 96 LINE",
"754 361 LINE"
);
}
);
width = 1233;
}
);
unicode = 002C;
},
{
glyphname = hyphen;
layers = (
{
layerId = "8A8F53B0-DF48-4C43-86E4-F0539724E722";
paths = (
{
closed = 1;
nodes = (
"102 724 LINE",
"102 555 LINE",
"1162 555 LINE",
"1162 724 LINE"
);
}
);
width = 1233;
}
);
unicode = 002D;
},
{
glyphname = period;
layers = (
{
layerId = "8A8F53B0-DF48-4C43-86E4-F0539724E722";
paths = (
{
closed = 1;
nodes = (
"389 404 LINE",
"389 0 LINE",
"741 0 LINE",
"741 404 LINE"
);
}
);
width = 1233;
}
);
unicode = 002E;
},
{
glyphname = slash;
layers = (
{
layerId = "8A8F53B0-DF48-4C43-86E4-F0539724E722";
paths = (
{
closed = 1;
nodes = (
"889 1493 LINE",
"102 -190 LINE",
"293 -190 LINE",
"1079 1493 LINE"
);
}
);
width = 1233;
}
);
unicode = 002F;
},
{
glyphname = zero;
layers = (
{
layerId = "8A8F53B0-DF48-4C43-86E4-F0539724E722";
paths = (
{
closed = 1;
nodes = (
"456.666 1515 OFFCURVE",
"336.333 1450 OFFCURVE",
"255 1320 CURVE SMOOTH",
"173.667 1190 OFFCURVE",
"133 997.666 OFFCURVE",
"133 743 CURVE SMOOTH",
"133 488.333 OFFCURVE",
"173.667 296 OFFCURVE",
"255 166 CURVE SMOOTH",
"336.333 36 OFFCURVE",
"456.666 -29 OFFCURVE",
"616 -29 CURVE SMOOTH",
"775.333 -29 OFFCURVE",
"895.833 36 OFFCURVE",
"977.499 166 CURVE SMOOTH",
"1059.17 296 OFFCURVE",
"1100 488.333 OFFCURVE",
"1100 743 CURVE SMOOTH",
"1100 997.666 OFFCURVE",
"1059.17 1190 OFFCURVE",
"977.499 1320 CURVE SMOOTH",
"895.833 1450 OFFCURVE",
"775.333 1515 OFFCURVE",
"616 1515 CURVE SMOOTH"
);
},
{
closed = 1;
nodes = (
"522.666 131 OFFCURVE",
"451 186 OFFCURVE",
"401 296 CURVE",
"876.999 1041 LINE",
"890.333 952.333 OFFCURVE",
"896.999 853 OFFCURVE",
"896.999 743 CURVE SMOOTH",
"896.999 536.333 OFFCURVE",
"873.833 382.666 OFFCURVE",
"827.5 282 CURVE SMOOTH",
"781.166 181.333 OFFCURVE",
"710.666 131 OFFCURVE",
"616 131 CURVE SMOOTH"
);
},
{
closed = 1;
nodes = (
"702 1355 OFFCURVE",
"770.333 1310.67 OFFCURVE",
"821 1222 CURVE",
"355 479 LINE",
"342.333 561 OFFCURVE",
"336 649 OFFCURVE",
"336 743 CURVE SMOOTH",
"336 949.666 OFFCURVE",
"359.166 1103.33 OFFCURVE",
"405.5 1204 CURVE SMOOTH",
"451.833 1304.67 OFFCURVE",
"522 1355 OFFCURVE",
"616 1355 CURVE SMOOTH"
);
}
);
width = 1233;
}
);
unicode = 0030;
},
{
glyphname = one;
layers = (
{
layerId = "8A8F53B0-DF48-4C43-86E4-F0539724E722";
paths = (
{
closed = 1;
nodes = (
"270 169 LINE",
"270 0 LINE",
"1094 0 LINE",
"1094 169 LINE",
"784 169 LINE",
"784 1488 LINE",
"582 1488 LINE",
"208 1310 LINE",
"208 1116 LINE",
"584 1297 LINE",
"584 169 LINE"
);
}
);
width = 1233;
}
);
unicode = 0031;
},
{
glyphname = two;
layers = (
{
layerId = "8A8F53B0-DF48-4C43-86E4-F0539724E722";
paths = (
{
closed = 1;
nodes = (
"373 170 LINE",
"518.333 322.667 OFFCURVE",
"626.5 437.333 OFFCURVE",
"697.5 514 CURVE SMOOTH",
"768.5 590.666 OFFCURVE",
"822.666 650.666 OFFCURVE",
"860 694 CURVE SMOOTH",
"926.666 771.333 OFFCURVE",
"974.833 842 OFFCURVE",
"1004.5 906 CURVE SMOOTH",
"1034.17 969.999 OFFCURVE",
"1049 1034 OFFCURVE",
"1049 1098 CURVE SMOOTH",
"1049 1224 OFFCURVE",
"1004.5 1325.83 OFFCURVE",
"915.5 1403.5 CURVE SMOOTH",
"826.5 1481.17 OFFCURVE",
"709 1520 OFFCURVE",
"563 1520 CURVE SMOOTH",
"498.333 1520 OFFCURVE",
"432.833 1511.67 OFFCURVE",
"366.5 1495 CURVE SMOOTH",
"300.167 1478.33 OFFCURVE",
"232.667 1453.67 OFFCURVE",
"164 1421 CURVE",
"164 1217 LINE",
"238.667 1261.67 OFFCURVE",
"309.333 1295 OFFCURVE",
"376 1317 CURVE SMOOTH",
"442.667 1339 OFFCURVE",
"506.333 1350 OFFCURVE",
"567 1350 CURVE SMOOTH",
"652.333 1350 OFFCURVE",
"719.5 1326.33 OFFCURVE",
"768.5 1279 CURVE SMOOTH",
"817.5 1231.67 OFFCURVE",
"842 1166.33 OFFCURVE",
"842 1083 CURVE SMOOTH",
"842 1030.33 OFFCURVE",
"830.333 978.833 OFFCURVE",
"807 928.5 CURVE SMOOTH",
"783.666 878.166 OFFCURVE",
"738.666 812.333 OFFCURVE",
"672 731 CURVE SMOOTH",
"636.666 689.666 OFFCURVE",
"572.333 618.666 OFFCURVE",
"479 518 CURVE SMOOTH",
"385.667 417.333 OFFCURVE",
"276.667 301.333 OFFCURVE",
"152 170 CURVE",
"152 0 LINE",
"1059 0 LINE",
"1059 170 LINE"
);
}
);
width = 1233;
}
);
unicode = 0032;
},
{
glyphname = three;
layers = (
{
layerId = "8A8F53B0-DF48-4C43-86E4-F0539724E722";
paths = (
{
closed = 1;
nodes = (
"863.333 821.666 OFFCURVE",
"929.833 860.333 OFFCURVE",
"975.499 915 CURVE SMOOTH",
"1021.17 969.666 OFFCURVE",
"1044 1038 OFFCURVE",
"1044 1120 CURVE SMOOTH",
"1044 1240.67 OFFCURVE",
"1000.5 1337.5 OFFCURVE",
"913.5 1410.5 CURVE SMOOTH",
"826.5 1483.5 OFFCURVE",
"710.333 1520 OFFCURVE",
"565 1520 CURVE SMOOTH",
"516.333 1520 OFFCURVE",
"460.5 1514.67 OFFCURVE",
"397.5 1504 CURVE SMOOTH",
"334.5 1493.33 OFFCURVE",
"262.667 1477.33 OFFCURVE",
"182 1456 CURVE",
"182 1270 LINE",
"251.333 1296.67 OFFCURVE",
"317.667 1316.67 OFFCURVE",
"381 1330 CURVE SMOOTH",
"444.333 1343.33 OFFCURVE",
"505.666 1350 OFFCURVE",
"565 1350 CURVE SMOOTH",
"654.333 1350 OFFCURVE",
"723.166 1329.5 OFFCURVE",
"771.5 1288.5 CURVE SMOOTH",
"819.833 1247.5 OFFCURVE",
"844 1188.67 OFFCURVE",
"844 1112 CURVE SMOOTH",
"844 1039.33 OFFCURVE",
"818 982.666 OFFCURVE",
"766 942 CURVE SMOOTH",
"714 901.333 OFFCURVE",
"641.666 881 OFFCURVE",
"549 881 CURVE SMOOTH",
"395 881 LINE",
"395 715 LINE",
"549 715 LINE SMOOTH",
"650.333 715 OFFCURVE",
"730.666 689.5 OFFCURVE",
"790 638.5 CURVE SMOOTH",
"849.333 587.5 OFFCURVE",
"878.999 518.667 OFFCURVE",
"878.999 432 CURVE SMOOTH",
"878.999 338 OFFCURVE",
"849.333 266 OFFCURVE",
"790 216 CURVE SMOOTH",
"730.666 166 OFFCURVE",
"645.666 141 OFFCURVE",
"535 141 CURVE SMOOTH",
"469.666 141 OFFCURVE",
"404 149.667 OFFCURVE",
"338 167 CURVE SMOOTH",
"272 184.333 OFFCURVE",
"205 210.667 OFFCURVE",
"137 246 CURVE",
"137 45 LINE",
"205.667 21 OFFCURVE",
"275.666 2.667 OFFCURVE",
"347 -10 CURVE SMOOTH",
"418.333 -22.666 OFFCURVE",
"488.333 -29 OFFCURVE",
"557 -29 CURVE SMOOTH",
"720.333 -29 OFFCURVE",
"848.166 10.167 OFFCURVE",
"940.499 88.5 CURVE SMOOTH",
"1032.83 166.833 OFFCURVE",
"1079 274.667 OFFCURVE",
"1079 412 CURVE SMOOTH",
"1079 511.333 OFFCURVE",
"1053 594.167 OFFCURVE",
"1001 660.5 CURVE SMOOTH",
"948.999 726.833 OFFCURVE",
"873.999 773 OFFCURVE",
"775.999 799 CURVE"
);
}
);
width = 1233;
}
);
unicode = 0033;
},
{
glyphname = four;
layers = (
{
layerId = "8A8F53B0-DF48-4C43-86E4-F0539724E722";
paths = (
{
closed = 1;
nodes = (
"735 1309 LINE",
"735 520 LINE",
"264 520 LINE"
);
},
{
closed = 1;
nodes = (
"702 1493 LINE",
"102 547 LINE",
"102 356 LINE",
"735 356 LINE",
"735 0 LINE",
"936 0 LINE",
"936 356 LINE",
"1135 356 LINE",
"1135 520 LINE",
"936 520 LINE",
"936 1493 LINE"
);
}
);
width = 1233;
}
);
unicode = 0034;
},
{
glyphname = five;
layers = (
{
layerId = "8A8F53B0-DF48-4C43-86E4-F0539724E722";
paths = (
{
closed = 1;
nodes = (
"207 1493 LINE",
"207 743 LINE",
"253.667 767.666 OFFCURVE",
"302.667 786.166 OFFCURVE",
"354 798.5 CURVE SMOOTH",
"405.333 810.833 OFFCURVE",
"458 817 OFFCURVE",
"512 817 CURVE SMOOTH",
"623.333 817 OFFCURVE",
"710.166 787.333 OFFCURVE",
"772.5 728 CURVE SMOOTH",
"834.833 668.666 OFFCURVE",
"865.999 585.666 OFFCURVE",
"865.999 479 CURVE SMOOTH",
"865.999 371 OFFCURVE",
"835.833 287.667 OFFCURVE",
"775.5 229 CURVE SMOOTH",
"715.166 170.333 OFFCURVE",
"629.333 141 OFFCURVE",
"518 141 CURVE SMOOTH",
"453.333 141 OFFCURVE",
"390 149.167 OFFCURVE",
"328 165.5 CURVE SMOOTH",
"266 181.833 OFFCURVE",
"204.333 206.667 OFFCURVE",
"143 240 CURVE",
"143 35 LINE",
"195 13.667 OFFCURVE",
"253.833 -2.333 OFFCURVE",
"319.5 -13 CURVE SMOOTH",
"385.166 -23.667 OFFCURVE",
"457.666 -29 OFFCURVE",
"537 -29 CURVE SMOOTH",
"701.666 -29 OFFCURVE",
"831.5 16.333 OFFCURVE",
"926.499 107 CURVE SMOOTH",
"1021.5 197.667 OFFCURVE",
"1069 321.667 OFFCURVE",
"1069 479 CURVE SMOOTH",
"1069 635 OFFCURVE",
"1023.67 758.666 OFFCURVE",
"933 850 CURVE SMOOTH",
"842.333 941.333 OFFCURVE",
"719.666 986.999 OFFCURVE",
"565 986.999 CURVE SMOOTH",
"535.666 986.999 OFFCURVE",
"506.5 984.499 OFFCURVE",
"477.5 979.499 CURVE SMOOTH",
"448.5 974.499 OFFCURVE",
"419.666 966.666 OFFCURVE",
"391 956 CURVE",
"391 1323 LINE",
"962.999 1323 LINE",
"962.999 1493 LINE"
);
}
);
width = 1233;
}
);
unicode = 0035;
},
{
glyphname = six;
layers = (
{
layerId = "8A8F53B0-DF48-4C43-86E4-F0539724E722";
paths = (
{
closed = 1;
nodes = (
"990.999 1460 LINE",
"945 1479.33 OFFCURVE",
"897.333 1494.17 OFFCURVE",
"848 1504.5 CURVE SMOOTH",
"798.666 1514.83 OFFCURVE",
"749.333 1520 OFFCURVE",
"700 1520 CURVE SMOOTH",
"516 1520 OFFCURVE",
"375.5 1453.83 OFFCURVE",
"278.5 1321.5 CURVE SMOOTH",
"181.5 1189.17 OFFCURVE",
"133 997 OFFCURVE",
"133 745 CURVE SMOOTH",
"133 477.667 OFFCURVE",
"173.333 281.833 OFFCURVE",
"254 157.5 CURVE SMOOTH",
"334.667 33.167 OFFCURVE",
"461.667 -29 OFFCURVE",
"635 -29 CURVE SMOOTH",
"782.333 -29 OFFCURVE",
"896.666 15.333 OFFCURVE",
"978 104 CURVE SMOOTH",
"1059.33 192.667 OFFCURVE",
"1100 317.667 OFFCURVE",
"1100 479 CURVE SMOOTH",
"1100 641 OFFCURVE",
"1060.5 766.166 OFFCURVE",
"981.499 854.5 CURVE SMOOTH",
"902.5 942.833 OFFCURVE",
"791 987 OFFCURVE",
"647 987 CURVE SMOOTH",
"573.666 987 OFFCURVE",
"508.666 969.166 OFFCURVE",
"452 933.5 CURVE SMOOTH",
"395.333 897.833 OFFCURVE",
"351 846.666 OFFCURVE",
"319 780 CURVE",
"319 967.333 OFFCURVE",
"352 1109.17 OFFCURVE",
"418 1205.5 CURVE SMOOTH",
"484 1301.83 OFFCURVE",
"581 1350 OFFCURVE",
"709 1350 CURVE SMOOTH",
"760.333 1350 OFFCURVE",
"809.666 1343.5 OFFCURVE",
"856.999 1330.5 CURVE SMOOTH",
"904.333 1317.5 OFFCURVE",
"948.999 1298.67 OFFCURVE",
"990.999 1274 CURVE"
);
},
{
closed = 1;
nodes = (
"720.333 829 OFFCURVE",
"787.666 799.666 OFFCURVE",
"833 741 CURVE SMOOTH",
"878.333 682.333 OFFCURVE",
"900.999 595 OFFCURVE",
"900.999 479 CURVE SMOOTH",
"900.999 363.667 OFFCURVE",
"878.333 276.5 OFFCURVE",
"833 217.5 CURVE SMOOTH",
"787.666 158.5 OFFCURVE",
"720.333 129 OFFCURVE",
"631 129 CURVE SMOOTH",
"545 129 OFFCURVE",
"477.333 160 OFFCURVE",
"428 222 CURVE SMOOTH",
"378.666 284 OFFCURVE",
"354 369.667 OFFCURVE",
"354 479 CURVE SMOOTH",
"354 588.333 OFFCURVE",
"378.666 674 OFFCURVE",
"428 736 CURVE SMOOTH",
"477.333 798 OFFCURVE",
"545 829 OFFCURVE",
"631 829 CURVE SMOOTH"
);
}
);
width = 1233;
}
);
unicode = 0036;
},
{
glyphname = seven;
layers = (
{
layerId = "8A8F53B0-DF48-4C43-86E4-F0539724E722";
paths = (
{
closed = 1;
nodes = (
"139 1493 LINE",
"139 1323 LINE",
"854 1323 LINE",
"334 0 LINE",
"545 0 LINE",
"1079 1407 LINE",
"1079 1493 LINE"
);
}
);
width = 1233;
}
);
unicode = 0037;
},
{
glyphname = eight;
layers = (
{
layerId = "8A8F53B0-DF48-4C43-86E4-F0539724E722";
paths = (
{
closed = 1;
nodes = (
"705.333 709 OFFCURVE",
"774.833 683.666 OFFCURVE",
"824.5 633 CURVE SMOOTH",
"874.166 582.333 OFFCURVE",
"899 511.333 OFFCURVE",
"899 420 CURVE SMOOTH",
"899 326.667 OFFCURVE",
"874.5 254.833 OFFCURVE",
"825.5 204.5 CURVE SMOOTH",
"776.5 154.167 OFFCURVE",
"706.666 129 OFFCURVE",
"616 129 CURVE SMOOTH",
"527.333 129 OFFCURVE",
"458.166 154.5 OFFCURVE",
"408.5 205.5 CURVE SMOOTH",
"358.833 256.5 OFFCURVE",
"334 328 OFFCURVE",
"334 420 CURVE SMOOTH",
"334 512 OFFCURVE",
"358.5 583.166 OFFCURVE",
"407.5 633.5 CURVE SMOOTH",
"456.5 683.833 OFFCURVE",
"526 709 OFFCURVE",
"616 709 CURVE SMOOTH"
);
},
{
closed = 1;
nodes = (
"340 771 OFFCURVE",
"263.5 726.5 OFFCURVE",
"210.5 659.5 CURVE SMOOTH",
"157.5 592.5 OFFCURVE",
"131 505.666 OFFCURVE",
"131 399 CURVE SMOOTH",
"131 265 OFFCURVE",
"173.833 160.167 OFFCURVE",
"259.5 84.5 CURVE SMOOTH",
"345.167 8.833 OFFCURVE",
"464 -29 OFFCURVE",
"616 -29 CURVE SMOOTH",
"768 -29 OFFCURVE",
"887 9 OFFCURVE",
"972.999 85 CURVE SMOOTH",
"1059 161 OFFCURVE",
"1102 266.333 OFFCURVE",
"1102 401 CURVE SMOOTH",
"1102 507 OFFCURVE",
"1075.5 593.333 OFFCURVE",
"1022.5 660 CURVE SMOOTH",
"969.499 726.666 OFFCURVE",
"893 771 OFFCURVE",
"793 793 CURVE",
"879 815 OFFCURVE",
"946.166 856 OFFCURVE",
"994.499 916 CURVE SMOOTH",
"1042.83 975.999 OFFCURVE",
"1067 1048.33 OFFCURVE",
"1067 1133 CURVE SMOOTH",
"1067 1251.67 OFFCURVE",
"1026.67 1345.83 OFFCURVE",
"945.999 1415.5 CURVE SMOOTH",
"865.333 1485.17 OFFCURVE",
"755.333 1520 OFFCURVE",
"616 1520 CURVE SMOOTH",
"477.333 1520 OFFCURVE",
"367.666 1485.17 OFFCURVE",
"287 1415.5 CURVE SMOOTH",
"206.333 1345.83 OFFCURVE",
"166 1251.67 OFFCURVE",
"166 1133 CURVE SMOOTH",
"166 1048.33 OFFCURVE",
"190.167 976 OFFCURVE",
"238.5 916 CURVE SMOOTH",
"286.833 856 OFFCURVE",
"354 815 OFFCURVE",
"440 793 CURVE"
);
},
{
closed = 1;
nodes = (
"367 1194.67 OFFCURVE",
"388.333 1256.5 OFFCURVE",
"431 1299.5 CURVE SMOOTH",
"473.666 1342.5 OFFCURVE",
"535.333 1364 OFFCURVE",
"616 1364 CURVE SMOOTH",
"698 1364 OFFCURVE",
"760.166 1342.67 OFFCURVE",
"802.5 1300 CURVE SMOOTH",
"844.833 1257.33 OFFCURVE",
"865.999 1195.33 OFFCURVE",
"865.999 1114 CURVE SMOOTH",
"865.999 1034 OFFCURVE",
"844.666 972.999 OFFCURVE",
"802 931 CURVE SMOOTH",
"759.333 889 OFFCURVE",
"697.333 868 OFFCURVE",
"616 868 CURVE SMOOTH",
"535.333 868 OFFCURVE",
"473.666 889 OFFCURVE",
"431 931 CURVE SMOOTH",
"388.333 972.999 OFFCURVE",
"367 1034 OFFCURVE",
"367 1114 CURVE SMOOTH"
);
}
);
width = 1233;
}
);
unicode = 0038;
},
{
glyphname = nine;
layers = (
{
layerId = "8A8F53B0-DF48-4C43-86E4-F0539724E722";
paths = (
{
closed = 1;
nodes = (
"506 662 OFFCURVE",
"438.5 691.333 OFFCURVE",
"393.5 750 CURVE SMOOTH",
"348.5 808.666 OFFCURVE",
"326 896 OFFCURVE",
"326 1012 CURVE SMOOTH",
"326 1127.33 OFFCURVE",
"348.667 1214.5 OFFCURVE",
"394 1273.5 CURVE SMOOTH",
"439.333 1332.5 OFFCURVE",
"506.666 1362 OFFCURVE",
"596 1362 CURVE SMOOTH",
"682 1362 OFFCURVE",
"749.5 1331 OFFCURVE",
"798.5 1269 CURVE SMOOTH",
"847.5 1207 OFFCURVE",
"872 1121.33 OFFCURVE",
"872 1012 CURVE SMOOTH",
"872 902.666 OFFCURVE",
"847.5 817 OFFCURVE",
"798.5 755 CURVE SMOOTH",
"749.5 693 OFFCURVE",
"682 662 OFFCURVE",
"596 662 CURVE SMOOTH"
);
},
{
closed = 1;
nodes = (
"236 31 LINE",
"282 11.667 OFFCURVE",
"329.667 -3.167 OFFCURVE",
"379 -13.5 CURVE SMOOTH",
"428.333 -23.833 OFFCURVE",
"477.333 -29 OFFCURVE",
"526 -29 CURVE SMOOTH",
"710.666 -29 OFFCURVE",
"851.5 37.167 OFFCURVE",
"948.5 169.5 CURVE SMOOTH",
"1045.5 301.833 OFFCURVE",
"1094 493.666 OFFCURVE",
"1094 745 CURVE SMOOTH",
"1094 1012.33 OFFCURVE",
"1053.67 1208.33 OFFCURVE",
"972.999 1333 CURVE SMOOTH",
"892.333 1457.67 OFFCURVE",
"765.333 1520 OFFCURVE",
"592 1520 CURVE SMOOTH",
"444 1520 OFFCURVE",
"329.5 1475.83 OFFCURVE",
"248.5 1387.5 CURVE SMOOTH",
"167.5 1299.17 OFFCURVE",
"127 1174.67 OFFCURVE",
"127 1014 CURVE SMOOTH",
"127 851.333 OFFCURVE",
"166.5 725.666 OFFCURVE",
"245.5 637 CURVE SMOOTH",
"324.5 548.333 OFFCURVE",
"436 504 OFFCURVE",
"580 504 CURVE SMOOTH",
"653.333 504 OFFCURVE",
"718.333 521.833 OFFCURVE",
"775 557.5 CURVE SMOOTH",
"831.666 593.166 OFFCURVE",
"875.666 644.333 OFFCURVE",
"906.999 711 CURVE",
"906.999 523.666 OFFCURVE",
"874.166 381.833 OFFCURVE",
"808.5 285.5 CURVE SMOOTH",
"742.833 189.167 OFFCURVE",
"646 141 OFFCURVE",
"518 141 CURVE SMOOTH",
"466.666 141 OFFCURVE",
"417.333 147.5 OFFCURVE",
"370 160.5 CURVE SMOOTH",
"322.666 173.5 OFFCURVE",
"278 192.333 OFFCURVE",
"236 217 CURVE"
);
}
);
width = 1233;
}
);
unicode = 0039;
},
{
glyphname = colon;
layers = (
{
layerId = "8A8F53B0-DF48-4C43-86E4-F0539724E722";
paths = (
{
closed = 1;
nodes = (
"429 1119 LINE",
"429 758 LINE",
"741 758 LINE",
"741 1119 LINE"
);
},
{
closed = 1;
nodes = (
"429 364 LINE",
"429 0 LINE",
"741 0 LINE",
"741 364 LINE"
);
}
);
width = 1233;
}
);
unicode = 003A;
},
{
glyphname = semicolon;
layers = (
{
layerId = "8A8F53B0-DF48-4C43-86E4-F0539724E722";
paths = (
{
closed = 1;
nodes = (
"442 361 LINE",
"442 96 LINE",
"343 -286 LINE",
"557 -286 LINE",
"754 96 LINE",
"754 361 LINE"
);
},
{
closed = 1;
nodes = (
"429 1119 LINE",
"429 758 LINE",
"741 758 LINE",
"741 1119 LINE"
);
}
);
width = 1233;
}
);
unicode = 003B;
},
{
glyphname = less;
layers = (
{
layerId = "8A8F53B0-DF48-4C43-86E4-F0539724E722";
paths = (
{
closed = 1;
nodes = (
"1145 961 LINE",
"1145 1143 LINE",
"88 725 LINE",
"88 559 LINE",
"1145 141 LINE",
"1145 324 LINE",
"295 641 LINE"
);
}
);
width = 1233;
}
);
unicode = 003C;
},
{
glyphname = equal;
layers = (
{
layerId = "8A8F53B0-DF48-4C43-86E4-F0539724E722";
paths = (
{
closed = 1;
nodes = (
"88 500 LINE",
"88 331 LINE",
"1145 331 LINE",
"1145 500 LINE"
);
},
{
closed = 1;
nodes = (
"88 970.999 LINE",
"88 802 LINE",
"1145 802 LINE",
"1145 970.999 LINE"
);
}
);
width = 1233;
}
);
unicode = 003D;
},
{
glyphname = greater;
layers = (
{
layerId = "8A8F53B0-DF48-4C43-86E4-F0539724E722";
paths = (
{
closed = 1;
nodes = (
"88 961 LINE",
"938 641 LINE",
"88 324 LINE",
"88 141 LINE",
"1145 559 LINE",
"1145 725 LINE",
"88 1143 LINE"
);
}
);
width = 1233;
}
);
unicode = 003E;
},
{
glyphname = question;
layers = (
{
layerId = "8A8F53B0-DF48-4C43-86E4-F0539724E722";
paths = (
{
closed = 1;
nodes = (
"684 401 LINE",
"684 524 LINE",
"684 571 LINE SMOOTH",
"684 611.666 OFFCURVE",
"690.333 646 OFFCURVE",
"703 674 CURVE SMOOTH",
"715.666 702 OFFCURVE",
"745 738 OFFCURVE",
"791 782 CURVE SMOOTH",
"879 868 LINE SMOOTH",
"941.666 929.333 OFFCURVE",
"984.166 981.833 OFFCURVE",
"1006.5 1025.5 CURVE SMOOTH",
"1028.83 1069.17 OFFCURVE",
"1040 1116.33 OFFCURVE",
"1040 1167 CURVE SMOOTH",
"1040 1274.33 OFFCURVE",
"1003.17 1360 OFFCURVE",
"929.5 1424 CURVE SMOOTH",
"855.833 1488 OFFCURVE",
"757 1520 OFFCURVE",
"633 1520 CURVE SMOOTH",
"563.666 1520 OFFCURVE",
"497.166 1510.67 OFFCURVE",
"433.5 1492 CURVE SMOOTH",
"369.833 1473.33 OFFCURVE",
"306.667 1445 OFFCURVE",
"244 1407 CURVE",
"244 1219 LINE",
"309.333 1264.33 OFFCURVE",
"371.666 1298.5 OFFCURVE",
"431 1321.5 CURVE SMOOTH",
"490.333 1344.5 OFFCURVE",
"546 1356 OFFCURVE",
"598 1356 CURVE SMOOTH",
"670.666 1356 OFFCURVE",
"728.833 1337.67 OFFCURVE",
"772.5 1301 CURVE SMOOTH",
"816.166 1264.33 OFFCURVE",
"838 1216.33 OFFCURVE",
"838 1157 CURVE SMOOTH",
"838 1124.33 OFFCURVE",
"830.166 1093.33 OFFCURVE",
"814.5 1064 CURVE SMOOTH",
"798.833 1034.67 OFFCURVE",
"770.333 1000.33 OFFCURVE",
"729 960.999 CURVE SMOOTH",
"639 871.999 LINE SMOOTH",
"583 817.333 OFFCURVE",
"544.833 767.166 OFFCURVE",
"524.5 721.499 CURVE SMOOTH",
"504.166 675.833 OFFCURVE",
"494 620.333 OFFCURVE",
"494 555 CURVE SMOOTH",
"494 401 LINE"
);
},
{
closed = 1;
nodes = (
"487 254 LINE",
"487 0 LINE",
"690 0 LINE",
"690 254 LINE"
);
}
);
width = 1233;
}
);
unicode = 003F;
},
{
glyphname = at;
layers = (
{
layerId = "8A8F53B0-DF48-4C43-86E4-F0539724E722";
paths = (
{
closed = 1;
nodes = (
"1038 458.333 OFFCURVE",
"1016.67 389.166 OFFCURVE",
"973.999 337.5 CURVE SMOOTH",
"931.333 285.833 OFFCURVE",
"874.333 260 OFFCURVE",
"803 260 CURVE SMOOTH",
"731.666 260 OFFCURVE",
"674.5 285.833 OFFCURVE",
"631.5 337.5 CURVE SMOOTH",
"588.5 389.166 OFFCURVE",
"567 458.333 OFFCURVE",
"567 545 CURVE SMOOTH",
"567 631 OFFCURVE",
"588.5 699.833 OFFCURVE",
"631.5 751.5 CURVE SMOOTH",
"674.5 803.166 OFFCURVE",
"731.666 829 OFFCURVE",
"803 829 CURVE SMOOTH",
"874.333 829 OFFCURVE",
"931.333 803.166 OFFCURVE",
"973.999 751.5 CURVE SMOOTH",
"1016.67 699.833 OFFCURVE",
"1038 631 OFFCURVE",
"1038 545 CURVE SMOOTH"
);
},
{
closed = 1;
nodes = (
"1178 135 LINE",
"1178 905 LINE SMOOTH",
"1178 1054.33 OFFCURVE",
"1136.33 1173.33 OFFCURVE",
"1053 1262 CURVE SMOOTH",
"969.666 1350.67 OFFCURVE",
"858.333 1395 OFFCURVE",
"719 1395 CURVE SMOOTH",
"508.333 1395 OFFCURVE",
"340.333 1318 OFFCURVE",
"215 1164 CURVE SMOOTH",
"89.667 1010 OFFCURVE",
"27 803 OFFCURVE",
"27 543 CURVE SMOOTH",
"27 279 OFFCURVE",
"96.833 69.333 OFFCURVE",
"236.5 -86 CURVE SMOOTH",
"376.167 -241.333 OFFCURVE",
"561.666 -320 OFFCURVE",
"793 -322 CURVE",
"831 -328 OFFCURVE",
"884.166 -330.833 OFFCURVE",
"952.5 -330.5 CURVE SMOOTH",
"1020.83 -330.167 OFFCURVE",
"1076.67 -328.333 OFFCURVE",
"1120 -325 CURVE",
"1120 -181 LINE",
"1068.67 -183.667 OFFCURVE",
"1010.33 -185 OFFCURVE",
"945 -185 CURVE SMOOTH",
"879.666 -185 OFFCURVE",
"829 -182.333 OFFCURVE",
"793 -177 CURVE",
"601.666 -176.333 OFFCURVE",
"451 -111 OFFCURVE",
"341 19 CURVE SMOOTH",
"231 149 OFFCURVE",
"176 323.667 OFFCURVE",
"176 543 CURVE SMOOTH",
"176 761 OFFCURVE",
"224.5 933.833 OFFCURVE",
"321.5 1061.5 CURVE SMOOTH",
"418.5 1189.17 OFFCURVE",
"549 1253 OFFCURVE",
"713 1253 CURVE SMOOTH",
"809.666 1253 OFFCURVE",
"887.333 1221.33 OFFCURVE",
"946 1158 CURVE SMOOTH",
"1004.67 1094.67 OFFCURVE",
"1034 1011 OFFCURVE",
"1034 906.999 CURVE SMOOTH",
"1034 844 LINE",
"1010 884.666 OFFCURVE",
"975.666 916.666 OFFCURVE",
"931 939.999 CURVE SMOOTH",
"886.333 963.333 OFFCURVE",
"837.333 974.999 OFFCURVE",
"784 974.999 CURVE SMOOTH",
"676.666 974.999 OFFCURVE",
"587.833 934.666 OFFCURVE",
"517.5 853.999 CURVE SMOOTH",
"447.167 773.333 OFFCURVE",
"412 670.333 OFFCURVE",
"412 545 CURVE SMOOTH",
"412 419.666 OFFCURVE",
"447.167 316.666 OFFCURVE",
"517.5 236 CURVE SMOOTH",
"587.833 155.333 OFFCURVE",
"676.667 115 OFFCURVE",
"784 115 CURVE SMOOTH",
"838.666 115 OFFCURVE",
"887.833 126.333 OFFCURVE",
"931.5 149 CURVE SMOOTH",
"975.166 171.667 OFFCURVE",
"1009.33 204 OFFCURVE",
"1034 246 CURVE",
"1034 135 LINE"
);
}
);
width = 1233;
}
);
unicode = 0040;
},
{
glyphname = A;
layers = (
{
layerId = "8A8F53B0-DF48-4C43-86E4-F0539724E722";
paths = (
{
closed = 1;
nodes = (
"616 1315 LINE",
"829 551 LINE",
"403 551 LINE"
);
},
{
closed = 1;
nodes = (
"494 1493 LINE",
"37 0 LINE",
"246 0 LINE",
"354 389 LINE",
"877 389 LINE",
"986.999 0 LINE",
"1196 0 LINE",
"739 1493 LINE"
);
}
);
width = 1233;
}
);
unicode = 0041;
},
{
glyphname = B;
layers = (
{
layerId = "8A8F53B0-DF48-4C43-86E4-F0539724E722";
paths = (
{
closed = 1;
nodes = (
"369 753 LINE",
"608 753 LINE SMOOTH",
"720 753 OFFCURVE",
"802.333 730.166 OFFCURVE",
"855 684.5 CURVE SMOOTH",
"907.666 638.833 OFFCURVE",
"934 554 OFFCURVE",
"934 430 CURVE SMOOTH",
"934 336 OFFCURVE",
"909 268.5 OFFCURVE",
"859 227.5 CURVE SMOOTH",
"809 186.5 OFFCURVE",
"725.333 166 OFFCURVE",
"608 166 CURVE SMOOTH",
"369 166 LINE"
);
},
{
closed = 1;
nodes = (
"369 1327 LINE",
"604 1327 LINE SMOOTH",
"702.666 1327 OFFCURVE",
"773.5 1310.33 OFFCURVE",
"816.5 1277 CURVE SMOOTH",
"859.5 1243.67 OFFCURVE",
"881 1189.33 OFFCURVE",
"881 1114 CURVE SMOOTH",
"881 1057.33 OFFCURVE",
"859.166 1010.33 OFFCURVE",
"815.5 972.999 CURVE SMOOTH",
"771.833 935.666 OFFCURVE",
"701.333 916.999 OFFCURVE",
"604 916.999 CURVE SMOOTH",
"369 916.999 LINE"
);
},
{
closed = 1;
nodes = (
"166 1493 LINE",
"166 0 LINE",
"608 0 LINE SMOOTH",
"783.333 0 OFFCURVE",
"915.333 34.5 OFFCURVE",
"1004 103.5 CURVE SMOOTH",
"1092.67 172.5 OFFCURVE",
"1137 274.667 OFFCURVE",
"1137 410 CURVE SMOOTH",
"1137 543.333 OFFCURVE",
"1109.17 644.5 OFFCURVE",
"1053.5 713.5 CURVE SMOOTH",
"997.833 782.5 OFFCURVE",
"921 824.333 OFFCURVE",
"823 839 CURVE",
"910.333 852.333 OFFCURVE",
"975.833 885.333 OFFCURVE",
"1019.5 938 CURVE SMOOTH",
"1063.17 990.666 OFFCURVE",
"1085 1049.33 OFFCURVE",
"1085 1114 CURVE SMOOTH",
"1085 1234.67 OFFCURVE",
"1043.67 1328 OFFCURVE",
"960.999 1394 CURVE SMOOTH",
"878.333 1460 OFFCURVE",
"760.666 1493 OFFCURVE",
"608 1493 CURVE SMOOTH"
);
}
);
width = 1233;
}
);
unicode = 0042;
},
{
glyphname = C;
layers = (
{
layerId = "8A8F53B0-DF48-4C43-86E4-F0539724E722";
paths = (
{
closed = 1;
nodes = (
"1073 260 LINE",
"1024.33 219.333 OFFCURVE",
"971.833 188.333 OFFCURVE",
"915.5 167 CURVE SMOOTH",
"859.166 145.667 OFFCURVE",
"801.666 135 OFFCURVE",
"743 135 CURVE SMOOTH",
"611.666 135 OFFCURVE",
"513.333 185.667 OFFCURVE",
"448 287 CURVE SMOOTH",
"382.667 388.333 OFFCURVE",
"350 541 OFFCURVE",
"350 745 CURVE SMOOTH",
"350 949.666 OFFCURVE",
"382.667 1102.67 OFFCURVE",
"448 1204 CURVE SMOOTH",
"513.333 1305.33 OFFCURVE",
"611.666 1356 OFFCURVE",
"743 1356 CURVE SMOOTH",
"800.333 1356 OFFCURVE",
"857.333 1345.33 OFFCURVE",
"914 1324 CURVE SMOOTH",
"970.666 1302.67 OFFCURVE",
"1023.67 1271.67 OFFCURVE",
"1073 1231 CURVE",
"1073 1438 LINE",
"1021.67 1465.33 OFFCURVE",
"969 1485.83 OFFCURVE",
"915 1499.5 CURVE SMOOTH",
"861 1513.17 OFFCURVE",
"803.666 1520 OFFCURVE",
"743 1520 CURVE SMOOTH",
"553 1520 OFFCURVE",
"404.833 1451.83 OFFCURVE",
"298.5 1315.5 CURVE SMOOTH",
"192.167 1179.17 OFFCURVE",
"139 989 OFFCURVE",
"139 745 CURVE SMOOTH",
"139 499.666 OFFCURVE",
"191.833 309.333 OFFCURVE",
"297.5 174 CURVE SMOOTH",
"403.167 38.667 OFFCURVE",
"551.667 -29 OFFCURVE",
"743 -29 CURVE SMOOTH",
"803.666 -29 OFFCURVE",
"861 -22.167 OFFCURVE",
"915 -8.5 CURVE SMOOTH",
"969 5.167 OFFCURVE",
"1021.67 25.667 OFFCURVE",
"1073 53 CURVE"
);
}
);
width = 1233;
}
);
unicode = 0043;
},
{
glyphname = D;
layers = (
{
layerId = "8A8F53B0-DF48-4C43-86E4-F0539724E722";
paths = (
{
closed = 1;
nodes = (
"340 166 LINE",
"340 1327 LINE",
"436 1327 LINE SMOOTH",
"606.666 1327 OFFCURVE",
"725.5 1285.17 OFFCURVE",
"792.5 1201.5 CURVE SMOOTH",
"859.5 1117.83 OFFCURVE",
"893 965.666 OFFCURVE",
"893 745 CURVE SMOOTH",
"893 526.333 OFFCURVE",
"859.333 375.167 OFFCURVE",
"792 291.5 CURVE SMOOTH",
"724.666 207.833 OFFCURVE",
"606 166 OFFCURVE",
"436 166 CURVE SMOOTH"
);
},
{
closed = 1;
nodes = (
"137 1493 LINE",
"137 0 LINE",
"440 0 LINE SMOOTH",
"668 0 OFFCURVE",
"836 60.5 OFFCURVE",
"944 181.5 CURVE SMOOTH",
"1052 302.5 OFFCURVE",
"1106 490.333 OFFCURVE",
"1106 745 CURVE SMOOTH",
"1106 1001 OFFCURVE",
"1052 1189.67 OFFCURVE",
"944 1311 CURVE SMOOTH",
"836 1432.33 OFFCURVE",
"668 1493 OFFCURVE",
"440 1493 CURVE SMOOTH"
);
}
);
width = 1233;
}
);
unicode = 0044;
},
{
glyphname = E;
layers = (
{
layerId = "8A8F53B0-DF48-4C43-86E4-F0539724E722";
paths = (
{
closed = 1;
nodes = (
"197 1493 LINE",
"197 0 LINE",
"1102 0 LINE",
"1102 170 LINE",
"399 170 LINE",
"399 751 LINE",
"1053 751 LINE",
"1053 921 LINE",
"399 921 LINE",
"399 1323 LINE",
"1083 1323 LINE",
"1083 1493 LINE"
);
}
);
width = 1233;
}
);
unicode = 0045;
},
{
glyphname = F;
layers = (
{
layerId = "8A8F53B0-DF48-4C43-86E4-F0539724E722";
paths = (
{
closed = 1;
nodes = (
"233 1493 LINE",
"233 0 LINE",
"436 0 LINE",
"436 753 LINE",
"1049 753 LINE",
"1049 923 LINE",
"436 923 LINE",
"436 1323 LINE",
"1112 1323 LINE",
"1112 1493 LINE"
);
}
);
width = 1233;
}
);
unicode = 0046;
},
{
glyphname = G;
layers = (
{
layerId = "8A8F53B0-DF48-4C43-86E4-F0539724E722";
paths = (
{
closed = 1;
nodes = (
"1104 766 LINE",
"694 766 LINE",
"694 600 LINE",
"911 600 LINE",
"911 199 LINE",
"883.666 177 OFFCURVE",
"853.166 160.833 OFFCURVE",
"819.5 150.5 CURVE SMOOTH",
"785.833 140.167 OFFCURVE",
"746.666 135 OFFCURVE",
"702 135 CURVE SMOOTH",
"570 135 OFFCURVE",
"472.166 184.833 OFFCURVE",
"408.5 284.5 CURVE SMOOTH",
"344.833 384.166 OFFCURVE",
"313 537.666 OFFCURVE",
"313 745 CURVE SMOOTH",
"313 949 OFFCURVE",
"345.833 1101.83 OFFCURVE",
"411.5 1203.5 CURVE SMOOTH",
"477.166 1305.17 OFFCURVE",
"575.666 1356 OFFCURVE",
"707 1356 CURVE SMOOTH",
"770.333 1356 OFFCURVE",
"830.333 1343.83 OFFCURVE",
"886.999 1319.5 CURVE SMOOTH",
"943.666 1295.17 OFFCURVE",
"998.999 1257.33 OFFCURVE",
"1053 1206 CURVE",
"1053 1413 LINE",
"999.666 1449 OFFCURVE",
"944.333 1475.83 OFFCURVE",
"887 1493.5 CURVE SMOOTH",
"829.666 1511.17 OFFCURVE",
"769.666 1520 OFFCURVE",
"707 1520 CURVE SMOOTH",
"517 1520 OFFCURVE",
"368.667 1451.83 OFFCURVE",
"262 1315.5 CURVE SMOOTH",
"155.333 1179.17 OFFCURVE",
"102 988.999 OFFCURVE",
"102 744.999 CURVE SMOOTH",
"102 500.333 OFFCURVE",
"154.667 310.166 OFFCURVE",
"260 174.5 CURVE SMOOTH",
"365.333 38.833 OFFCURVE",
"512.666 -29 OFFCURVE",
"702 -29 CURVE SMOOTH",
"780.666 -29 OFFCURVE",
"853.833 -16.167 OFFCURVE",
"921.5 9.5 CURVE SMOOTH",
"989.166 35.166 OFFCURVE",
"1050 73 OFFCURVE",
"1104 123 CURVE"
);
}
);
width = 1233;
}
);
unicode = 0047;
},
{
glyphname = H;
layers = (
{
layerId = "8A8F53B0-DF48-4C43-86E4-F0539724E722";
paths = (
{
closed = 1;
nodes = (
"137 1493 LINE",
"137 0 LINE",
"340 0 LINE",
"340 751 LINE",
"893 751 LINE",
"893 0 LINE",
"1096 0 LINE",
"1096 1493 LINE",
"893 1493 LINE",
"893 921 LINE",
"340 921 LINE",
"340 1493 LINE"
);
}
);
width = 1233;
}
);
unicode = 0048;
},
{
glyphname = I;
layers = (
{
layerId = "8A8F53B0-DF48-4C43-86E4-F0539724E722";
paths = (
{
closed = 1;
nodes = (
"201 1493 LINE",
"201 1323 LINE",
"514 1323 LINE",
"514 170 LINE",
"201 170 LINE",
"201 0 LINE",
"1030 0 LINE",
"1030 170 LINE",
"717 170 LINE",
"717 1323 LINE",
"1030 1323 LINE",
"1030 1493 LINE"
);
}
);
width = 1233;
}
);
unicode = 0049;
},
{
glyphname = J;
layers = (
{
layerId = "8A8F53B0-DF48-4C43-86E4-F0539724E722";
paths = (
{
closed = 1;
nodes = (
"109 61 LINE",
"177.667 30.333 OFFCURVE",
"243.667 7.667 OFFCURVE",
"307 -7 CURVE SMOOTH",
"370.333 -21.667 OFFCURVE",
"434 -29 OFFCURVE",
"498 -29 CURVE SMOOTH",
"662.666 -29 OFFCURVE",
"780.166 10 OFFCURVE",
"850.5 88 CURVE SMOOTH",
"920.833 166 OFFCURVE",
"956 299 OFFCURVE",
"956 487 CURVE SMOOTH",
"956 1493 LINE",
"373 1493 LINE",
"373 1323 LINE",
"754 1323 LINE",
"754 487 LINE SMOOTH",
"754 351.667 OFFCURVE",
"735.166 259.167 OFFCURVE",
"697.5 209.5 CURVE SMOOTH",
"659.833 159.833 OFFCURVE",
"593.333 135 OFFCURVE",
"498 135 CURVE SMOOTH",
"428.666 135 OFFCURVE",
"361.667 148.5 OFFCURVE",
"297 175.5 CURVE SMOOTH",
"232.333 202.5 OFFCURVE",
"169.667 243 OFFCURVE",
"109 297 CURVE"
);
}
);
width = 1233;
}
);
unicode = 004A;
},
{
glyphname = K;
layers = (
{
layerId = "8A8F53B0-DF48-4C43-86E4-F0539724E722";
paths = (
{
closed = 1;
nodes = (
"137 1493 LINE",
"137 0 LINE",
"340 0 LINE",
"340 584 LINE",
"494 748 LINE",
"980.999 0 LINE",
"1225 0 LINE",
"627 883 LINE",
"1208 1493 LINE",
"970.999 1493 LINE",
"340 829 LINE",
"340 1493 LINE"
);
}
);
width = 1233;
}
);
unicode = 004B;
},
{
glyphname = L;
layers = (
{
layerId = "8A8F53B0-DF48-4C43-86E4-F0539724E722";
paths = (
{
closed = 1;
nodes = (
"215 1493 LINE",
"215 0 LINE",
"1139 0 LINE",
"1139 170 LINE",
"418 170 LINE",
"418 1493 LINE"
);
}
);
width = 1233;
}
);
unicode = 004C;
},
{
glyphname = M;
layers = (
{
layerId = "8A8F53B0-DF48-4C43-86E4-F0539724E722";
paths = (
{
closed = 1;
nodes = (
"36 1488 LINE",
"36 0 LINE",
"222 0 LINE",
"222 1315 LINE",
"489 531 LINE",
"642 531 LINE",
"908 1315 LINE",
"908 0 LINE",
"1095 0 LINE",
"1095 1488 LINE",
"824 1488 LINE",
"564 730 LINE",
"306 1488 LINE"
);
}
);
width = 1233;
}
);
unicode = 004D;
},
{
glyphname = N;
layers = (
{
layerId = "8A8F53B0-DF48-4C43-86E4-F0539724E722";
paths = (
{
closed = 1;
nodes = (
"19 1488 LINE",
"19 0 LINE",
"234 0 LINE",
"234 1225 LINE",
"818 0 LINE",
"1094 0 LINE",
"1094 1488 LINE",
"879 1488 LINE",
"879 263 LINE",
"295 1488 LINE"
);
}
);
width = 1233;
}
);
unicode = 004E;
},
{
glyphname = O;
layers = (
{
layerId = "8A8F53B0-DF48-4C43-86E4-F0539724E722";
paths = (
{
closed = 1;
nodes = (
"905 525.666 OFFCURVE",
"882.5 369.167 OFFCURVE",
"837.5 275.5 CURVE SMOOTH",
"792.5 181.833 OFFCURVE",
"718.666 135 OFFCURVE",
"616 135 CURVE SMOOTH",
"514 135 OFFCURVE",
"440.5 182 OFFCURVE",
"395.5 276 CURVE SMOOTH",
"350.5 370 OFFCURVE",
"328 526.333 OFFCURVE",
"328 745 CURVE SMOOTH",
"328 964.333 OFFCURVE",
"350.5 1121 OFFCURVE",
"395.5 1215 CURVE SMOOTH",
"440.5 1309 OFFCURVE",
"514 1356 OFFCURVE",
"616 1356 CURVE SMOOTH",
"718.666 1356 OFFCURVE",
"792.5 1309 OFFCURVE",
"837.5 1215 CURVE SMOOTH",
"882.5 1121 OFFCURVE",
"905 964.333 OFFCURVE",
"905 745 CURVE SMOOTH"
);
},
{
closed = 1;
nodes = (
"1116 1005.67 OFFCURVE",
"1074.83 1200 OFFCURVE",
"992.5 1328 CURVE SMOOTH",
"910.166 1456 OFFCURVE",
"784.666 1520 OFFCURVE",
"616 1520 CURVE SMOOTH",
"448 1520 OFFCURVE",
"322.833 1456 OFFCURVE",
"240.5 1328 CURVE SMOOTH",
"158.167 1200 OFFCURVE",
"117 1005.67 OFFCURVE",
"117 745 CURVE SMOOTH",
"117 483.666 OFFCURVE",
"158 289.333 OFFCURVE",
"240 162 CURVE SMOOTH",
"322 34.667 OFFCURVE",
"447.333 -29 OFFCURVE",
"616 -29 CURVE SMOOTH",
"784.666 -29 OFFCURVE",
"910.166 35 OFFCURVE",
"992.5 163 CURVE SMOOTH",
"1074.83 291 OFFCURVE",
"1116 485 OFFCURVE",
"1116 745 CURVE SMOOTH"
);
}
);
width = 1233;
}
);
unicode = 004F;
},
{
glyphname = P;
layers = (
{
layerId = "8A8F53B0-DF48-4C43-86E4-F0539724E722";
paths = (
{
closed = 1;
nodes = (
"399 1327 LINE",
"633 1327 LINE SMOOTH",
"727 1327 OFFCURVE",
"800 1302.5 OFFCURVE",
"852 1253.5 CURVE SMOOTH",
"904 1204.5 OFFCURVE",
"930 1135.67 OFFCURVE",
"930 1047 CURVE SMOOTH",
"930 958.333 OFFCURVE",
"903.833 889.333 OFFCURVE",
"851.5 840 CURVE SMOOTH",
"799.166 790.666 OFFCURVE",
"726.333 766 OFFCURVE",
"633 766 CURVE SMOOTH",
"399 766 LINE"
);
},
{
closed = 1;
nodes = (
"197 1493 LINE",
"197 0 LINE",
"399 0 LINE",
"399 600 LINE",
"633 600 LINE SMOOTH",
"800.333 600 OFFCURVE",
"926.833 637.666 OFFCURVE",
"1012.5 713 CURVE SMOOTH",
"1098.17 788.333 OFFCURVE",
"1141 899.666 OFFCURVE",
"1141 1047 CURVE SMOOTH",
"1141 1193 OFFCURVE",
"1098 1303.83 OFFCURVE",
"1012 1379.5 CURVE SMOOTH",
"926 1455.17 OFFCURVE",
"799.666 1493 OFFCURVE",
"633 1493 CURVE SMOOTH"
);
}
);
width = 1233;
}
);
unicode = 0050;
},
{
glyphname = Q;
layers = (
{
layerId = "8A8F53B0-DF48-4C43-86E4-F0539724E722";
paths = (
{
closed = 1;
nodes = (
"889 -270 LINE",
"1040 -170 LINE",
"840 20 LINE",
"932.666 68 OFFCURVE",
"1001.83 151.833 OFFCURVE",
"1047.5 271.5 CURVE SMOOTH",
"1093.17 391.166 OFFCURVE",
"1116 549 OFFCURVE",
"1116 745 CURVE SMOOTH",
"1116 1005.67 OFFCURVE",
"1074.83 1200 OFFCURVE",
"992.5 1328 CURVE SMOOTH",
"910.166 1456 OFFCURVE",
"784.666 1520 OFFCURVE",
"616 1520 CURVE SMOOTH",
"448 1520 OFFCURVE",
"322.833 1456 OFFCURVE",
"240.5 1328 CURVE SMOOTH",
"158.167 1200 OFFCURVE",
"117 1005.67 OFFCURVE",
"117 745 CURVE SMOOTH",
"117 485 OFFCURVE",
"158.167 291 OFFCURVE",
"240.5 163 CURVE SMOOTH",
"322.833 35 OFFCURVE",
"447.333 -29 OFFCURVE",
"614 -29 CURVE SMOOTH",
"619.333 -29 OFFCURVE",
"626.333 -28.667 OFFCURVE",
"635 -28 CURVE SMOOTH",
"643.666 -27.333 OFFCURVE",
"650.333 -27 OFFCURVE",
"655 -27 CURVE"
);
},
{
closed = 1;
nodes = (
"905 525.666 OFFCURVE",
"882.5 369.167 OFFCURVE",
"837.5 275.5 CURVE SMOOTH",
"792.5 181.833 OFFCURVE",
"718.666 135 OFFCURVE",
"616 135 CURVE SMOOTH",
"514 135 OFFCURVE",
"440.5 182 OFFCURVE",
"395.5 276 CURVE SMOOTH",
"350.5 370 OFFCURVE",
"328 526.333 OFFCURVE",
"328 745 CURVE SMOOTH",
"328 964.333 OFFCURVE",
"350.5 1121 OFFCURVE",
"395.5 1215 CURVE SMOOTH",
"440.5 1309 OFFCURVE",
"514 1356 OFFCURVE",
"616 1356 CURVE SMOOTH",
"718.666 1356 OFFCURVE",
"792.5 1309 OFFCURVE",
"837.5 1215 CURVE SMOOTH",
"882.5 1121 OFFCURVE",
"905 964.333 OFFCURVE",
"905 745 CURVE SMOOTH"
);
}
);
width = 1233;
}
);
unicode = 0051;
},
{
glyphname = R;
layers = (
{
layerId = "8A8F53B0-DF48-4C43-86E4-F0539724E722";
paths = (
{
closed = 1;
nodes = (
"857.333 719 OFFCURVE",
"932.833 757.166 OFFCURVE",
"986.499 819.5 CURVE SMOOTH",
"1040.17 881.833 OFFCURVE",
"1067 962.333 OFFCURVE",
"1067 1061 CURVE SMOOTH",
"1067 1201 OFFCURVE",
"1023.33 1308 OFFCURVE",
"936 1382 CURVE SMOOTH",
"848.666 1456 OFFCURVE",
"723 1493 OFFCURVE",
"559 1493 CURVE SMOOTH",
"143 1493 LINE",
"143 0 LINE",
"346 0 LINE",
"346 631 LINE",
"539 631 LINE SMOOTH",
"605 631 OFFCURVE",
"658.5 615.5 OFFCURVE",
"699.5 584.5 CURVE SMOOTH",
"740.5 553.5 OFFCURVE",
"786.666 484.333 OFFCURVE",
"838 377 CURVE SMOOTH",
"1016 0 LINE",
"1233 0 LINE",
"1030 408 LINE SMOOTH",
"975.333 518.666 OFFCURVE",
"929.666 592.5 OFFCURVE",
"892.999 629.5 CURVE SMOOTH",
"856.333 666.5 OFFCURVE",
"812 691.666 OFFCURVE",
"760 705 CURVE"
);
},
{
closed = 1;
nodes = (
"346 1327 LINE",
"559 1327 LINE SMOOTH",
"655 1327 OFFCURVE",
"728.166 1304.17 OFFCURVE",
"778.5 1258.5 CURVE SMOOTH",
"828.833 1212.83 OFFCURVE",
"853.999 1147 OFFCURVE",
"853.999 1061 CURVE SMOOTH",
"853.999 971.666 OFFCURVE",
"830.333 905.333 OFFCURVE",
"783 862 CURVE SMOOTH",
"735.666 818.666 OFFCURVE",
"663.666 797 OFFCURVE",
"567 797 CURVE SMOOTH",
"346 797 LINE"
);
}
);
width = 1233;
}
);
unicode = 0052;
},
{
glyphname = S;
layers = (
{
layerId = "8A8F53B0-DF48-4C43-86E4-F0539724E722";
paths = (
{
closed = 1;
nodes = (
"1012 1442 LINE",
"942 1468 OFFCURVE",
"875.333 1487.5 OFFCURVE",
"812 1500.5 CURVE SMOOTH",
"748.666 1513.5 OFFCURVE",
"688.333 1520 OFFCURVE",
"631 1520 CURVE SMOOTH",
"482.333 1520 OFFCURVE",
"363.167 1479.83 OFFCURVE",
"273.5 1399.5 CURVE SMOOTH",
"183.833 1319.17 OFFCURVE",
"139 1212.33 OFFCURVE",
"139 1079 CURVE SMOOTH",
"139 972.333 OFFCURVE",
"170.333 887.333 OFFCURVE",
"233 823.999 CURVE SMOOTH",
"295.667 760.666 OFFCURVE",
"396.333 713.333 OFFCURVE",
"535 682 CURVE SMOOTH",
"643 657 LINE SMOOTH",
"739.666 635.666 OFFCURVE",
"807.5 605.333 OFFCURVE",
"846.5 566 CURVE SMOOTH",
"885.5 526.666 OFFCURVE",
"905 469.666 OFFCURVE",
"905 395 CURVE SMOOTH",
"905 313 OFFCURVE",
"876.666 249.166 OFFCURVE",
"820 203.5 CURVE SMOOTH",
"763.333 157.833 OFFCURVE",
"684 135 OFFCURVE",
"582 135 CURVE SMOOTH",
"512.666 135 OFFCURVE",
"443.833 146.333 OFFCURVE",
"375.5 169 CURVE SMOOTH",
"307.167 191.667 OFFCURVE",
"234.667 227.333 OFFCURVE",
"158 276 CURVE",
"158 61 LINE",
"229.333 31 OFFCURVE",
"300.333 8.5 OFFCURVE",
"371 -6.5 CURVE SMOOTH",
"441.667 -21.5 OFFCURVE",
"512 -29 OFFCURVE",
"582 -29 CURVE SMOOTH",
"750 -29 OFFCURVE",
"878 8.333 OFFCURVE",
"966 83 CURVE SMOOTH",
"1054 157.667 OFFCURVE",
"1098 266 OFFCURVE",
"1098 408 CURVE SMOOTH",
"1098 528.666 OFFCURVE",
"1066 624 OFFCURVE",
"1002 694 CURVE SMOOTH",
"938 764 OFFCURVE",
"836 815.333 OFFCURVE",
"696 848 CURVE SMOOTH",
"590 871.999 LINE SMOOTH",
"490.666 895.333 OFFCURVE",
"422.833 924.333 OFFCURVE",
"386.5 958.999 CURVE SMOOTH",
"350.167 993.666 OFFCURVE",
"332 1044 OFFCURVE",
"332 1110 CURVE SMOOTH",
"332 1185.33 OFFCURVE",
"359.667 1245.17 OFFCURVE",
"415 1289.5 CURVE SMOOTH",
"470.333 1333.83 OFFCURVE",
"545.666 1356 OFFCURVE",
"641 1356 CURVE SMOOTH",
"703.666 1356 OFFCURVE",
"765.833 1346 OFFCURVE",
"827.5 1326 CURVE SMOOTH",
"889.166 1306 OFFCURVE",
"950.666 1276.33 OFFCURVE",
"1012 1237 CURVE"
);
}
);
width = 1233;
}
);
unicode = 0053;
},
{
glyphname = T;
layers = (
{
layerId = "8A8F53B0-DF48-4C43-86E4-F0539724E722";
paths = (
{
closed = 1;
nodes = (
"47 1493 LINE",
"47 1323 LINE",
"516 1323 LINE",
"516 0 LINE",
"719 0 LINE",
"719 1323 LINE",
"1186 1323 LINE",
"1186 1493 LINE"
);
}
);
width = 1233;
}
);
unicode = 0054;
},
{
glyphname = U;
layers = (
{
layerId = "8A8F53B0-DF48-4C43-86E4-F0539724E722";
paths = (
{
closed = 1;
nodes = (
"147 573 LINE SMOOTH",
"147 422.333 OFFCURVE",
"156.667 314.166 OFFCURVE",
"176 248.5 CURVE SMOOTH",
"195.333 182.833 OFFCURVE",
"228 129.333 OFFCURVE",
"274 88 CURVE SMOOTH",
"318.667 48.667 OFFCURVE",
"369.333 19.333 OFFCURVE",
"426 0 CURVE SMOOTH",
"482.666 -19.333 OFFCURVE",
"546 -29 OFFCURVE",
"616 -29 CURVE SMOOTH",
"686.666 -29 OFFCURVE",
"750.333 -19.333 OFFCURVE",
"807 0 CURVE SMOOTH",
"863.666 19.333 OFFCURVE",
"914 48.667 OFFCURVE",
"958 88 CURVE SMOOTH",
"1004.67 130 OFFCURVE",
"1037.5 183.167 OFFCURVE",
"1056.5 247.5 CURVE SMOOTH",
"1075.5 311.833 OFFCURVE",
"1085 420.333 OFFCURVE",
"1085 573 CURVE SMOOTH",
"1085 1493 LINE",
"883 1493 LINE",
"883 479 LINE SMOOTH",
"883 407 OFFCURVE",
"881 355.667 OFFCURVE",
"877 325 CURVE SMOOTH",
"873 294.333 OFFCURVE",
"866 270.667 OFFCURVE",
"856 254 CURVE SMOOTH",
"834 214.667 OFFCURVE",
"803 185 OFFCURVE",
"763 165 CURVE SMOOTH",
"723 145 OFFCURVE",
"674 135 OFFCURVE",
"616 135 CURVE SMOOTH",
"558.667 135 OFFCURVE",
"509.833 145 OFFCURVE",
"469.5 165 CURVE SMOOTH",
"429.167 185 OFFCURVE",
"398.333 214.667 OFFCURVE",
"377 254 CURVE",
"367 270.667 OFFCURVE",
"360 294.5 OFFCURVE",
"356 325.5 CURVE SMOOTH",
"352 356.5 OFFCURVE",
"350 408.333 OFFCURVE",
"350 481 CURVE SMOOTH",
"350 1493 LINE",
"147 1493 LINE"
);
}
);
width = 1233;
}
);
unicode = 0055;
},
{
glyphname = V;
layers = (
{
layerId = "8A8F53B0-DF48-4C43-86E4-F0539724E722";
paths = (
{
closed = 1;
nodes = (
"616 170 LINE",
"266 1493 LINE",
"57 1493 LINE",
"494 0 LINE",
"739 0 LINE",
"1176 1493 LINE",
"967 1493 LINE"
);
}
);
width = 1233;
}
);
unicode = 0056;
},
{
glyphname = W;
layers = (
{
layerId = "8A8F53B0-DF48-4C43-86E4-F0539724E722";
paths = (
{
closed = 1;
nodes = (
"0 1493 LINE",
"223 0 LINE",
"414 0 LINE",
"616 887 LINE",
"819 0 LINE",
"1010 0 LINE",
"1233 1493 LINE",
"1036 1493 LINE",
"893 279 LINE",
"721 1083 LINE",
"510 1083 LINE",
"340 281 LINE",
"197 1493 LINE"
);
}
);
width = 1233;
}
);
unicode = 0057;
},
{
glyphname = X;
layers = (
{
layerId = "8A8F53B0-DF48-4C43-86E4-F0539724E722";
paths = (
{
closed = 1;
nodes = (
"86 1493 LINE",
"518 791 LINE",
"18 0 LINE",
"236 0 LINE",
"631 643 LINE",
"996.999 0 LINE",
"1214 0 LINE",
"735 791 LINE",
"1182 1493 LINE",
"965 1493 LINE",
"631 930 LINE",
"303 1493 LINE"
);
}
);
width = 1233;
}
);
unicode = 0058;
},
{
glyphname = Y;
layers = (
{
layerId = "8A8F53B0-DF48-4C43-86E4-F0539724E722";
paths = (
{
closed = 1;
nodes = (
"37 1493 LINE",
"514 670 LINE",
"514 0 LINE",
"717 0 LINE",
"717 670 LINE",
"1196 1493 LINE",
"978.999 1493 LINE",
"616 834 LINE",
"252 1493 LINE"
);
}
);
width = 1233;
}
);
unicode = 0059;
},
{
glyphname = Z;
layers = (
{
layerId = "8A8F53B0-DF48-4C43-86E4-F0539724E722";
paths = (
{
closed = 1;
nodes = (
"178 1493 LINE",
"178 1323 LINE",
"915 1323 LINE",
"156 154 LINE",
"156 0 LINE",
"1169 0 LINE",
"1169 170 LINE",
"367 170 LINE",
"1147 1339 LINE",
"1147 1493 LINE"
);
}
);
width = 1233;
}
);
unicode = 005A;
},
{
glyphname = bracketleft;
layers = (
{
layerId = "8A8F53B0-DF48-4C43-86E4-F0539724E722";
paths = (
{
closed = 1;
nodes = (
"563 1656 LINE",
"563 -170 LINE",
"986.999 -170 LINE",
"986.999 -27 LINE",
"747 -27 LINE",
"747 1513 LINE",
"986.999 1513 LINE",
"986.999 1656 LINE"
);
}
);
width = 1233;
}
);
unicode = 005B;
},
{
glyphname = backslash;
layers = (
{
layerId = "8A8F53B0-DF48-4C43-86E4-F0539724E722";
paths = (
{
closed = 1;
nodes = (
"293 1493 LINE",
"102 1493 LINE",
"889 -190 LINE",
"1079 -190 LINE"
);
}
);
width = 1233;
}
);
unicode = 005C;
},
{
glyphname = bracketright;
layers = (
{
layerId = "8A8F53B0-DF48-4C43-86E4-F0539724E722";
paths = (
{
closed = 1;
nodes = (
"720 1656 LINE",
"296 1656 LINE",
"296 1513 LINE",
"536 1513 LINE",
"536 -27 LINE",
"296 -27 LINE",
"296 -170 LINE",
"720 -170 LINE"
);
}
);
width = 1233;
}
);
unicode = 005D;
},
{
glyphname = asciicircum;
layers = (
{
layerId = "8A8F53B0-DF48-4C43-86E4-F0539724E722";
paths = (
{
closed = 1;
nodes = (
"705 1488 LINE",
"528 1488 LINE",
"36 892 LINE",
"250 893 LINE",
"616 1286 LINE",
"982.999 893 LINE",
"1196 892 LINE"
);
}
);
width = 1233;
}
);
unicode = 005E;
},
{
glyphname = underscore;
layers = (
{
layerId = "8A8F53B0-DF48-4C43-86E4-F0539724E722";
paths = (
{
closed = 1;
nodes = (
"1224 -190 LINE",
"0 -190 LINE",
"0 -360 LINE",
"1224 -360 LINE"
);
}
);
width = 1233;
}
);
unicode = 005F;
},
{
glyphname = grave;
layers = (
{
layerId = "8A8F53B0-DF48-4C43-86E4-F0539724E722";
paths = (
{
closed = 1;
nodes = (
"477 1638 LINE",
"279 1638 LINE",
"604 1262 LINE",
"758 1262 LINE"
);
}
);
width = 1233;
}
);
unicode = 0060;
},
{
glyphname = a;
layers = (
{
layerId = "8A8F53B0-DF48-4C43-86E4-F0539724E722";
paths = (
{
closed = 1;
nodes = (
"702 563 LINE",
"874 563 LINE",
"874 522 LINE SMOOTH",
"873.333 398 OFFCURVE",
"844 300.833 OFFCURVE",
"786 230.5 CURVE SMOOTH",
"728 160.167 OFFCURVE",
"648.333 125 OFFCURVE",
"547 125 CURVE SMOOTH",
"475 125 OFFCURVE",
"418.666 143.667 OFFCURVE",
"378 181 CURVE SMOOTH",
"337.333 218.333 OFFCURVE",
"317 270.667 OFFCURVE",
"317 338 CURVE SMOOTH",
"317 412.666 OFFCURVE",
"344.167 468.833 OFFCURVE",
"398.5 506.5 CURVE SMOOTH",
"452.833 544.166 OFFCURVE",
"533.666 563 OFFCURVE",
"641 563 CURVE SMOOTH"
);
},
{
closed = 1;
nodes = (
"1059 639 LINE SMOOTH",
"1059 737 OFFCURVE",
"1053.67 810.5 OFFCURVE",
"1043 859.5 CURVE SMOOTH",
"1032.33 908.5 OFFCURVE",
"1014.33 949.666 OFFCURVE",
"989 982.999 CURVE SMOOTH",
"948.333 1037.67 OFFCURVE",
"895.166 1078.67 OFFCURVE",
"829.5 1106 CURVE SMOOTH",
"763.833 1133.33 OFFCURVE",
"684.666 1147 OFFCURVE",
"592 1147 CURVE SMOOTH",
"533.333 1147 OFFCURVE",
"472.833 1140.5 OFFCURVE",
"410.5 1127.5 CURVE SMOOTH",
"348.167 1114.5 OFFCURVE",
"283 1095 OFFCURVE",
"215 1069 CURVE",
"215 885 LINE",
"275.667 919.666 OFFCURVE",
"338 946 OFFCURVE",
"402 964 CURVE SMOOTH",
"466 981.999 OFFCURVE",
"529.333 990.999 OFFCURVE",
"592 990.999 CURVE SMOOTH",
"690 990.999 OFFCURVE",
"761.333 970.833 OFFCURVE",
"806 930.5 CURVE SMOOTH",
"850.666 890.166 OFFCURVE",
"873.333 825.333 OFFCURVE",
"874 736 CURVE SMOOTH",
"874 707 LINE",
"627 707 LINE SMOOTH",
"465 707 OFFCURVE",
"342.167 674.666 OFFCURVE",
"258.5 610 CURVE SMOOTH",
"174.833 545.333 OFFCURVE",
"133 450.666 OFFCURVE",
"133 326 CURVE SMOOTH",
"133 218 OFFCURVE",
"167 131.833 OFFCURVE",
"235 67.5 CURVE SMOOTH",
"303 3.167 OFFCURVE",
"394 -29 OFFCURVE",
"508 -29 CURVE SMOOTH",
"593.333 -29 OFFCURVE",
"665.833 -13.167 OFFCURVE",
"725.5 18.5 CURVE SMOOTH",
"785.166 50.167 OFFCURVE",
"834.666 99.333 OFFCURVE",
"874 166 CURVE",
"874 0 LINE",
"1059 0 LINE"
);
}
);
width = 1233;
}
);
unicode = 0061;
},
{
glyphname = b;
layers = (
{
layerId = "8A8F53B0-DF48-4C43-86E4-F0539724E722";
paths = (
{
closed = 1;
nodes = (
"918 416.333 OFFCURVE",
"895.333 308.667 OFFCURVE",
"850 236 CURVE SMOOTH",
"804.666 163.333 OFFCURVE",
"737.666 127 OFFCURVE",
"649 127 CURVE SMOOTH",
"559.666 127 OFFCURVE",
"492 163.667 OFFCURVE",
"446 237 CURVE SMOOTH",
"400 310.333 OFFCURVE",
"377 417.666 OFFCURVE",
"377 559 CURVE SMOOTH",
"377 701 OFFCURVE",
"400 808.5 OFFCURVE",
"446 881.5 CURVE SMOOTH",
"492 954.5 OFFCURVE",
"559.666 990.999 OFFCURVE",
"649 990.999 CURVE SMOOTH",
"737.666 990.999 OFFCURVE",
"804.666 954.666 OFFCURVE",
"850 882 CURVE SMOOTH",
"895.333 809.333 OFFCURVE",
"918 701.666 OFFCURVE",
"918 559 CURVE SMOOTH"
);
},
{
closed = 1;
nodes = (
"377 1556 LINE",
"193 1556 LINE",
"193 0 LINE",
"377 0 LINE",
"377 141 LINE",
"407.666 85.667 OFFCURVE",
"448.5 43.5 OFFCURVE",
"499.5 14.5 CURVE SMOOTH",
"550.5 -14.5 OFFCURVE",
"609.333 -29 OFFCURVE",
"676 -29 CURVE SMOOTH",
"811.333 -29 OFFCURVE",
"917.833 23.5 OFFCURVE",
"995.499 128.5 CURVE SMOOTH",
"1073.17 233.5 OFFCURVE",
"1112 378.333 OFFCURVE",
"1112 563 CURVE SMOOTH",
"1112 745 OFFCURVE",
"1073.33 887.833 OFFCURVE",
"996 991.499 CURVE SMOOTH",
"918.666 1095.17 OFFCURVE",
"812.666 1147 OFFCURVE",
"678 1147 CURVE SMOOTH",
"610 1147 OFFCURVE",
"550.166 1132.33 OFFCURVE",
"498.5 1103 CURVE SMOOTH",
"446.833 1073.67 OFFCURVE",
"406.333 1031.67 OFFCURVE",
"377 976.999 CURVE"
);
}
);
width = 1233;
}
);
unicode = 0062;
},
{
glyphname = c;
layers = (
{
layerId = "8A8F53B0-DF48-4C43-86E4-F0539724E722";
paths = (
{
closed = 1;
nodes = (
"1061 248 LINE",
"1017.67 206.667 OFFCURVE",
"970.666 176.167 OFFCURVE",
"920 156.5 CURVE SMOOTH",
"869.333 136.833 OFFCURVE",
"812 127 OFFCURVE",
"748 127 CURVE SMOOTH",
"633.333 127 OFFCURVE",
"544.833 164.5 OFFCURVE",
"482.5 239.5 CURVE SMOOTH",
"420.166 314.5 OFFCURVE",
"389 421 OFFCURVE",
"389 559 CURVE SMOOTH",
"389 697.666 OFFCURVE",
"420 804.333 OFFCURVE",
"482 879 CURVE SMOOTH",
"544 953.666 OFFCURVE",
"632.666 991 OFFCURVE",
"748 991 CURVE SMOOTH",
"810 991 OFFCURVE",
"865.5 981.333 OFFCURVE",
"914.5 962 CURVE SMOOTH",
"963.5 942.666 OFFCURVE",
"1012.33 911.333 OFFCURVE",
"1061 868 CURVE",
"1061 1061 LINE",
"1009 1090.33 OFFCURVE",
"957.333 1112 OFFCURVE",
"906 1126 CURVE SMOOTH",
"854.666 1140 OFFCURVE",
"802 1147 OFFCURVE",
"748 1147 CURVE SMOOTH",
"574.666 1147 OFFCURVE",
"439.166 1095 OFFCURVE",
"341.5 990.999 CURVE SMOOTH",
"243.833 887 OFFCURVE",
"195 743 OFFCURVE",
"195 559 CURVE SMOOTH",
"195 375 OFFCURVE",
"243.833 231 OFFCURVE",
"341.5 127 CURVE SMOOTH",
"439.166 23 OFFCURVE",
"574.666 -29 OFFCURVE",
"748 -29 CURVE SMOOTH",
"802.666 -29 OFFCURVE",
"856.166 -21.833 OFFCURVE",
"908.5 -7.5 CURVE SMOOTH",
"960.833 6.833 OFFCURVE",
"1011.67 28.333 OFFCURVE",
"1061 57 CURVE"
);
}
);
width = 1233;
}
);
unicode = 0063;
},
{
glyphname = d;
layers = (
{
layerId = "8A8F53B0-DF48-4C43-86E4-F0539724E722";
paths = (
{
closed = 1;
nodes = (
"858 976.999 LINE",
"828.666 1032.33 OFFCURVE",
"788.333 1074.5 OFFCURVE",
"737 1103.5 CURVE SMOOTH",
"685.666 1132.5 OFFCURVE",
"626.333 1147 OFFCURVE",
"559 1147 CURVE SMOOTH",
"424.333 1147 OFFCURVE",
"318 1095.17 OFFCURVE",
"240 991.499 CURVE SMOOTH",
"162 887.833 OFFCURVE",
"123 745 OFFCURVE",
"123 563 CURVE SMOOTH",
"123 378.333 OFFCURVE",
"161.833 233.5 OFFCURVE",
"239.5 128.5 CURVE SMOOTH",
"317.167 23.5 OFFCURVE",
"423.667 -29 OFFCURVE",
"559 -29 CURVE SMOOTH",
"625.666 -29 OFFCURVE",
"684.5 -14.5 OFFCURVE",
"735.5 14.5 CURVE SMOOTH",
"786.5 43.5 OFFCURVE",
"827.333 85.666 OFFCURVE",
"858 141 CURVE",
"858 0 LINE",
"1042 0 LINE",
"1042 1556 LINE",
"858 1556 LINE"
);
},
{
closed = 1;
nodes = (
"317 701.666 OFFCURVE",
"339.667 809.333 OFFCURVE",
"385 881.999 CURVE SMOOTH",
"430.333 954.666 OFFCURVE",
"497.333 990.999 OFFCURVE",
"586 990.999 CURVE SMOOTH",
"674.666 990.999 OFFCURVE",
"742.166 954.499 OFFCURVE",
"788.5 881.499 CURVE SMOOTH",
"834.833 808.5 OFFCURVE",
"858 701 OFFCURVE",
"858 559 CURVE SMOOTH",
"858 417.666 OFFCURVE",
"834.833 310.333 OFFCURVE",
"788.5 237 CURVE SMOOTH",
"742.166 163.667 OFFCURVE",
"674.666 127 OFFCURVE",
"586 127 CURVE SMOOTH",
"497.333 127 OFFCURVE",
"430.333 163.333 OFFCURVE",
"385 236 CURVE SMOOTH",
"339.667 308.666 OFFCURVE",
"317 416.333 OFFCURVE",
"317 559 CURVE SMOOTH"
);
}
);
width = 1233;
}
);
unicode = 0064;
},
{
glyphname = e;
layers = (
{
layerId = "8A8F53B0-DF48-4C43-86E4-F0539724E722";
paths = (
{
closed = 1;
nodes = (
"1120 652 LINE",
"1114.67 788.666 OFFCURVE",
"1070.83 905.333 OFFCURVE",
"988.499 1002 CURVE SMOOTH",
"906.166 1098.67 OFFCURVE",
"793.666 1147 OFFCURVE",
"651 1147 CURVE SMOOTH",
"491 1147 OFFCURVE",
"363 1093.67 OFFCURVE",
"267 987 CURVE SMOOTH",
"171 880.333 OFFCURVE",
"123 737.666 OFFCURVE",
"123 559 CURVE SMOOTH",
"123 375.667 OFFCURVE",
"172 231.833 OFFCURVE",
"270 127.5 CURVE SMOOTH",
"368 23.167 OFFCURVE",
"504 -29 OFFCURVE",
"678 -29 CURVE SMOOTH",
"738.666 -29 OFFCURVE",
"801.5 -21.833 OFFCURVE",
"866.499 -7.5 CURVE SMOOTH",
"931.499 6.833 OFFCURVE",
"998.999 28.333 OFFCURVE",
"1069 57 CURVE",
"1069 240 LINE",
"996.333 202 OFFCURVE",
"928 173.667 OFFCURVE",
"864 155 CURVE SMOOTH",
"800 136.333 OFFCURVE",
"738.666 127 OFFCURVE",
"680 127 CURVE SMOOTH",
"564 127 OFFCURVE",
"474.166 160.333 OFFCURVE",
"410.5 227 CURVE SMOOTH",
"346.833 293.667 OFFCURVE",
"317.666 403.333 OFFCURVE",
"323 556 CURVE",
"323 562 LINE",
"1120 562 LINE"
);
},
{
closed = 1;
nodes = (
"330 705 LINE",
"335.333 778.333 OFFCURVE",
"366.666 844.333 OFFCURVE",
"424 903 CURVE SMOOTH",
"481.333 961.666 OFFCURVE",
"554.333 991 OFFCURVE",
"643 991 CURVE SMOOTH",
"733.666 991 OFFCURVE",
"803.166 962.833 OFFCURVE",
"851.5 906.5 CURVE SMOOTH",
"899.833 850.166 OFFCURVE",
"928 783.333 OFFCURVE",
"936 706 CURVE"
);
}
);
width = 1233;
}
);
unicode = 0065;
},
{
glyphname = f;
layers = (
{
layerId = "8A8F53B0-DF48-4C43-86E4-F0539724E722";
paths = (
{
closed = 1;
nodes = (
"1063 1556 LINE",
"842 1556 LINE SMOOTH",
"722.666 1556 OFFCURVE",
"634.833 1527 OFFCURVE",
"578.5 1469 CURVE SMOOTH",
"522.166 1411 OFFCURVE",
"494 1320.67 OFFCURVE",
"494 1198 CURVE SMOOTH",
"494 1120 LINE",
"195 1120 LINE",
"195 976.999 LINE",
"494 976.999 LINE",
"494 0 LINE",
"678 0 LINE",
"678 976.999 LINE",
"1063 976.999 LINE",
"1063 1120 LINE",
"678 1120 LINE",
"678 1219 LINE SMOOTH",
"678 1287.67 OFFCURVE",
"690.833 1335.5 OFFCURVE",
"716.5 1362.5 CURVE SMOOTH",
"742.166 1389.5 OFFCURVE",
"788 1403 OFFCURVE",
"854 1403 CURVE SMOOTH",
"1063 1403 LINE"
);
}
);
width = 1233;
}
);
unicode = 0066;
},
{
glyphname = g;
layers = (
{
layerId = "8A8F53B0-DF48-4C43-86E4-F0539724E722";
paths = (
{
closed = 1;
nodes = (
"858 431.666 OFFCURVE",
"835.5 326.667 OFFCURVE",
"790.5 254 CURVE SMOOTH",
"745.5 181.333 OFFCURVE",
"680.666 145 OFFCURVE",
"596 145 CURVE SMOOTH",
"505.333 145 OFFCURVE",
"436.166 181.167 OFFCURVE",
"388.5 253.5 CURVE SMOOTH",
"340.833 325.833 OFFCURVE",
"317 431 OFFCURVE",
"317 569 CURVE SMOOTH",
"317 707 OFFCURVE",
"340.667 811.833 OFFCURVE",
"388 883.5 CURVE SMOOTH",
"435.333 955.166 OFFCURVE",
"504 990.999 OFFCURVE",
"594 990.999 CURVE SMOOTH",
"680 990.999 OFFCURVE",
"745.5 955.166 OFFCURVE",
"790.5 883.5 CURVE SMOOTH",
"835.5 811.833 OFFCURVE",
"858 707 OFFCURVE",
"858 569 CURVE SMOOTH"
);
},
{
closed = 1;
nodes = (
"1042 1116 LINE",
"858 1116 LINE",
"858 970.999 LINE",
"826.666 1031 OFFCURVE",
"786 1075.33 OFFCURVE",
"736 1104 CURVE SMOOTH",
"686 1132.67 OFFCURVE",
"625 1147 OFFCURVE",
"553 1147 CURVE SMOOTH",
"422.333 1147 OFFCURVE",
"318 1094.67 OFFCURVE",
"240 989.999 CURVE SMOOTH",
"162 885.333 OFFCURVE",
"123 745 OFFCURVE",
"123 569 CURVE SMOOTH",
"123 393.666 OFFCURVE",
"162 253.666 OFFCURVE",
"240 149 CURVE SMOOTH",
"318 44.333 OFFCURVE",
"422.333 -8 OFFCURVE",
"553 -8 CURVE SMOOTH",
"625.666 -8 OFFCURVE",
"687.333 7.333 OFFCURVE",
"738 38 CURVE SMOOTH",
"788.666 68.667 OFFCURVE",
"828.666 115.333 OFFCURVE",
"858 178 CURVE",
"858 53 LINE",
"858 45 LINE SMOOTH",
"858 -72.333 OFFCURVE",
"835.333 -158 OFFCURVE",
"790 -212 CURVE SMOOTH",
"744.666 -266 OFFCURVE",
"672.333 -293 OFFCURVE",
"573 -293 CURVE SMOOTH",
"528.333 -293 OFFCURVE",
"479.333 -285.667 OFFCURVE",
"426 -271 CURVE SMOOTH",
"372.667 -256.333 OFFCURVE",
"313.333 -233.667 OFFCURVE",
"248 -203 CURVE",
"248 -385 LINE",
"303.333 -403 OFFCURVE",
"358.667 -416.667 OFFCURVE",
"414 -426 CURVE SMOOTH",
"469.333 -435.333 OFFCURVE",
"522.333 -440 OFFCURVE",
"573 -440 CURVE SMOOTH",
"727 -440 OFFCURVE",
"843.666 -396.667 OFFCURVE",
"923 -310 CURVE SMOOTH",
"1002.33 -223.333 OFFCURVE",
"1042 -96 OFFCURVE",
"1042 72 CURVE SMOOTH"
);
}
);
width = 1233;
}
);
unicode = 0067;
},
{
glyphname = h;
layers = (
{
layerId = "8A8F53B0-DF48-4C43-86E4-F0539724E722";
paths = (
{
closed = 1;
nodes = (
"1051 694 LINE SMOOTH",
"1051 846 OFFCURVE",
"1022.83 959.5 OFFCURVE",
"966.5 1034.5 CURVE SMOOTH",
"910.166 1109.5 OFFCURVE",
"825 1147 OFFCURVE",
"711 1147 CURVE SMOOTH",
"634.333 1147 OFFCURVE",
"568 1130.5 OFFCURVE",
"512 1097.5 CURVE SMOOTH",
"456 1064.5 OFFCURVE",
"411.666 1016 OFFCURVE",
"379 952 CURVE",
"379 1556 LINE",
"195 1556 LINE",
"195 0 LINE",
"379 0 LINE",
"379 633 LINE SMOOTH",
"379 747 OFFCURVE",
"402.166 834.5 OFFCURVE",
"448.5 895.5 CURVE SMOOTH",
"494.833 956.5 OFFCURVE",
"561 986.999 OFFCURVE",
"647 986.999 CURVE SMOOTH",
"722.333 986.999 OFFCURVE",
"777.666 963.333 OFFCURVE",
"813 916 CURVE SMOOTH",
"848.333 868.666 OFFCURVE",
"865.999 794.666 OFFCURVE",
"865.999 694 CURVE SMOOTH",
"865.999 0 LINE",
"1051 0 LINE"
);
}
);
width = 1233;
}
);
unicode = 0068;
},
{
glyphname = i;
layers = (
{
layerId = "8A8F53B0-DF48-4C43-86E4-F0539724E722";
paths = (
{
closed = 1;
nodes = (
"316 1116 LINE",
"316 972.999 LINE",
"603 972.999 LINE",
"603 143 LINE",
"238 143 LINE",
"238 0 LINE",
"1152 0 LINE",
"1152 143 LINE",
"787 143 LINE",
"787 1116 LINE"
);
},
{
closed = 1;
nodes = (
"603 1551 LINE",
"603 1319 LINE",
"787 1319 LINE",
"787 1551 LINE"
);
}
);
width = 1233;
}
);
unicode = 0069;
},
{
glyphname = j;
layers = (
{
layerId = "8A8F53B0-DF48-4C43-86E4-F0539724E722";
paths = (
{
closed = 1;
nodes = (
"600 -20 LINE SMOOTH",
"600 -103.333 OFFCURVE",
"585 -165.833 OFFCURVE",
"555 -207.5 CURVE SMOOTH",
"525 -249.167 OFFCURVE",
"480 -270 OFFCURVE",
"420 -270 CURVE SMOOTH",
"186 -270 LINE",
"186 -426 LINE",
"440 -426 LINE SMOOTH",
"550 -426 OFFCURVE",
"634.833 -390.833 OFFCURVE",
"694.5 -320.5 CURVE SMOOTH",
"754.166 -250.167 OFFCURVE",
"784 -150 OFFCURVE",
"784 -20 CURVE SMOOTH",
"784 1120 LINE",
"283 1120 LINE",
"283 976.999 LINE",
"600 976.999 LINE"
);
},
{
closed = 1;
nodes = (
"600 1556 LINE",
"600 1323 LINE",
"784 1323 LINE",
"784 1556 LINE"
);
}
);
width = 1233;
}
);
unicode = 006A;
},
{
glyphname = k;
layers = (
{
layerId = "8A8F53B0-DF48-4C43-86E4-F0539724E722";
paths = (
{
closed = 1;
nodes = (
"236 1556 LINE",
"236 0 LINE",
"426 0 LINE",
"426 449 LINE",
"563 578 LINE",
"976.999 0 LINE",
"1202 0 LINE",
"692 698 LINE",
"1133 1120 LINE",
"909 1120 LINE",
"426 655 LINE",
"426 1556 LINE"
);
}
);
width = 1233;
}
);
unicode = 006B;
},
{
glyphname = l;
layers = (
{
layerId = "8A8F53B0-DF48-4C43-86E4-F0539724E722";
paths = (
{
closed = 1;
nodes = (
"719 1562 LINE",
"240 1562 LINE",
"240 1418 LINE",
"535 1418 LINE",
"535 405 LINE SMOOTH",
"535 275.667 OFFCURVE",
"565.166 175.833 OFFCURVE",
"625.5 105.5 CURVE SMOOTH",
"685.833 35.167 OFFCURVE",
"771 0 OFFCURVE",
"881 0 CURVE SMOOTH",
"1114 0 LINE",
"1114 155 LINE",
"899 155 LINE SMOOTH",
"839.666 155 OFFCURVE",
"794.833 176 OFFCURVE",
"764.5 218 CURVE SMOOTH",
"734.166 260 OFFCURVE",
"719 322.333 OFFCURVE",
"719 405 CURVE SMOOTH"
);
}
);
width = 1233;
}
);
unicode = 006C;
},
{
glyphname = m;
layers = (
{
layerId = "8A8F53B0-DF48-4C43-86E4-F0539724E722";
paths = (
{
closed = 1;
nodes = (
"657.333 1053.33 OFFCURVE",
"631.166 1088.67 OFFCURVE",
"597.5 1112 CURVE SMOOTH",
"563.833 1135.33 OFFCURVE",
"521.666 1147 OFFCURVE",
"471 1147 CURVE SMOOTH",
"429 1147 OFFCURVE",
"391.5 1136.5 OFFCURVE",
"358.5 1115.5 CURVE SMOOTH",
"325.5 1094.5 OFFCURVE",
"298 1064 OFFCURVE",
"276 1024 CURVE",
"276 1120 LINE",
"109 1120 LINE",
"109 0 LINE",
"276 0 LINE",
"276 641 LINE SMOOTH",
"276 793.666 OFFCURVE",
"285.5 890.5 OFFCURVE",
"304.5 931.5 CURVE SMOOTH",
"323.5 972.5 OFFCURVE",
"357.333 993 OFFCURVE",
"406 993 CURVE SMOOTH",
"455.333 993 OFFCURVE",
"489.5 974.333 OFFCURVE",
"508.5 937 CURVE SMOOTH",
"527.5 899.666 OFFCURVE",
"537 801 OFFCURVE",
"537 641 CURVE SMOOTH",
"537 0 LINE",
"705 0 LINE",
"705 641 LINE SMOOTH",
"705 793.666 OFFCURVE",
"714.833 890.5 OFFCURVE",
"734.5 931.5 CURVE SMOOTH",
"754.166 972.5 OFFCURVE",
"790.666 993 OFFCURVE",
"844 993 CURVE SMOOTH",
"890.666 993 OFFCURVE",
"922.833 973.833 OFFCURVE",
"940.499 935.5 CURVE SMOOTH",
"958.166 897.166 OFFCURVE",
"966.999 799 OFFCURVE",
"966.999 641 CURVE SMOOTH",
"966.999 0 LINE",
"1135 0 LINE",
"1135 649 LINE SMOOTH",
"1135 841.666 OFFCURVE",
"1116.5 972.833 OFFCURVE",
"1079.5 1042.5 CURVE SMOOTH",
"1042.5 1112.17 OFFCURVE",
"978.999 1147 OFFCURVE",
"889 1147 CURVE SMOOTH",
"839.666 1147 OFFCURVE",
"797.5 1135.5 OFFCURVE",
"762.5 1112.5 CURVE SMOOTH",
"727.5 1089.5 OFFCURVE",
"698.666 1054 OFFCURVE",
"676 1006 CURVE"
);
}
);
width = 1233;
}
);
unicode = 006D;
},
{
glyphname = n;
layers = (
{
layerId = "8A8F53B0-DF48-4C43-86E4-F0539724E722";
paths = (
{
closed = 1;
nodes = (
"1051 694 LINE SMOOTH",
"1051 846 OFFCURVE",
"1022.83 959.5 OFFCURVE",
"966.5 1034.5 CURVE SMOOTH",
"910.166 1109.5 OFFCURVE",
"825 1147 OFFCURVE",
"711 1147 CURVE SMOOTH",
"634.333 1147 OFFCURVE",
"568 1130.5 OFFCURVE",
"512 1097.5 CURVE SMOOTH",
"456 1064.5 OFFCURVE",
"411.666 1016 OFFCURVE",
"379 952 CURVE",
"379 1120 LINE",
"195 1120 LINE",
"195 0 LINE",
"379 0 LINE",
"379 633 LINE SMOOTH",
"379 747 OFFCURVE",
"402.166 834.5 OFFCURVE",
"448.5 895.5 CURVE SMOOTH",
"494.833 956.5 OFFCURVE",
"561 986.999 OFFCURVE",
"647 986.999 CURVE SMOOTH",
"722.333 986.999 OFFCURVE",
"777.666 963.333 OFFCURVE",
"813 916 CURVE SMOOTH",
"848.333 868.666 OFFCURVE",
"865.999 794.666 OFFCURVE",
"865.999 694 CURVE SMOOTH",
"865.999 0 LINE",
"1051 0 LINE"
);
}
);
width = 1233;
}
);
unicode = 006E;
},
{
glyphname = o;
layers = (
{
layerId = "8A8F53B0-DF48-4C43-86E4-F0539724E722";
paths = (
{
closed = 1;
nodes = (
"710 990.999 OFFCURVE",
"781 954.666 OFFCURVE",
"829 882 CURVE SMOOTH",
"877 809.333 OFFCURVE",
"901 701.666 OFFCURVE",
"901 559 CURVE SMOOTH",
"901 417 OFFCURVE",
"877 309.5 OFFCURVE",
"829 236.5 CURVE SMOOTH",
"781 163.5 OFFCURVE",
"710 127 OFFCURVE",
"616 127 CURVE SMOOTH",
"522.666 127 OFFCURVE",
"452 163.5 OFFCURVE",
"404 236.5 CURVE SMOOTH",
"356 309.5 OFFCURVE",
"332 417 OFFCURVE",
"332 559 CURVE SMOOTH",
"332 701.666 OFFCURVE",
"356 809.333 OFFCURVE",
"404 881.999 CURVE SMOOTH",
"452 954.666 OFFCURVE",
"522.666 990.999 OFFCURVE",
"616 990.999 CURVE SMOOTH"
);
},
{
closed = 1;
nodes = (
"460.666 1147 OFFCURVE",
"342 1096.67 OFFCURVE",
"260 995.999 CURVE SMOOTH",
"178 895.333 OFFCURVE",
"137 749.666 OFFCURVE",
"137 559 CURVE SMOOTH",
"137 367.666 OFFCURVE",
"178 221.833 OFFCURVE",
"260 121.5 CURVE SMOOTH",
"342 21.167 OFFCURVE",
"460.666 -29 OFFCURVE",
"616 -29 CURVE SMOOTH",
"772 -29 OFFCURVE",
"891 21.167 OFFCURVE",
"972.999 121.5 CURVE SMOOTH",
"1055 221.833 OFFCURVE",
"1096 367.666 OFFCURVE",
"1096 559 CURVE SMOOTH",
"1096 749.666 OFFCURVE",
"1054.83 895.333 OFFCURVE",
"972.5 995.999 CURVE SMOOTH",
"890.166 1096.67 OFFCURVE",
"771.333 1147 OFFCURVE",
"616 1147 CURVE SMOOTH"
);
}
);
width = 1233;
}
);
unicode = 006F;
},
{
glyphname = p;
layers = (
{
layerId = "8A8F53B0-DF48-4C43-86E4-F0539724E722";
paths = (
{
closed = 1;
nodes = (
"375 141 LINE",
"404.333 85.667 OFFCURVE",
"444.5 43.5 OFFCURVE",
"495.5 14.5 CURVE SMOOTH",
"546.5 -14.5 OFFCURVE",
"606 -29 OFFCURVE",
"674 -29 CURVE SMOOTH",
"808.666 -29 OFFCURVE",
"914.666 22.833 OFFCURVE",
"991.999 126.5 CURVE SMOOTH",
"1069.33 230.167 OFFCURVE",
"1108 373 OFFCURVE",
"1108 555 CURVE SMOOTH",
"1108 740.333 OFFCURVE",
"1069.5 885.333 OFFCURVE",
"992.499 989.999 CURVE SMOOTH",
"915.5 1094.67 OFFCURVE",
"809.333 1147 OFFCURVE",
"674 1147 CURVE SMOOTH",
"607.333 1147 OFFCURVE",
"548.5 1132.5 OFFCURVE",
"497.5 1103.5 CURVE SMOOTH",
"446.5 1074.5 OFFCURVE",
"405.666 1032.33 OFFCURVE",
"375 977 CURVE",
"375 1120 LINE",
"190 1120 LINE",
"190 -426 LINE",
"375 -426 LINE"
);
},
{
closed = 1;
nodes = (
"915 416.333 OFFCURVE",
"892.5 308.667 OFFCURVE",
"847.5 236 CURVE SMOOTH",
"802.5 163.333 OFFCURVE",
"735.666 127 OFFCURVE",
"647 127 CURVE SMOOTH",
"557.666 127 OFFCURVE",
"490 163.667 OFFCURVE",
"444 237 CURVE SMOOTH",
"398 310.333 OFFCURVE",
"375 417.666 OFFCURVE",
"375 559 CURVE SMOOTH",
"375 701 OFFCURVE",
"398 808.5 OFFCURVE",
"444 881.5 CURVE SMOOTH",
"490 954.5 OFFCURVE",
"557.666 990.999 OFFCURVE",
"647 990.999 CURVE SMOOTH",
"735.666 990.999 OFFCURVE",
"802.5 954.666 OFFCURVE",
"847.5 882 CURVE SMOOTH",
"892.5 809.333 OFFCURVE",
"915 701.666 OFFCURVE",
"915 559 CURVE SMOOTH"
);
}
);
width = 1233;
}
);
unicode = 0070;
},
{
glyphname = q;
layers = (
{
layerId = "8A8F53B0-DF48-4C43-86E4-F0539724E722";
paths = (
{
closed = 1;
nodes = (
"332 697.666 OFFCURVE",
"354.5 805.333 OFFCURVE",
"399.5 878 CURVE SMOOTH",
"444.5 950.666 OFFCURVE",
"511.333 987 OFFCURVE",
"600 987 CURVE SMOOTH",
"688.666 987 OFFCURVE",
"755.833 950.5 OFFCURVE",
"801.5 877.5 CURVE SMOOTH",
"847.166 804.5 OFFCURVE",
"870 697 OFFCURVE",
"870 555 CURVE SMOOTH",
"870 413 OFFCURVE",
"847.166 305.5 OFFCURVE",
"801.5 232.5 CURVE SMOOTH",
"755.833 159.5 OFFCURVE",
"688.666 123 OFFCURVE",
"600 123 CURVE SMOOTH",
"511.333 123 OFFCURVE",
"444.5 159.333 OFFCURVE",
"399.5 232 CURVE SMOOTH",
"354.5 304.667 OFFCURVE",
"332 412.333 OFFCURVE",
"332 555 CURVE SMOOTH"
);
},
{
closed = 1;
nodes = (
"870 -430 LINE",
"1055 -430 LINE",
"1055 1116 LINE",
"870 1116 LINE",
"870 972.999 LINE",
"839.333 1028.33 OFFCURVE",
"798.5 1070.5 OFFCURVE",
"747.5 1099.5 CURVE SMOOTH",
"696.5 1128.5 OFFCURVE",
"637.666 1143 OFFCURVE",
"571 1143 CURVE SMOOTH",
"436.333 1143 OFFCURVE",
"330.333 1090.67 OFFCURVE",
"253 985.999 CURVE SMOOTH",
"175.667 881.333 OFFCURVE",
"137 736.333 OFFCURVE",
"137 551 CURVE SMOOTH",
"137 369 OFFCURVE",
"175.833 226.166 OFFCURVE",
"253.5 122.5 CURVE SMOOTH",
"331.166 18.833 OFFCURVE",
"437 -33 OFFCURVE",
"571 -33 CURVE SMOOTH",
"638.333 -33 OFFCURVE",
"697.5 -18.167 OFFCURVE",
"748.5 11.5 CURVE SMOOTH",
"799.5 41.167 OFFCURVE",
"840 83.667 OFFCURVE",
"870 139 CURVE"
);
}
);
width = 1233;
}
);
unicode = 0071;
},
{
glyphname = r;
layers = (
{
layerId = "8A8F53B0-DF48-4C43-86E4-F0539724E722";
paths = (
{
closed = 1;
nodes = (
"1155 1077 LINE",
"1119 1101 OFFCURVE",
"1081.33 1118.67 OFFCURVE",
"1042 1130 CURVE SMOOTH",
"1002.67 1141.33 OFFCURVE",
"960.333 1147 OFFCURVE",
"915 1147 CURVE SMOOTH",
"827.666 1147 OFFCURVE",
"752.166 1125.83 OFFCURVE",
"688.5 1083.5 CURVE SMOOTH",
"624.833 1041.17 OFFCURVE",
"577.666 980.333 OFFCURVE",
"547 900.999 CURVE",
"547 1120 LINE",
"362 1120 LINE",
"362 0 LINE",
"547 0 LINE",
"547 557 LINE SMOOTH",
"547 693 OFFCURVE",
"577.333 797 OFFCURVE",
"638 869 CURVE SMOOTH",
"698.666 941 OFFCURVE",
"786.333 976.999 OFFCURVE",
"901 976.999 CURVE SMOOTH",
"949.666 976.999 OFFCURVE",
"994.333 969.999 OFFCURVE",
"1035 956 CURVE SMOOTH",
"1075.67 942 OFFCURVE",
"1115.67 919.666 OFFCURVE",
"1155 889 CURVE"
);
}
);
width = 1233;
}
);
unicode = 0072;
},
{
glyphname = s;
layers = (
{
layerId = "8A8F53B0-DF48-4C43-86E4-F0539724E722";
paths = (
{
closed = 1;
nodes = (
"972.999 1081 LINE",
"919.666 1103 OFFCURVE",
"865.333 1119.5 OFFCURVE",
"810 1130.5 CURVE SMOOTH",
"754.666 1141.5 OFFCURVE",
"697 1147 OFFCURVE",
"637 1147 CURVE SMOOTH",
"502.333 1147 OFFCURVE",
"398.667 1117.83 OFFCURVE",
"326 1059.5 CURVE SMOOTH",
"253.333 1001.17 OFFCURVE",
"217 918.333 OFFCURVE",
"217 811 CURVE SMOOTH",
"217 726.333 OFFCURVE",
"241.333 659.5 OFFCURVE",
"290 610.5 CURVE SMOOTH",
"338.667 561.5 OFFCURVE",
"416 526.666 OFFCURVE",
"522 506 CURVE SMOOTH",
"591 492 LINE",
"599 490 LINE",
"762.333 457.333 OFFCURVE",
"844 398.333 OFFCURVE",
"844 313 CURVE SMOOTH",
"844 253.667 OFFCURVE",
"821.666 207.5 OFFCURVE",
"777 174.5 CURVE SMOOTH",
"732.333 141.5 OFFCURVE",
"669.333 125 OFFCURVE",
"588 125 CURVE SMOOTH",
"532 125 OFFCURVE",
"472.667 133.833 OFFCURVE",
"410 151.5 CURVE SMOOTH",
"347.333 169.167 OFFCURVE",
"281.667 195.667 OFFCURVE",
"213 231 CURVE",
"213 41 LINE",
"283.667 17.667 OFFCURVE",
"349.333 0.167 OFFCURVE",
"410 -11.5 CURVE SMOOTH",
"470.667 -23.167 OFFCURVE",
"528.666 -29 OFFCURVE",
"584 -29 CURVE SMOOTH",
"724 -29 OFFCURVE",
"833.333 2.167 OFFCURVE",
"912 64.5 CURVE SMOOTH",
"990.666 126.833 OFFCURVE",
"1030 213.333 OFFCURVE",
"1030 324 CURVE SMOOTH",
"1030 407.333 OFFCURVE",
"1006.5 475 OFFCURVE",
"959.5 527 CURVE SMOOTH",
"912.5 579 OFFCURVE",
"843.333 613.666 OFFCURVE",
"752 631 CURVE SMOOTH",
"678 645 LINE SMOOTH",
"556 668.333 OFFCURVE",
"479.667 692.333 OFFCURVE",
"449 717 CURVE SMOOTH",
"418.333 741.666 OFFCURVE",
"403 779 OFFCURVE",
"403 829 CURVE SMOOTH",
"403 884.333 OFFCURVE",
"423.5 925.5 OFFCURVE",
"464.5 952.5 CURVE SMOOTH",
"505.5 979.5 OFFCURVE",
"567.667 993 OFFCURVE",
"651 993 CURVE SMOOTH",
"706.333 993 OFFCURVE",
"760.666 985.333 OFFCURVE",
"814 970 CURVE SMOOTH",
"867.333 954.666 OFFCURVE",
"920.333 931.666 OFFCURVE",
"973 901 CURVE"
);
}
);
width = 1233;
}
);
unicode = 0073;
},
{
glyphname = t;
layers = (
{
layerId = "8A8F53B0-DF48-4C43-86E4-F0539724E722";
paths = (
{
closed = 1;
nodes = (
"614 1438 LINE",
"430 1438 LINE",
"430 1120 LINE",
"131 1120 LINE",
"131 976.999 LINE",
"430 976.999 LINE",
"430 369 LINE SMOOTH",
"430 233.667 OFFCURVE",
"458.333 138.333 OFFCURVE",
"515 83 CURVE SMOOTH",
"571.666 27.667 OFFCURVE",
"669 0 OFFCURVE",
"807 0 CURVE SMOOTH",
"1032 0 LINE",
"1032 147 LINE",
"825 147 LINE SMOOTH",
"747 147 OFFCURVE",
"692.333 163.333 OFFCURVE",
"661 196 CURVE SMOOTH",
"629.666 228.667 OFFCURVE",
"614 286.333 OFFCURVE",
"614 369 CURVE SMOOTH",
"614 976.999 LINE",
"1032 976.999 LINE",
"1032 1120 LINE",
"614 1120 LINE"
);
}
);
width = 1233;
}
);
unicode = 0074;
},
{
glyphname = u;
layers = (
{
layerId = "8A8F53B0-DF48-4C43-86E4-F0539724E722";
paths = (
{
closed = 1;
nodes = (
"195 424 LINE SMOOTH",
"195 272 OFFCURVE",
"223 158.5 OFFCURVE",
"279 83.5 CURVE SMOOTH",
"335 8.5 OFFCURVE",
"420.333 -29 OFFCURVE",
"535 -29 CURVE SMOOTH",
"610.333 -29 OFFCURVE",
"676.166 -12.333 OFFCURVE",
"732.5 21 CURVE SMOOTH",
"788.833 54.333 OFFCURVE",
"833.333 103.333 OFFCURVE",
"865.999 168 CURVE",
"865.999 0 LINE",
"1051 0 LINE",
"1051 1118 LINE",
"866 1118 LINE",
"866 485 LINE SMOOTH",
"866 371 OFFCURVE",
"843 283.5 OFFCURVE",
"797 222.5 CURVE SMOOTH",
"751 161.5 OFFCURVE",
"684.666 131 OFFCURVE",
"598 131 CURVE SMOOTH",
"523.333 131 OFFCURVE",
"468.166 154.667 OFFCURVE",
"432.5 202 CURVE SMOOTH",
"396.833 249.333 OFFCURVE",
"379 323.333 OFFCURVE",
"379 424 CURVE SMOOTH",
"379 1118 LINE",
"195 1118 LINE"
);
}
);
width = 1233;
}
);
unicode = 0075;
},
{
glyphname = v;
layers = (
{
layerId = "8A8F53B0-DF48-4C43-86E4-F0539724E722";
paths = (
{
closed = 1;
nodes = (
"100 1120 LINE",
"498 0 LINE",
"735 0 LINE",
"1133 1120 LINE",
"942 1120 LINE",
"616 180 LINE",
"291 1120 LINE"
);
}
);
width = 1233;
}
);
unicode = 0076;
},
{
glyphname = w;
layers = (
{
layerId = "8A8F53B0-DF48-4C43-86E4-F0539724E722";
paths = (
{
closed = 1;
nodes = (
"0 1120 LINE",
"262 0 LINE",
"438 0 LINE",
"616 614 LINE",
"795 0 LINE",
"970.999 0 LINE",
"1233 1120 LINE",
"1051 1120 LINE",
"856 215 LINE",
"694 793 LINE",
"537 793 LINE",
"377 215 LINE",
"182 1120 LINE"
);
}
);
width = 1233;
}
);
unicode = 0077;
},
{
glyphname = x;
layers = (
{
layerId = "8A8F53B0-DF48-4C43-86E4-F0539724E722";
paths = (
{
closed = 1;
nodes = (
"1118 1120 LINE",
"911 1120 LINE",
"616 715 LINE",
"319 1120 LINE",
"115 1120 LINE",
"516 584 LINE",
"76 0 LINE",
"289 0 LINE",
"616 449 LINE",
"944 0 LINE",
"1157 0 LINE",
"717 584 LINE"
);
}
);
width = 1233;
}
);
unicode = 0078;
},
{
glyphname = y;
layers = (
{
layerId = "8A8F53B0-DF48-4C43-86E4-F0539724E722";
paths = (
{
closed = 1;
nodes = (
"1153 1120 LINE",
"958 1120 LINE",
"631 244 LINE",
"299 1120 LINE",
"104 1120 LINE",
"537 18 LINE",
"489.666 -112.667 OFFCURVE",
"450.666 -193.667 OFFCURVE",
"420 -225 CURVE SMOOTH",
"389.333 -256.333 OFFCURVE",
"347 -272 OFFCURVE",
"293 -272 CURVE SMOOTH",
"184 -272 LINE",
"184 -426 LINE",
"332 -426 LINE SMOOTH",
"393.333 -426 OFFCURVE",
"447 -413 OFFCURVE",
"493 -387 CURVE SMOOTH",
"539 -361 OFFCURVE",
"577.333 -322 OFFCURVE",
"608 -270 CURVE SMOOTH",
"630.666 -231.333 OFFCURVE",
"675 -124 OFFCURVE",
"741 52 CURVE SMOOTH",
"788.333 179.333 OFFCURVE",
"827.333 282 OFFCURVE",
"858 360 CURVE SMOOTH"
);
}
);
width = 1233;
}
);
unicode = 0079;
},
{
glyphname = z;
layers = (
{
layerId = "8A8F53B0-DF48-4C43-86E4-F0539724E722";
paths = (
{
closed = 1;
nodes = (
"227 1122 LINE",
"227 974.999 LINE",
"846 974.999 LINE",
"203 170 LINE",
"203 0 LINE",
"1040 0 LINE",
"1040 150 LINE",
"397 150 LINE",
"1040 954 LINE",
"1040 1122 LINE"
);
}
);
width = 1233;
}
);
unicode = 007A;
},
{
glyphname = braceleft;
layers = (
{
layerId = "8A8F53B0-DF48-4C43-86E4-F0539724E722";
paths = (
{
closed = 1;
nodes = (
"1032 -51 LINE",
"962 -51 LINE SMOOTH",
"868.666 -51 OFFCURVE",
"807.833 -36.667 OFFCURVE",
"779.5 -8 CURVE SMOOTH",
"751.166 20.667 OFFCURVE",
"737 82.667 OFFCURVE",
"737 178 CURVE SMOOTH",
"737 387 LINE SMOOTH",
"737 501 OFFCURVE",
"713 579.833 OFFCURVE",
"665 623.5 CURVE SMOOTH",
"617 667.166 OFFCURVE",
"528.333 696.666 OFFCURVE",
"399 712 CURVE",
"532.333 730 OFFCURVE",
"622 759.166 OFFCURVE",
"668 799.5 CURVE SMOOTH",
"714 839.833 OFFCURVE",
"737 918.666 OFFCURVE",
"737 1036 CURVE SMOOTH",
"737 1304 LINE SMOOTH",
"737 1398.67 OFFCURVE",
"751.166 1460.5 OFFCURVE",
"779.5 1489.5 CURVE SMOOTH",
"807.833 1518.5 OFFCURVE",
"868.666 1533 OFFCURVE",
"962 1533 CURVE SMOOTH",
"1032 1533 LINE",
"1032 1676 LINE",
"967.999 1676 LINE SMOOTH",
"802 1676 OFFCURVE",
"690.833 1651.5 OFFCURVE",
"634.5 1602.5 CURVE SMOOTH",
"578.166 1553.5 OFFCURVE",
"550 1455.33 OFFCURVE",
"550 1308 CURVE SMOOTH",
"550 1048 LINE SMOOTH",
"550 961.333 OFFCURVE",
"531.5 895.666 OFFCURVE",
"494.5 851 CURVE SMOOTH",
"457.5 806.333 OFFCURVE",
"392 784 OFFCURVE",
"298 784 CURVE SMOOTH",
"176 784 LINE",
"176 641 LINE",
"298 641 LINE SMOOTH",
"384 641 OFFCURVE",
"447.5 614.666 OFFCURVE",
"488.5 562 CURVE SMOOTH",
"529.5 509.333 OFFCURVE",
"550 446.666 OFFCURVE",
"550 374 CURVE SMOOTH",
"550 174 LINE SMOOTH",
"550 26.667 OFFCURVE",
"578.166 -71.667 OFFCURVE",
"634.5 -121 CURVE SMOOTH",
"690.833 -170.333 OFFCURVE",
"802 -195 OFFCURVE",
"967.999 -195 CURVE SMOOTH",
"1032 -195 LINE"
);
}
);
width = 1233;
}
);
unicode = 007B;
},
{
glyphname = bar;
layers = (
{
layerId = "8A8F53B0-DF48-4C43-86E4-F0539724E722";
paths = (
{
closed = 1;
nodes = (
"742 1565 LINE",
"570 1565 LINE",
"570 -483 LINE",
"742 -483 LINE"
);
}
);
width = 1233;
}
);
unicode = 007C;
},
{
glyphname = braceright;
layers = (
{
layerId = "8A8F53B0-DF48-4C43-86E4-F0539724E722";
paths = (
{
closed = 1;
nodes = (
"219 -51 LINE",
"219 -195 LINE",
"283 -195 LINE SMOOTH",
"449 -195 OFFCURVE",
"560.166 -170.333 OFFCURVE",
"616.5 -121 CURVE SMOOTH",
"672.833 -71.667 OFFCURVE",
"701 26.667 OFFCURVE",
"701 174 CURVE SMOOTH",
"701 374 LINE SMOOTH",
"701 446.666 OFFCURVE",
"721.5 509.333 OFFCURVE",
"762.5 562 CURVE SMOOTH",
"803.5 614.666 OFFCURVE",
"867 641 OFFCURVE",
"953 641 CURVE SMOOTH",
"1075 641 LINE",
"1075 784 LINE",
"953 784 LINE SMOOTH",
"859 784 OFFCURVE",
"793.5 806.333 OFFCURVE",
"756.5 851 CURVE SMOOTH",
"719.5 895.666 OFFCURVE",
"701 961.333 OFFCURVE",
"701 1048 CURVE SMOOTH",
"701 1308 LINE SMOOTH",
"701 1455.33 OFFCURVE",
"672.833 1553.5 OFFCURVE",
"616.5 1602.5 CURVE SMOOTH",
"560.166 1651.5 OFFCURVE",
"449 1676 OFFCURVE",
"283 1676 CURVE SMOOTH",
"219 1676 LINE",
"219 1533 LINE",
"289 1533 LINE SMOOTH",
"382.333 1533 OFFCURVE",
"443.166 1518.5 OFFCURVE",
"471.5 1489.5 CURVE SMOOTH",
"499.833 1460.5 OFFCURVE",
"514 1398.67 OFFCURVE",
"514 1304 CURVE SMOOTH",
"514 1036 LINE SMOOTH",
"514 918.666 OFFCURVE",
"537 839.833 OFFCURVE",
"583 799.5 CURVE SMOOTH",
"629 759.166 OFFCURVE",
"718.666 730 OFFCURVE",
"852 712 CURVE",
"722.666 696.666 OFFCURVE",
"634 667.166 OFFCURVE",
"586 623.5 CURVE SMOOTH",
"538 579.833 OFFCURVE",
"514 501 OFFCURVE",
"514 387 CURVE SMOOTH",
"514 178 LINE SMOOTH",
"514 82.667 OFFCURVE",
"499.833 20.667 OFFCURVE",
"471.5 -8 CURVE SMOOTH",
"443.166 -36.667 OFFCURVE",
"382.333 -51 OFFCURVE",
"289 -51 CURVE SMOOTH"
);
}
);
width = 1233;
}
);
unicode = 007D;
},
{
glyphname = asciitilde;
layers = (
{
layerId = "8A8F53B0-DF48-4C43-86E4-F0539724E722";
paths = (
{
closed = 1;
nodes = (
"1087 784 LINE",
"1066.33 731.333 OFFCURVE",
"1039.33 676.166 OFFCURVE",
"1006 618.5 CURVE SMOOTH",
"972.666 560.833 OFFCURVE",
"929.666 532 OFFCURVE",
"877 532 CURVE SMOOTH",
"815 532 OFFCURVE",
"739.5 599.333 OFFCURVE",
"650.5 734 CURVE SMOOTH",
"561.5 868.666 OFFCURVE",
"460.667 935.333 OFFCURVE",
"348 933.999 CURVE SMOOTH",
"286 933.999 OFFCURVE",
"224.333 904.666 OFFCURVE",
"163 846 CURVE SMOOTH",
"101.667 787.333 OFFCURVE",
"51.667 696.333 OFFCURVE",
"13 573 CURVE",
"146 497 LINE",
"175.333 571.666 OFFCURVE",
"203.333 633.166 OFFCURVE",
"230 681.5 CURVE SMOOTH",
"256.667 729.833 OFFCURVE",
"295.667 754 OFFCURVE",
"347 754 CURVE SMOOTH",
"395.667 754.666 OFFCURVE",
"435.333 735.833 OFFCURVE",
"466 697.5 CURVE SMOOTH",
"496.666 659.166 OFFCURVE",
"549.5 594.166 OFFCURVE",
"624.5 502.5 CURVE SMOOTH",
"699.5 410.833 OFFCURVE",
"783.666 362.333 OFFCURVE",
"877 357 CURVE",
"935.666 357 OFFCURVE",
"992.666 380.833 OFFCURVE",
"1048 428.5 CURVE SMOOTH",
"1103.33 476.166 OFFCURVE",
"1159.67 565.333 OFFCURVE",
"1217 696 CURVE"
);
}
);
width = 1233;
}
);
unicode = 007E;
},
{
glyphname = exclamdown;
layers = (
{
layerId = "8A8F53B0-DF48-4C43-86E4-F0539724E722";
paths = (
{
closed = 1;
nodes = (
"516 1239 LINE",
"719 1239 LINE",
"719 1493 LINE",
"516 1493 LINE"
);
},
{
closed = 1;
nodes = (
"516 0 LINE",
"719 0 LINE",
"719 655 LINE",
"698 1012 LINE",
"537 1012 LINE",
"516 655 LINE"
);
}
);
width = 1233;
}
);
unicode = 00A1;
},
{
glyphname = cent;
layers = (
{
layerId = "8A8F53B0-DF48-4C43-86E4-F0539724E722";
paths = (
{
closed = 1;
nodes = (
"1061 1077 LINE",
"1012.33 1097.67 OFFCURVE",
"966.333 1113.67 OFFCURVE",
"923 1125 CURVE SMOOTH",
"879.666 1136.33 OFFCURVE",
"845.666 1143 OFFCURVE",
"821 1145 CURVE",
"821 1432 LINE",
"698 1432 LINE",
"698 1145 LINE",
"550 1132.33 OFFCURVE",
"432.166 1073.17 OFFCURVE",
"344.5 967.5 CURVE SMOOTH",
"256.833 861.833 OFFCURVE",
"213 725.666 OFFCURVE",
"213 559 CURVE SMOOTH",
"213 391.667 OFFCURVE",
"256.333 255.833 OFFCURVE",
"343 151.5 CURVE SMOOTH",
"429.666 47.167 OFFCURVE",
"548 -12.333 OFFCURVE",
"698 -27 CURVE",
"698 -313 LINE",
"821 -313 LINE",
"821 -27 LINE",
"845.666 -25 OFFCURVE",
"879.666 -18.333 OFFCURVE",
"923 -7 CURVE SMOOTH",
"966.333 4.333 OFFCURVE",
"1012.33 20.333 OFFCURVE",
"1061 41 CURVE",
"1061 213 LINE",
"1017 186.333 OFFCURVE",
"973.166 165.5 OFFCURVE",
"929.5 150.5 CURVE SMOOTH",
"885.833 135.5 OFFCURVE",
"849.666 126.333 OFFCURVE",
"821 123 CURVE",
"821 993 LINE",
"849.666 990.333 OFFCURVE",
"885.666 981.666 OFFCURVE",
"928.999 967 CURVE SMOOTH",
"972.333 952.333 OFFCURVE",
"1016.33 931.666 OFFCURVE",
"1061 905 CURVE"
);
},
{
closed = 1;
nodes = (
"698 127 LINE",
"610 135.667 OFFCURVE",
"539.333 179.167 OFFCURVE",
"486 257.5 CURVE SMOOTH",
"432.666 335.833 OFFCURVE",
"406 436.333 OFFCURVE",
"406 559 CURVE SMOOTH",
"406 681.666 OFFCURVE",
"432.666 782.333 OFFCURVE",
"486 861 CURVE SMOOTH",
"539.333 939.666 OFFCURVE",
"610 983 OFFCURVE",
"698 991 CURVE"
);
}
);
width = 1233;
}
);
unicode = 00A2;
},
{
glyphname = sterling;
layers = (
{
layerId = "8A8F53B0-DF48-4C43-86E4-F0539724E722";
paths = (
{
closed = 1;
nodes = (
"1092 1462 LINE",
"1043.33 1481.33 OFFCURVE",
"996.166 1495.83 OFFCURVE",
"950.5 1505.5 CURVE SMOOTH",
"904.833 1515.17 OFFCURVE",
"860.333 1520 OFFCURVE",
"817 1520 CURVE SMOOTH",
"668.333 1520 OFFCURVE",
"557.5 1478.33 OFFCURVE",
"484.5 1395 CURVE SMOOTH",
"411.5 1311.67 OFFCURVE",
"375 1185.33 OFFCURVE",
"375 1016 CURVE SMOOTH",
"375 778 LINE",
"176 778 LINE",
"176 635 LINE",
"375 635 LINE",
"375 170 LINE",
"139 170 LINE",
"139 0 LINE",
"1112 0 LINE",
"1112 170 LINE",
"575 170 LINE",
"575 635 LINE",
"946 635 LINE",
"946 778 LINE",
"575 778 LINE",
"575 994.999 LINE SMOOTH",
"575 1123 OFFCURVE",
"596.166 1216.83 OFFCURVE",
"638.5 1276.5 CURVE SMOOTH",
"680.833 1336.17 OFFCURVE",
"746.666 1366 OFFCURVE",
"836 1366 CURVE SMOOTH",
"880.666 1366 OFFCURVE",
"924.166 1358.67 OFFCURVE",
"966.499 1344 CURVE SMOOTH",
"1008.83 1329.33 OFFCURVE",
"1050.67 1307.33 OFFCURVE",
"1092 1278 CURVE"
);
}
);
width = 1233;
}
);
unicode = 00A3;
},
{
glyphname = currency;
layers = (
{
layerId = "8A8F53B0-DF48-4C43-86E4-F0539724E722";
paths = (
{
closed = 1;
nodes = (
"868 582.333 OFFCURVE",
"847.333 531 OFFCURVE",
"806 489 CURVE SMOOTH",
"764.666 447 OFFCURVE",
"713.666 426 OFFCURVE",
"653 426 CURVE SMOOTH",
"593 426 OFFCURVE",
"542.166 446.833 OFFCURVE",
"500.5 488.5 CURVE SMOOTH",
"458.833 530.166 OFFCURVE",
"438 581.666 OFFCURVE",
"438 643 CURVE SMOOTH",
"438 703 OFFCURVE",
"458.833 753.5 OFFCURVE",
"500.5 794.5 CURVE SMOOTH",
"542.166 835.5 OFFCURVE",
"593 856 OFFCURVE",
"653 856 CURVE SMOOTH",
"713.666 856 OFFCURVE",
"764.666 835.5 OFFCURVE",
"806 794.5 CURVE SMOOTH",
"847.333 753.5 OFFCURVE",
"868 703 OFFCURVE",
"868 643 CURVE SMOOTH"
);
},
{
closed = 1;
nodes = (
"844 924 LINE",
"810 944 OFFCURVE",
"777.333 958.833 OFFCURVE",
"746 968.499 CURVE SMOOTH",
"714.666 978.166 OFFCURVE",
"683.666 982.999 OFFCURVE",
"653 982.999 CURVE SMOOTH",
"619 982.999 OFFCURVE",
"586.833 977.999 OFFCURVE",
"556.5 967.999 CURVE SMOOTH",
"526.166 958 OFFCURVE",
"495.666 942.666 OFFCURVE",
"465 922 CURVE",
"299 1090 LINE",
"205 994.999 LINE",
"373 829 LINE",
"352.333 799 OFFCURVE",
"336.833 768.5 OFFCURVE",
"326.5 737.5 CURVE SMOOTH",
"316.167 706.5 OFFCURVE",
"311 674.333 OFFCURVE",
"311 641 CURVE SMOOTH",
"311 610.333 OFFCURVE",
"315.833 579.5 OFFCURVE",
"325.5 548.5 CURVE SMOOTH",
"335.167 517.5 OFFCURVE",
"350.333 485 OFFCURVE",
"371 451 CURVE",
"205 285 LINE",
"297 195 LINE",
"461 358 LINE",
"493 339.333 OFFCURVE",
"525 325.166 OFFCURVE",
"557 315.5 CURVE SMOOTH",
"589 305.833 OFFCURVE",
"621 301 OFFCURVE",
"653 301 CURVE SMOOTH",
"686.333 301 OFFCURVE",
"718.166 306 OFFCURVE",
"748.5 316 CURVE SMOOTH",
"778.833 326 OFFCURVE",
"809.333 341.333 OFFCURVE",
"840 362 CURVE",
"1006 195 LINE",
"1100 289 LINE",
"932 455 LINE",
"952.666 485 OFFCURVE",
"967.999 515.166 OFFCURVE",
"977.999 545.5 CURVE SMOOTH",
"987.999 575.833 OFFCURVE",
"992.999 607.666 OFFCURVE",
"992.999 641 CURVE SMOOTH",
"992.999 673 OFFCURVE",
"988.166 704.5 OFFCURVE",
"978.499 735.5 CURVE SMOOTH",
"968.833 766.5 OFFCURVE",
"954 798.333 OFFCURVE",
"934 831 CURVE",
"1100 996.999 LINE",
"1010 1090 LINE"
);
}
);
width = 1233;
}
);
unicode = 00A4;
},
{
glyphname = yen;
layers = (
{
layerId = "8A8F53B0-DF48-4C43-86E4-F0539724E722";
paths = (
{
closed = 1;
nodes = (
"37 1493 LINE",
"358 932 LINE",
"115 932 LINE",
"115 821 LINE",
"424 821 LINE",
"514 670 LINE",
"514 635 LINE",
"115 635 LINE",
"115 524 LINE",
"514 524 LINE",
"514 0 LINE",
"717 0 LINE",
"717 524 LINE",
"1118 524 LINE",
"1118 635 LINE",
"717 635 LINE",
"717 670 LINE",
"803 821 LINE",
"1118 821 LINE",
"1118 932 LINE",
"866 932 LINE",
"1196 1493 LINE",
"978.999 1493 LINE",
"616 834 LINE",
"252 1493 LINE"
);
}
);
width = 1233;
}
);
unicode = 00A5;
},
{
glyphname = brokenbar;
layers = (
{
layerId = "8A8F53B0-DF48-4C43-86E4-F0539724E722";
paths = (
{
closed = 1;
nodes = (
"702 1432 LINE",
"530 1432 LINE",
"530 674 LINE",
"702 674 LINE"
);
},
{
closed = 1;
nodes = (
"702 408 LINE",
"530 408 LINE",
"530 -350 LINE",
"702 -350 LINE"
);
}
);
width = 1233;
}
);
unicode = 00A6;
},
{
glyphname = section;
layers = (
{
layerId = "8A8F53B0-DF48-4C43-86E4-F0539724E722";
paths = (
{
closed = 1;
nodes = (
"936 1462 LINE",
"882.666 1481.33 OFFCURVE",
"830.5 1495.83 OFFCURVE",
"779.5 1505.5 CURVE SMOOTH",
"728.5 1515.17 OFFCURVE",
"679 1520 OFFCURVE",
"631 1520 CURVE SMOOTH",
"519.666 1520 OFFCURVE",
"430.666 1493.5 OFFCURVE",
"364 1440.5 CURVE SMOOTH",
"297.333 1387.5 OFFCURVE",
"264 1317.67 OFFCURVE",
"264 1231 CURVE SMOOTH",
"264 1185 OFFCURVE",
"273.833 1143.33 OFFCURVE",
"293.5 1106 CURVE SMOOTH",
"313.167 1068.67 OFFCURVE",
"343 1035.33 OFFCURVE",
"383 1006 CURVE",
"322.333 973.333 OFFCURVE",
"276.5 933.166 OFFCURVE",
"245.5 885.499 CURVE SMOOTH",
"214.5 837.833 OFFCURVE",
"199 783.666 OFFCURVE",
"199 723 CURVE SMOOTH",
"199 655 OFFCURVE",
"220.333 595.5 OFFCURVE",
"263 544.5 CURVE SMOOTH",
"305.667 493.5 OFFCURVE",
"398.333 428 OFFCURVE",
"541 348 CURVE SMOOTH",
"565 334 LINE SMOOTH",
"712.333 252 OFFCURVE",
"786 177 OFFCURVE",
"786 109 CURVE SMOOTH",
"786 58.333 OFFCURVE",
"767.166 19 OFFCURVE",
"729.5 -9 CURVE SMOOTH",
"691.833 -37 OFFCURVE",
"639 -51 OFFCURVE",
"571 -51 CURVE SMOOTH",
"533 -51 OFFCURVE",
"489.333 -44.5 OFFCURVE",
"440 -31.5 CURVE SMOOTH",
"390.666 -18.5 OFFCURVE",
"337 1 OFFCURVE",
"279 27 CURVE",
"279 -137 LINE",
"337 -156.333 OFFCURVE",
"391.833 -170.833 OFFCURVE",
"443.5 -180.5 CURVE SMOOTH",
"495.166 -190.167 OFFCURVE",
"545.333 -195 OFFCURVE",
"594 -195 CURVE SMOOTH",
"709.333 -195 OFFCURVE",
"801 -167 OFFCURVE",
"869 -111 CURVE SMOOTH",
"937 -55 OFFCURVE",
"971 20.333 OFFCURVE",
"971 115 CURVE SMOOTH",
"971 157.667 OFFCURVE",
"961.333 197.167 OFFCURVE",
"942 233.5 CURVE SMOOTH",
"922.666 269.833 OFFCURVE",
"892.666 305.333 OFFCURVE",
"852 340 CURVE",
"914 375.333 OFFCURVE",
"960.166 416.333 OFFCURVE",
"990.5 463 CURVE SMOOTH",
"1020.83 509.666 OFFCURVE",
"1036 563 OFFCURVE",
"1036 623 CURVE SMOOTH",
"1036 690.333 OFFCURVE",
"1014.33 749.666 OFFCURVE",
"970.999 801 CURVE SMOOTH",
"927.666 852.333 OFFCURVE",
"835.333 917.666 OFFCURVE",
"694 996.999 CURVE SMOOTH",
"684.666 1002.33 OFFCURVE",
"671.333 1010 OFFCURVE",
"654 1020 CURVE SMOOTH",
"517.333 1096.67 OFFCURVE",
"449 1165 OFFCURVE",
"449 1225 CURVE SMOOTH",
"449 1272.33 OFFCURVE",
"466.833 1309.33 OFFCURVE",
"502.5 1336 CURVE SMOOTH",
"538.166 1362.67 OFFCURVE",
"588.333 1376 OFFCURVE",
"653 1376 CURVE SMOOTH",
"691 1376 OFFCURVE",
"733.833 1369.5 OFFCURVE",
"781.5 1356.5 CURVE SMOOTH",
"829.166 1343.5 OFFCURVE",
"880.666 1324 OFFCURVE",
"936 1298 CURVE"
);
},
{
closed = 1;
nodes = (
"647.666 848 OFFCURVE",
"752.833 781.333 OFFCURVE",
"800.5 736 CURVE SMOOTH",
"848.166 690.666 OFFCURVE",
"872 642.666 OFFCURVE",
"872 592 CURVE SMOOTH",
"872 560.666 OFFCURVE",
"862 530 OFFCURVE",
"842 500 CURVE SMOOTH",
"822 470 OFFCURVE",
"791.333 440 OFFCURVE",
"750 410 CURVE",
"585.333 498.666 OFFCURVE",
"479.5 565.5 OFFCURVE",
"432.5 610.5 CURVE SMOOTH",
"385.5 655.5 OFFCURVE",
"362 703.333 OFFCURVE",
"362 754 CURVE SMOOTH",
"362 785.333 OFFCURVE",
"372.167 816 OFFCURVE",
"392.5 846 CURVE SMOOTH",
"412.833 876 OFFCURVE",
"443.666 906 OFFCURVE",
"485 936 CURVE"
);
}
);
width = 1233;
}
);
unicode = 00A7;
},
{
glyphname = dieresis;
layers = (
{
layerId = "8A8F53B0-DF48-4C43-86E4-F0539724E722";
paths = (
{
closed = 1;
nodes = (
"319 1552 LINE",
"319 1350 LINE",
"522 1350 LINE",
"522 1552 LINE"
);
},
{
closed = 1;
nodes = (
"711 1552 LINE",
"711 1350 LINE",
"913 1350 LINE",
"913 1552 LINE"
);
}
);
width = 1233;
}
);
unicode = 00A8;
},
{
glyphname = copyright;
layers = (
{
layerId = "8A8F53B0-DF48-4C43-86E4-F0539724E722";
paths = (
{
closed = 1;
nodes = (
"864 1071 LINE",
"829.333 1086.33 OFFCURVE",
"793 1097.67 OFFCURVE",
"755 1105 CURVE SMOOTH",
"717 1112.33 OFFCURVE",
"677.666 1116 OFFCURVE",
"637 1116 CURVE SMOOTH",
"517.666 1116 OFFCURVE",
"423.333 1082.33 OFFCURVE",
"354 1015 CURVE SMOOTH",
"284.667 947.666 OFFCURVE",
"250 856.333 OFFCURVE",
"250 741 CURVE SMOOTH",
"250 626.333 OFFCURVE",
"284.5 535.667 OFFCURVE",
"353.5 469 CURVE SMOOTH",
"422.5 402.333 OFFCURVE",
"517 369 OFFCURVE",
"637 369 CURVE SMOOTH",
"677.666 369 OFFCURVE",
"717 372.667 OFFCURVE",
"755 380 CURVE SMOOTH",
"793 387.333 OFFCURVE",
"829.333 398.667 OFFCURVE",
"864 414 CURVE",
"864 518 LINE",
"830.666 500.667 OFFCURVE",
"796.833 487.833 OFFCURVE",
"762.5 479.5 CURVE SMOOTH",
"728.166 471.167 OFFCURVE",
"692.333 467 OFFCURVE",
"655 467 CURVE SMOOTH",
"568.333 467 OFFCURVE",
"501.666 490.667 OFFCURVE",
"455 538 CURVE SMOOTH",
"408.333 585.333 OFFCURVE",
"385 653 OFFCURVE",
"385 741 CURVE SMOOTH",
"385 826.333 OFFCURVE",
"407.5 893.833 OFFCURVE",
"452.5 943.5 CURVE SMOOTH",
"497.5 993.166 OFFCURVE",
"559 1018 OFFCURVE",
"637 1018 CURVE SMOOTH",
"675.666 1018 OFFCURVE",
"713.5 1013.5 OFFCURVE",
"750.5 1004.5 CURVE SMOOTH",
"787.5 995.5 OFFCURVE",
"825.333 981.666 OFFCURVE",
"864 963 CURVE"
);
},
{
closed = 1;
nodes = (
"687.333 1255 OFFCURVE",
"753.166 1242.67 OFFCURVE",
"813.5 1218 CURVE SMOOTH",
"873.833 1193.33 OFFCURVE",
"929 1156 OFFCURVE",
"979 1106 CURVE SMOOTH",
"1029 1056 OFFCURVE",
"1066.67 1000.33 OFFCURVE",
"1092 939 CURVE SMOOTH",
"1117.33 877.666 OFFCURVE",
"1130 811.667 OFFCURVE",
"1130 741 CURVE SMOOTH",
"1130 671 OFFCURVE",
"1117.5 605.833 OFFCURVE",
"1092.5 545.5 CURVE SMOOTH",
"1067.5 485.167 OFFCURVE",
"1029.67 429.667 OFFCURVE",
"978.999 379 CURVE SMOOTH",
"928.333 328.333 OFFCURVE",
"872.833 290.333 OFFCURVE",
"812.5 265 CURVE SMOOTH",
"752.166 239.667 OFFCURVE",
"686.666 227 OFFCURVE",
"616 227 CURVE SMOOTH",
"546 227 OFFCURVE",
"480.833 239.667 OFFCURVE",
"420.5 265 CURVE SMOOTH",
"360.166 290.333 OFFCURVE",
"304.666 328.333 OFFCURVE",
"254 379 CURVE SMOOTH",
"204 429 OFFCURVE",
"166.167 484.5 OFFCURVE",
"140.5 545.5 CURVE SMOOTH",
"114.833 606.5 OFFCURVE",
"102 671.667 OFFCURVE",
"102 741 CURVE SMOOTH",
"102 811.667 OFFCURVE",
"114.833 877.666 OFFCURVE",
"140.5 939 CURVE SMOOTH",
"166.167 1000.33 OFFCURVE",
"204 1056 OFFCURVE",
"254 1106 CURVE SMOOTH",
"304 1156 OFFCURVE",
"359.166 1193.33 OFFCURVE",
"419.5 1218 CURVE SMOOTH",
"479.833 1242.67 OFFCURVE",
"545.333 1255 OFFCURVE",
"616 1255 CURVE SMOOTH"
);
},
{
closed = 1;
nodes = (
"532 1358 OFFCURVE",
"453.666 1343 OFFCURVE",
"381 1313 CURVE SMOOTH",
"308.333 1283 OFFCURVE",
"242 1238 OFFCURVE",
"182 1178 CURVE SMOOTH",
"122 1117.33 OFFCURVE",
"76.667 1050.33 OFFCURVE",
"46 977 CURVE SMOOTH",
"15.333 903.667 OFFCURVE",
"0 825 OFFCURVE",
"0 741 CURVE SMOOTH",
"0 657.667 OFFCURVE",
"15.167 579.667 OFFCURVE",
"45.5 507 CURVE SMOOTH",
"75.833 434.333 OFFCURVE",
"121.333 367.667 OFFCURVE",
"182 307 CURVE SMOOTH",
"242.666 246.333 OFFCURVE",
"309.333 200.834 OFFCURVE",
"382 170.5 CURVE SMOOTH",
"454.666 140.167 OFFCURVE",
"532.666 125 OFFCURVE",
"616 125 CURVE SMOOTH",
"700 125 OFFCURVE",
"778.333 140.167 OFFCURVE",
"851 170.5 CURVE SMOOTH",
"923.666 200.834 OFFCURVE",
"990.333 246.333 OFFCURVE",
"1051 307 CURVE SMOOTH",
"1111.67 367.667 OFFCURVE",
"1157.17 434.333 OFFCURVE",
"1187.5 507 CURVE SMOOTH",
"1217.83 579.667 OFFCURVE",
"1233 657.667 OFFCURVE",
"1233 741 CURVE SMOOTH",
"1233 825 OFFCURVE",
"1217.67 903.667 OFFCURVE",
"1187 977 CURVE SMOOTH",
"1156.33 1050.33 OFFCURVE",
"1111 1117.33 OFFCURVE",
"1051 1178 CURVE SMOOTH",
"990.999 1238 OFFCURVE",
"924.666 1283 OFFCURVE",
"851.999 1313 CURVE SMOOTH",
"779.333 1343 OFFCURVE",
"700.666 1358 OFFCURVE",
"616 1358 CURVE SMOOTH"
);
}
);
width = 1233;
}
);
unicode = 00A9;
},
{
glyphname = ordfeminine;
layers = (
{
layerId = "8A8F53B0-DF48-4C43-86E4-F0539724E722";
paths = (
{
closed = 1;
nodes = (
"811 1104 LINE",
"811 1075 LINE SMOOTH",
"811 998.333 OFFCURVE",
"789.166 936.166 OFFCURVE",
"745.5 888.499 CURVE SMOOTH",
"701.833 840.833 OFFCURVE",
"645 817 OFFCURVE",
"575 817 CURVE SMOOTH",
"527 817 OFFCURVE",
"488.5 829.833 OFFCURVE",
"459.5 855.499 CURVE SMOOTH",
"430.5 881.166 OFFCURVE",
"416 915.333 OFFCURVE",
"416 957.999 CURVE SMOOTH",
"416 1010 OFFCURVE",
"436.666 1047.33 OFFCURVE",
"478 1070 CURVE SMOOTH",
"519.333 1092.67 OFFCURVE",
"588 1104 OFFCURVE",
"684 1104 CURVE SMOOTH"
);
},
{
closed = 1;
nodes = (
"954 1165 LINE SMOOTH",
"954 1287 OFFCURVE",
"925.333 1376.67 OFFCURVE",
"868 1434 CURVE SMOOTH",
"810.666 1491.33 OFFCURVE",
"720.666 1520 OFFCURVE",
"598 1520 CURVE SMOOTH",
"556 1520 OFFCURVE",
"512.5 1515.33 OFFCURVE",
"467.5 1506 CURVE SMOOTH",
"422.5 1496.67 OFFCURVE",
"377.333 1482.67 OFFCURVE",
"332 1464 CURVE",
"332 1337 LINE",
"376.666 1359 OFFCURVE",
"419.833 1375.83 OFFCURVE",
"461.5 1387.5 CURVE SMOOTH",
"503.166 1399.17 OFFCURVE",
"541 1405 OFFCURVE",
"575 1405 CURVE SMOOTH",
"653 1405 OFFCURVE",
"711.833 1389.67 OFFCURVE",
"751.5 1359 CURVE SMOOTH",
"791.166 1328.33 OFFCURVE",
"811 1283 OFFCURVE",
"811 1223 CURVE SMOOTH",
"811 1219 LINE",
"629 1219 LINE SMOOTH",
"514.333 1219 OFFCURVE",
"425.833 1195.67 OFFCURVE",
"363.5 1149 CURVE SMOOTH",
"301.167 1102.33 OFFCURVE",
"270 1036 OFFCURVE",
"270 949.999 CURVE SMOOTH",
"270 872.666 OFFCURVE",
"295 811.333 OFFCURVE",
"345 766 CURVE SMOOTH",
"395 720.666 OFFCURVE",
"463 698 OFFCURVE",
"549 698 CURVE SMOOTH",
"603.666 698 OFFCURVE",
"652.833 709 OFFCURVE",
"696.5 731 CURVE SMOOTH",
"740.166 753 OFFCURVE",
"778.333 785.666 OFFCURVE",
"811 829 CURVE",
"811 717 LINE",
"954 717 LINE"
);
},
{
closed = 1;
nodes = (
"293 592 LINE",
"293 469 LINE",
"961 469 LINE",
"961 592 LINE"
);
}
);
width = 1233;
}
);
unicode = 00AA;
},
{
glyphname = guillemotleft;
layers = (
{
layerId = "8A8F53B0-DF48-4C43-86E4-F0539724E722";
paths = (
{
closed = 1;
nodes = (
"588 1059 LINE",
"119 641 LINE",
"119 559 LINE",
"588 141 LINE",
"588 332 LINE",
"287 600 LINE",
"588 868 LINE"
);
},
{
closed = 1;
nodes = (
"1042 1059 LINE",
"573 641 LINE",
"573 559 LINE",
"1042 141 LINE",
"1042 332 LINE",
"741 600 LINE",
"1042 868 LINE"
);
}
);
width = 1233;
}
);
unicode = 00AB;
},
{
glyphname = logicalnot;
layers = (
{
layerId = "8A8F53B0-DF48-4C43-86E4-F0539724E722";
paths = (
{
closed = 1;
nodes = (
"88 862 LINE",
"88 690 LINE",
"976.999 690 LINE",
"976.999 371 LINE",
"1145 371 LINE",
"1145 862 LINE"
);
}
);
width = 1233;
}
);
unicode = 00AC;
},
{
glyphname = sfthyphen;
layers = (
{
layerId = "8A8F53B0-DF48-4C43-86E4-F0539724E722";
paths = (
{
closed = 1;
nodes = (
"132 744 LINE",
"132 555 LINE",
"1122 555 LINE",
"1122 744 LINE"
);
}
);
width = 1233;
}
);
unicode = 00AD;
},
{
glyphname = registered;
layers = (
{
layerId = "8A8F53B0-DF48-4C43-86E4-F0539724E722";
paths = (
{
closed = 1;
nodes = (
"362 1100 LINE",
"362 406 LINE",
"492 406 LINE",
"492 702 LINE",
"547 702 LINE SMOOTH",
"577 702 OFFCURVE",
"602.166 695 OFFCURVE",
"622.5 681 CURVE SMOOTH",
"642.833 667 OFFCURVE",
"669.333 633.333 OFFCURVE",
"702 580 CURVE SMOOTH",
"809 406 LINE",
"952 406 LINE",
"838 592 LINE SMOOTH",
"812.666 631.333 OFFCURVE",
"790.333 662.166 OFFCURVE",
"771 684.5 CURVE SMOOTH",
"751.666 706.833 OFFCURVE",
"735.666 719.666 OFFCURVE",
"723 723 CURVE",
"776.333 732.333 OFFCURVE",
"817.666 752.5 OFFCURVE",
"847 783.5 CURVE SMOOTH",
"876.333 814.5 OFFCURVE",
"891 853.666 OFFCURVE",
"891 900.999 CURVE SMOOTH",
"891 968.333 OFFCURVE",
"867 1018.33 OFFCURVE",
"819 1051 CURVE SMOOTH",
"771 1083.67 OFFCURVE",
"698 1100 OFFCURVE",
"600 1100 CURVE SMOOTH"
);
},
{
closed = 1;
nodes = (
"594 1016 LINE SMOOTH",
"654 1016 OFFCURVE",
"696.333 1007.17 OFFCURVE",
"721 989.499 CURVE SMOOTH",
"745.666 971.833 OFFCURVE",
"758 942.333 OFFCURVE",
"758 900.999 CURVE SMOOTH",
"758 858.999 OFFCURVE",
"745.666 828.999 OFFCURVE",
"721 810.999 CURVE SMOOTH",
"696.333 792.999 OFFCURVE",
"654 783.999 OFFCURVE",
"594 783.999 CURVE SMOOTH",
"492 783.999 LINE",
"492 1016 LINE"
);
},
{
closed = 1;
nodes = (
"532 1358 OFFCURVE",
"453.667 1343 OFFCURVE",
"381 1313 CURVE SMOOTH",
"308.333 1283 OFFCURVE",
"242 1238 OFFCURVE",
"182 1178 CURVE SMOOTH",
"122 1117.33 OFFCURVE",
"76.667 1050.33 OFFCURVE",
"46 976.999 CURVE SMOOTH",
"15.333 903.666 OFFCURVE",
"0 825 OFFCURVE",
"0 741 CURVE SMOOTH",
"0 657.666 OFFCURVE",
"15.167 579.666 OFFCURVE",
"45.5 507 CURVE SMOOTH",
"75.833 434.333 OFFCURVE",
"121.333 367.666 OFFCURVE",
"182 307 CURVE SMOOTH",
"242.667 246.333 OFFCURVE",
"309.333 200.833 OFFCURVE",
"382 170.5 CURVE SMOOTH",
"454.667 140.167 OFFCURVE",
"532.666 125 OFFCURVE",
"616 125 CURVE SMOOTH",
"700 125 OFFCURVE",
"778.333 140.167 OFFCURVE",
"851 170.5 CURVE SMOOTH",
"923.666 200.833 OFFCURVE",
"990.333 246.333 OFFCURVE",
"1051 307 CURVE SMOOTH",
"1111.67 367.666 OFFCURVE",
"1157.17 434.333 OFFCURVE",
"1187.5 507 CURVE SMOOTH",
"1217.83 579.666 OFFCURVE",
"1233 657.666 OFFCURVE",
"1233 741 CURVE SMOOTH",
"1233 825 OFFCURVE",
"1217.67 903.666 OFFCURVE",
"1187 976.999 CURVE SMOOTH",
"1156.33 1050.33 OFFCURVE",
"1111 1117.33 OFFCURVE",
"1051 1178 CURVE SMOOTH",
"990.999 1238 OFFCURVE",
"924.666 1283 OFFCURVE",
"852 1313 CURVE SMOOTH",
"779.333 1343 OFFCURVE",
"700.666 1358 OFFCURVE",
"616 1358 CURVE SMOOTH"
);
},
{
closed = 1;
nodes = (
"687.333 1255 OFFCURVE",
"753.166 1242.67 OFFCURVE",
"813.5 1218 CURVE SMOOTH",
"873.833 1193.33 OFFCURVE",
"928.999 1156 OFFCURVE",
"978.999 1106 CURVE SMOOTH",
"1029 1056 OFFCURVE",
"1066.67 1000.33 OFFCURVE",
"1092 938.999 CURVE SMOOTH",
"1117.33 877.666 OFFCURVE",
"1130 811.666 OFFCURVE",
"1130 740.999 CURVE SMOOTH",
"1130 671 OFFCURVE",
"1117.5 605.833 OFFCURVE",
"1092.5 545.5 CURVE SMOOTH",
"1067.5 485.166 OFFCURVE",
"1029.67 429.666 OFFCURVE",
"978.999 379 CURVE SMOOTH",
"928.333 328.333 OFFCURVE",
"872.833 290.333 OFFCURVE",
"812.5 265 CURVE SMOOTH",
"752.166 239.666 OFFCURVE",
"686.666 227 OFFCURVE",
"616 227 CURVE SMOOTH",
"546 227 OFFCURVE",
"480.833 239.666 OFFCURVE",
"420.5 265 CURVE SMOOTH",
"360.166 290.333 OFFCURVE",
"304.666 328.333 OFFCURVE",
"254 379 CURVE SMOOTH",
"204 429 OFFCURVE",
"166.167 484.5 OFFCURVE",
"140.5 545.5 CURVE SMOOTH",
"114.833 606.5 OFFCURVE",
"102 671.666 OFFCURVE",
"102 740.999 CURVE SMOOTH",
"102 811.666 OFFCURVE",
"114.833 877.666 OFFCURVE",
"140.5 938.999 CURVE SMOOTH",
"166.167 1000.33 OFFCURVE",
"204 1056 OFFCURVE",
"254 1106 CURVE SMOOTH",
"304 1156 OFFCURVE",
"359.166 1193.33 OFFCURVE",
"419.5 1218 CURVE SMOOTH",
"479.833 1242.67 OFFCURVE",
"545.333 1255 OFFCURVE",
"616 1255 CURVE SMOOTH"
);
}
);
width = 1233;
}
);
unicode = 00AE;
},
{
glyphname = macron;
layers = (
{
layerId = "8A8F53B0-DF48-4C43-86E4-F0539724E722";
paths = (
{
closed = 1;
nodes = (
"117 1526 LINE",
"117 1378 LINE",
"1115 1378 LINE",
"1115 1526 LINE"
);
}
);
width = 1233;
}
);
unicode = 00AF;
},
{
glyphname = degree;
layers = (
{
layerId = "8A8F53B0-DF48-4C43-86E4-F0539724E722";
paths = (
{
closed = 1;
nodes = (
"527.333 1520 OFFCURVE",
"452.333 1489 OFFCURVE",
"391 1427 CURVE SMOOTH",
"329.667 1365 OFFCURVE",
"299 1289.33 OFFCURVE",
"299 1200 CURVE SMOOTH",
"299 1110 OFFCURVE",
"329 1035 OFFCURVE",
"389 974.999 CURVE SMOOTH",
"449 915 OFFCURVE",
"524 885 OFFCURVE",
"614 885 CURVE SMOOTH",
"703.333 885 OFFCURVE",
"779 915.5 OFFCURVE",
"841 976.499 CURVE SMOOTH",
"903 1037.5 OFFCURVE",
"934 1112 OFFCURVE",
"934 1200 CURVE SMOOTH",
"934 1244 OFFCURVE",
"926.166 1285 OFFCURVE",
"910.5 1323 CURVE SMOOTH",
"894.833 1361 OFFCURVE",
"872 1395 OFFCURVE",
"842 1425 CURVE SMOOTH",
"812.666 1455.67 OFFCURVE",
"778.5 1479.17 OFFCURVE",
"739.5 1495.5 CURVE SMOOTH",
"700.5 1511.83 OFFCURVE",
"659.333 1520 OFFCURVE",
"616 1520 CURVE SMOOTH"
);
},
{
closed = 1;
nodes = (
"668.666 1391 OFFCURVE",
"713.666 1372.33 OFFCURVE",
"751 1335 CURVE SMOOTH",
"788.333 1297.67 OFFCURVE",
"807 1252.67 OFFCURVE",
"807 1200 CURVE SMOOTH",
"807 1148 OFFCURVE",
"788.166 1103.67 OFFCURVE",
"750.5 1067 CURVE SMOOTH",
"712.833 1030.33 OFFCURVE",
"667.333 1012 OFFCURVE",
"614 1012 CURVE SMOOTH",
"561.333 1012 OFFCURVE",
"516.833 1030 OFFCURVE",
"480.5 1066 CURVE SMOOTH",
"444.166 1102 OFFCURVE",
"426 1146.67 OFFCURVE",
"426 1200 CURVE SMOOTH",
"426 1253.33 OFFCURVE",
"444.5 1298.5 OFFCURVE",
"481.5 1335.5 CURVE SMOOTH",
"518.5 1372.5 OFFCURVE",
"563.333 1391 OFFCURVE",
"616 1391 CURVE SMOOTH"
);
}
);
width = 1233;
}
);
unicode = 00B0;
},
{
glyphname = plusminus;
layers = (
{
layerId = "8A8F53B0-DF48-4C43-86E4-F0539724E722";
paths = (
{
closed = 1;
nodes = (
"88 170 LINE",
"88 0 LINE",
"1145 0 LINE",
"1145 170 LINE"
);
},
{
closed = 1;
nodes = (
"700 1291 LINE",
"532 1291 LINE",
"532 922 LINE",
"88 922 LINE",
"88 752 LINE",
"532 752 LINE",
"532 380 LINE",
"700 380 LINE",
"700 752 LINE",
"1145 752 LINE",
"1145 922 LINE",
"700 922 LINE"
);
}
);
width = 1233;
}
);
unicode = 00B1;
},
{
glyphname = twosuperior;
layers = (
{
layerId = "8A8F53B0-DF48-4C43-86E4-F0539724E722";
paths = (
{
closed = 1;
nodes = (
"483 782 LINE",
"694 986.999 LINE SMOOTH",
"773.333 1065 OFFCURVE",
"825.333 1123.83 OFFCURVE",
"850 1163.5 CURVE SMOOTH",
"874.666 1203.17 OFFCURVE",
"887 1242 OFFCURVE",
"887 1280 CURVE SMOOTH",
"887 1351.33 OFFCURVE",
"858.333 1409.17 OFFCURVE",
"801 1453.5 CURVE SMOOTH",
"743.666 1497.83 OFFCURVE",
"667.666 1520 OFFCURVE",
"573 1520 CURVE SMOOTH",
"533.666 1520 OFFCURVE",
"493.833 1515.33 OFFCURVE",
"453.5 1506 CURVE SMOOTH",
"413.166 1496.67 OFFCURVE",
"371.333 1482.67 OFFCURVE",
"328 1464 CURVE",
"328 1339 LINE",
"370 1363 OFFCURVE",
"409.833 1381 OFFCURVE",
"447.5 1393 CURVE SMOOTH",
"485.166 1405 OFFCURVE",
"520.333 1411 OFFCURVE",
"553 1411 CURVE SMOOTH",
"607.666 1411 OFFCURVE",
"651.666 1398.33 OFFCURVE",
"685 1373 CURVE SMOOTH",
"718.333 1347.67 OFFCURVE",
"735 1314.67 OFFCURVE",
"735 1274 CURVE SMOOTH",
"735 1240 OFFCURVE",
"721.5 1202.67 OFFCURVE",
"694.5 1162 CURVE SMOOTH",
"667.5 1121.33 OFFCURVE",
"620.333 1068.67 OFFCURVE",
"553 1004 CURVE SMOOTH",
"322 778 LINE",
"322 668 LINE",
"893 668 LINE",
"893 782 LINE"
);
}
);
width = 1233;
}
);
unicode = 00B2;
},
{
glyphname = threesuperior;
layers = (
{
layerId = "8A8F53B0-DF48-4C43-86E4-F0539724E722";
paths = (
{
closed = 1;
nodes = (
"787 1132.67 OFFCURVE",
"829.666 1154.5 OFFCURVE",
"859 1185.5 CURVE SMOOTH",
"888.333 1216.5 OFFCURVE",
"903 1255.67 OFFCURVE",
"903 1303 CURVE SMOOTH",
"903 1369 OFFCURVE",
"875 1421.67 OFFCURVE",
"819 1461 CURVE SMOOTH",
"763 1500.33 OFFCURVE",
"686.666 1520 OFFCURVE",
"590 1520 CURVE SMOOTH",
"556.666 1520 OFFCURVE",
"520.5 1517 OFFCURVE",
"481.5 1511 CURVE SMOOTH",
"442.5 1505 OFFCURVE",
"400 1496.33 OFFCURVE",
"354 1485 CURVE",
"354 1364 LINE",
"393.333 1379.33 OFFCURVE",
"431.666 1391 OFFCURVE",
"469 1399 CURVE SMOOTH",
"506.333 1407 OFFCURVE",
"539.666 1411 OFFCURVE",
"569 1411 CURVE SMOOTH",
"627 1411 OFFCURVE",
"672 1400.5 OFFCURVE",
"704 1379.5 CURVE SMOOTH",
"736 1358.5 OFFCURVE",
"752 1329.33 OFFCURVE",
"752 1292 CURVE SMOOTH",
"752 1252 OFFCURVE",
"735.666 1221.5 OFFCURVE",
"703 1200.5 CURVE SMOOTH",
"670.333 1179.5 OFFCURVE",
"623 1169 OFFCURVE",
"561 1169 CURVE SMOOTH",
"487 1169 LINE",
"487 1061 LINE",
"553 1061 LINE SMOOTH",
"625.666 1061 OFFCURVE",
"680.333 1048.33 OFFCURVE",
"717 1023 CURVE SMOOTH",
"753.666 997.666 OFFCURVE",
"772 960.333 OFFCURVE",
"772 911 CURVE SMOOTH",
"772 865.666 OFFCURVE",
"752.333 829.5 OFFCURVE",
"713 802.5 CURVE SMOOTH",
"673.666 775.5 OFFCURVE",
"620.333 762 OFFCURVE",
"553 762 CURVE SMOOTH",
"523 762 OFFCURVE",
"489.166 766.333 OFFCURVE",
"451.5 775 CURVE SMOOTH",
"413.833 783.666 OFFCURVE",
"372 797 OFFCURVE",
"326 815 CURVE",
"326 694 LINE",
"365.333 680.666 OFFCURVE",
"404 670.5 OFFCURVE",
"442 663.5 CURVE SMOOTH",
"480 656.5 OFFCURVE",
"518.333 653 OFFCURVE",
"557 653 CURVE SMOOTH",
"675 653 OFFCURVE",
"765.666 675.333 OFFCURVE",
"829 720 CURVE SMOOTH",
"892.333 764.666 OFFCURVE",
"923.999 828.333 OFFCURVE",
"923.999 911 CURVE SMOOTH",
"923.999 964.333 OFFCURVE",
"907.499 1009 OFFCURVE",
"874.499 1045 CURVE SMOOTH",
"841.5 1081 OFFCURVE",
"793.666 1106 OFFCURVE",
"731 1120 CURVE"
);
}
);
width = 1233;
}
);
unicode = 00B3;
},
{
glyphname = acute;
layers = (
{
layerId = "8A8F53B0-DF48-4C43-86E4-F0539724E722";
paths = (
{
closed = 1;
nodes = (
"756 1638 LINE",
"475 1262 LINE",
"629 1262 LINE",
"954 1638 LINE"
);
}
);
width = 1233;
}
);
unicode = 00B4;
},
{
glyphname = mu;
layers = (
{
layerId = "8A8F53B0-DF48-4C43-86E4-F0539724E722";
paths = (
{
closed = 1;
nodes = (
"195 -428 LINE",
"362 -428 LINE",
"362 127 LINE",
"391.333 73.667 OFFCURVE",
"427.166 34.333 OFFCURVE",
"469.5 9 CURVE SMOOTH",
"511.833 -16.333 OFFCURVE",
"563.666 -29 OFFCURVE",
"625 -29 CURVE SMOOTH",
"684.333 -29 OFFCURVE",
"736.166 -16 OFFCURVE",
"780.5 10 CURVE SMOOTH",
"824.833 36 OFFCURVE",
"862.333 75.667 OFFCURVE",
"892.999 129 CURVE",
"900.999 76.333 OFFCURVE",
"917.499 36.833 OFFCURVE",
"942.499 10.5 CURVE SMOOTH",
"967.499 -15.833 OFFCURVE",
"1000.67 -29 OFFCURVE",
"1042 -29 CURVE SMOOTH",
"1064.67 -29 OFFCURVE",
"1087.33 -25.333 OFFCURVE",
"1110 -18 CURVE SMOOTH",
"1132.67 -10.667 OFFCURVE",
"1156.67 0.667 OFFCURVE",
"1182 16 CURVE",
"1182 164 LINE",
"1163.33 155.333 OFFCURVE",
"1149.17 149.333 OFFCURVE",
"1139.5 146 CURVE SMOOTH",
"1129.83 142.667 OFFCURVE",
"1122 141 OFFCURVE",
"1116 141 CURVE SMOOTH",
"1094 141 OFFCURVE",
"1077.67 150.333 OFFCURVE",
"1067 169 CURVE SMOOTH",
"1056.33 187.667 OFFCURVE",
"1051 216.667 OFFCURVE",
"1051 256 CURVE SMOOTH",
"1051 1120 LINE",
"866 1120 LINE",
"866 467 LINE SMOOTH",
"866 356.333 OFFCURVE",
"844.5 272.667 OFFCURVE",
"801.5 216 CURVE SMOOTH",
"758.5 159.333 OFFCURVE",
"694.666 131 OFFCURVE",
"610 131 CURVE SMOOTH",
"536 131 OFFCURVE",
"479 156.167 OFFCURVE",
"439 206.5 CURVE SMOOTH",
"399 256.833 OFFCURVE",
"379 329.333 OFFCURVE",
"379 424 CURVE SMOOTH",
"379 1120 LINE",
"195 1120 LINE"
);
}
);
width = 1233;
}
);
unicode = 00B5;
},
{
glyphname = paragraph;
layers = (
{
layerId = "8A8F53B0-DF48-4C43-86E4-F0539724E722";
paths = (
{
closed = 1;
nodes = (
"582 1493 LINE SMOOTH",
"438.666 1493 OFFCURVE",
"323.5 1454.33 OFFCURVE",
"236.5 1377 CURVE SMOOTH",
"149.5 1299.67 OFFCURVE",
"106 1197.67 OFFCURVE",
"106 1071 CURVE SMOOTH",
"106 948.333 OFFCURVE",
"145.333 850.166 OFFCURVE",
"224 776.5 CURVE SMOOTH",
"302.667 702.833 OFFCURVE",
"413.666 660.333 OFFCURVE",
"557 649 CURVE",
"557 -197 LINE",
"698 -197 LINE",
"698 1370 LINE",
"889 1370 LINE",
"889 -197 LINE",
"1030 -197 LINE",
"1030 1493 LINE"
);
}
);
width = 1233;
}
);
unicode = 00B6;
},
{
glyphname = periodcentered;
layers = (
{
layerId = "8A8F53B0-DF48-4C43-86E4-F0539724E722";
paths = (
{
closed = 1;
nodes = (
"489 864 LINE",
"489 559 LINE",
"741 559 LINE",
"741 864 LINE"
);
}
);
width = 1233;
}
);
unicode = 00B7;
},
{
glyphname = cedilla;
layers = (
{
layerId = "8A8F53B0-DF48-4C43-86E4-F0539724E722";
paths = (
{
closed = 1;
nodes = (
"582 0 LINE",
"611.333 -40.667 OFFCURVE",
"633.333 -75.5 OFFCURVE",
"648 -104.5 CURVE SMOOTH",
"662.666 -133.5 OFFCURVE",
"670 -158 OFFCURVE",
"670 -178 CURVE SMOOTH",
"670 -208.667 OFFCURVE",
"659.833 -232 OFFCURVE",
"639.5 -248 CURVE SMOOTH",
"619.166 -264 OFFCURVE",
"589.666 -272 OFFCURVE",
"551 -272 CURVE SMOOTH",
"519.666 -272 OFFCURVE",
"491.5 -269.5 OFFCURVE",
"466.5 -264.5 CURVE SMOOTH",
"441.5 -259.5 OFFCURVE",
"417.666 -251.333 OFFCURVE",
"395 -240 CURVE",
"395 -371 LINE",
"424.333 -379 OFFCURVE",
"453.5 -385 OFFCURVE",
"482.5 -389 CURVE SMOOTH",
"511.5 -393 OFFCURVE",
"541 -395 OFFCURVE",
"571 -395 CURVE SMOOTH",
"649.666 -395 OFFCURVE",
"709 -379.833 OFFCURVE",
"749 -349.5 CURVE SMOOTH",
"789 -319.167 OFFCURVE",
"809 -274.333 OFFCURVE",
"809 -215 CURVE SMOOTH",
"809 -183 OFFCURVE",
"800.166 -149.5 OFFCURVE",
"782.5 -114.5 CURVE SMOOTH",
"764.833 -79.5 OFFCURVE",
"737.333 -41.333 OFFCURVE",
"700 0 CURVE"
);
}
);
width = 1233;
}
);
unicode = 00B8;
},
{
glyphname = onesuperior;
layers = (
{
layerId = "8A8F53B0-DF48-4C43-86E4-F0539724E722";
paths = (
{
closed = 1;
nodes = (
"362 778 LINE",
"362 668 LINE",
"915 668 LINE",
"915 778 LINE",
"711 778 LINE",
"711 1503 LINE",
"573 1503 LINE",
"344 1464 LINE",
"344 1348 LINE",
"567 1389 LINE",
"567 778 LINE"
);
}
);
width = 1233;
}
);
unicode = 00B9;
},
{
glyphname = ordmasculine;
layers = (
{
layerId = "8A8F53B0-DF48-4C43-86E4-F0539724E722";
paths = (
{
closed = 1;
nodes = (
"684.666 1403 OFFCURVE",
"738.166 1377 OFFCURVE",
"776.5 1325 CURVE SMOOTH",
"814.833 1273 OFFCURVE",
"834 1200.67 OFFCURVE",
"834 1108 CURVE SMOOTH",
"834 1017.33 OFFCURVE",
"814.5 945.833 OFFCURVE",
"775.5 893.5 CURVE SMOOTH",
"736.5 841.166 OFFCURVE",
"683.333 815 OFFCURVE",
"616 815 CURVE SMOOTH",
"548 815 OFFCURVE",
"494.833 840.666 OFFCURVE",
"456.5 892 CURVE SMOOTH",
"418.166 943.333 OFFCURVE",
"399 1015.33 OFFCURVE",
"399 1108 CURVE SMOOTH",
"399 1200.67 OFFCURVE",
"418.166 1273 OFFCURVE",
"456.5 1325 CURVE SMOOTH",
"494.833 1377 OFFCURVE",
"548 1403 OFFCURVE",
"616 1403 CURVE SMOOTH"
);
},
{
closed = 1;
nodes = (
"503.333 1520 OFFCURVE",
"413.166 1482.67 OFFCURVE",
"345.5 1408 CURVE SMOOTH",
"277.833 1333.33 OFFCURVE",
"244 1233.33 OFFCURVE",
"244 1108 CURVE SMOOTH",
"244 983.333 OFFCURVE",
"277.667 883.833 OFFCURVE",
"345 809.5 CURVE SMOOTH",
"412.333 735.166 OFFCURVE",
"502.666 698 OFFCURVE",
"616 698 CURVE SMOOTH",
"730 698 OFFCURVE",
"820.666 735.166 OFFCURVE",
"888 809.5 CURVE SMOOTH",
"955.333 883.833 OFFCURVE",
"988.999 983.333 OFFCURVE",
"988.999 1108 CURVE SMOOTH",
"988.999 1233.33 OFFCURVE",
"955.166 1333.33 OFFCURVE",
"887.5 1408 CURVE SMOOTH",
"819.833 1482.67 OFFCURVE",
"729.333 1520 OFFCURVE",
"616 1520 CURVE SMOOTH"
);
},
{
closed = 1;
nodes = (
"276 592 LINE",
"276 469 LINE",
"952 469 LINE",
"952 592 LINE"
);
}
);
width = 1233;
}
);
unicode = 00BA;
},
{
glyphname = guillemotright;
layers = (
{
layerId = "8A8F53B0-DF48-4C43-86E4-F0539724E722";
paths = (
{
closed = 1;
nodes = (
"647 1059 LINE",
"647 868 LINE",
"948 600 LINE",
"647 332 LINE",
"647 141 LINE",
"1116 559 LINE",
"1116 641 LINE"
);
},
{
closed = 1;
nodes = (
"193 1059 LINE",
"193 868 LINE",
"494 600 LINE",
"193 332 LINE",
"193 141 LINE",
"662 559 LINE",
"662 641 LINE"
);
}
);
width = 1233;
}
);
unicode = 00BB;
},
{
glyphname = onequarter;
layers = (
{
layerId = "8A8F53B0-DF48-4C43-86E4-F0539724E722";
paths = (
{
closed = 1;
nodes = (
"815 566 LINE",
"452 38 LINE",
"452 -83 LINE",
"839 -83 LINE",
"839 -269 LINE",
"976.999 -269 LINE",
"976.999 -83 LINE",
"1093 -83 LINE",
"1093 28 LINE",
"976.999 28 LINE",
"976.999 566 LINE"
);
},
{
closed = 1;
nodes = (
"839 441 LINE",
"839 28 LINE",
"565 28 LINE"
);
},
{
closed = 1;
nodes = (
"105 934 LINE",
"105 824 LINE",
"658 824 LINE",
"658 934 LINE",
"454 934 LINE",
"454 1659 LINE",
"316 1659 LINE",
"87 1620 LINE",
"87 1504 LINE",
"310 1545 LINE",
"310 934 LINE"
);
},
{
closed = 1;
nodes = (
"51 504 LINE",
"1114 766 LINE",
"1087 874 LINE",
"27 612 LINE"
);
}
);
width = 1233;
}
);
unicode = 00BC;
},
{
glyphname = onehalf;
layers = (
{
layerId = "8A8F53B0-DF48-4C43-86E4-F0539724E722";
paths = (
{
closed = 1;
nodes = (
"105 934 LINE",
"105 824 LINE",
"658 824 LINE",
"658 934 LINE",
"454 934 LINE",
"454 1659 LINE",
"316 1659 LINE",
"87 1620 LINE",
"87 1504 LINE",
"310 1545 LINE",
"310 934 LINE"
);
},
{
closed = 1;
nodes = (
"51 504 LINE",
"1114 766 LINE",
"1087 874 LINE",
"27 612 LINE"
);
},
{
closed = 1;
nodes = (
"684 -155 LINE",
"895 50 LINE SMOOTH",
"974.333 128 OFFCURVE",
"1026.33 186.833 OFFCURVE",
"1051 226.5 CURVE SMOOTH",
"1075.67 266.167 OFFCURVE",
"1088 305 OFFCURVE",
"1088 343 CURVE SMOOTH",
"1088 414.333 OFFCURVE",
"1059.33 472.166 OFFCURVE",
"1002 516.5 CURVE SMOOTH",
"944.666 560.833 OFFCURVE",
"868.666 583 OFFCURVE",
"774 583 CURVE SMOOTH",
"734.666 583 OFFCURVE",
"694.833 578.333 OFFCURVE",
"654.5 569 CURVE SMOOTH",
"614.166 559.666 OFFCURVE",
"572.333 545.666 OFFCURVE",
"529 527 CURVE",
"529 402 LINE",
"571 426 OFFCURVE",
"610.833 444 OFFCURVE",
"648.5 456 CURVE SMOOTH",
"686.166 468 OFFCURVE",
"721.333 474 OFFCURVE",
"754 474 CURVE SMOOTH",
"808.666 474 OFFCURVE",
"852.666 461.333 OFFCURVE",
"885.999 436 CURVE SMOOTH",
"919.333 410.666 OFFCURVE",
"935.999 377.666 OFFCURVE",
"935.999 337 CURVE SMOOTH",
"935.999 303 OFFCURVE",
"922.499 265.667 OFFCURVE",
"895.499 225 CURVE SMOOTH",
"868.499 184.333 OFFCURVE",
"821.333 131.667 OFFCURVE",
"754 67 CURVE SMOOTH",
"523 -159 LINE",
"523 -269 LINE",
"1094 -269 LINE",
"1094 -155 LINE"
);
}
);
width = 1233;
}
);
unicode = 00BD;
},
{
glyphname = threequarters;
layers = (
{
layerId = "8A8F53B0-DF48-4C43-86E4-F0539724E722";
paths = (
{
closed = 1;
nodes = (
"815 566 LINE",
"452 38 LINE",
"452 -83 LINE",
"839 -83 LINE",
"839 -269 LINE",
"976.999 -269 LINE",
"976.999 -83 LINE",
"1093 -83 LINE",
"1093 28 LINE",
"976.999 28 LINE",
"976.999 566 LINE"
);
},
{
closed = 1;
nodes = (
"839 441 LINE",
"839 28 LINE",
"565 28 LINE"
);
},
{
closed = 1;
nodes = (
"561 1288.67 OFFCURVE",
"603.666 1310.5 OFFCURVE",
"633 1341.5 CURVE SMOOTH",
"662.333 1372.5 OFFCURVE",
"677 1411.67 OFFCURVE",
"677 1459 CURVE SMOOTH",
"677 1525 OFFCURVE",
"649 1577.67 OFFCURVE",
"593 1617 CURVE SMOOTH",
"537 1656.33 OFFCURVE",
"460.666 1676 OFFCURVE",
"364 1676 CURVE SMOOTH",
"330.667 1676 OFFCURVE",
"294.5 1673 OFFCURVE",
"255.5 1667 CURVE SMOOTH",
"216.5 1661 OFFCURVE",
"174 1652.33 OFFCURVE",
"128 1641 CURVE",
"128 1520 LINE",
"167.333 1535.33 OFFCURVE",
"205.667 1547 OFFCURVE",
"243 1555 CURVE SMOOTH",
"280.333 1563 OFFCURVE",
"313.666 1567 OFFCURVE",
"343 1567 CURVE SMOOTH",
"401 1567 OFFCURVE",
"446 1556.5 OFFCURVE",
"478 1535.5 CURVE SMOOTH",
"510 1514.5 OFFCURVE",
"526 1485.33 OFFCURVE",
"526 1448 CURVE SMOOTH",
"526 1408 OFFCURVE",
"509.666 1377.5 OFFCURVE",
"477 1356.5 CURVE SMOOTH",
"444.333 1335.5 OFFCURVE",
"397 1325 OFFCURVE",
"335 1325 CURVE SMOOTH",
"261 1325 LINE",
"261 1217 LINE",
"327 1217 LINE SMOOTH",
"399.666 1217 OFFCURVE",
"454.333 1204.33 OFFCURVE",
"491 1179 CURVE SMOOTH",
"527.666 1153.67 OFFCURVE",
"546 1116.33 OFFCURVE",
"546 1067 CURVE SMOOTH",
"546 1021.67 OFFCURVE",
"526.333 985.499 OFFCURVE",
"487 958.499 CURVE SMOOTH",
"447.666 931.499 OFFCURVE",
"394.333 917.999 OFFCURVE",
"327 917.999 CURVE SMOOTH",
"297 917.999 OFFCURVE",
"263.167 922.333 OFFCURVE",
"225.5 930.999 CURVE SMOOTH",
"187.833 939.666 OFFCURVE",
"146 952.999 OFFCURVE",
"100 970.999 CURVE",
"100 849.999 LINE",
"139.333 836.666 OFFCURVE",
"178 826.499 OFFCURVE",
"216 819.499 CURVE SMOOTH",
"254 812.499 OFFCURVE",
"292.333 808.999 OFFCURVE",
"331 808.999 CURVE SMOOTH",
"449 808.999 OFFCURVE",
"539.666 831.333 OFFCURVE",
"603 875.999 CURVE SMOOTH",
"666.333 920.666 OFFCURVE",
"698 984.333 OFFCURVE",
"698 1067 CURVE SMOOTH",
"698 1120.33 OFFCURVE",
"681.5 1165 OFFCURVE",
"648.5 1201 CURVE SMOOTH",
"615.5 1237 OFFCURVE",
"567.666 1262 OFFCURVE",
"505 1276 CURVE"
);
},
{
closed = 1;
nodes = (
"51 504 LINE",
"1114 765.999 LINE",
"1087 873.999 LINE",
"27 612 LINE"
);
}
);
width = 1233;
}
);
unicode = 00BE;
},
{
glyphname = questiondown;
layers = (
{
layerId = "8A8F53B0-DF48-4C43-86E4-F0539724E722";
paths = (
{
closed = 1;
nodes = (
"549 1092 LINE",
"549 968.999 LINE SMOOTH",
"549 956.333 OFFCURVE",
"548.333 942.333 OFFCURVE",
"547 927 CURVE",
"547 922 LINE SMOOTH",
"547 880 OFFCURVE",
"540.666 845 OFFCURVE",
"528 817 CURVE SMOOTH",
"515.333 789 OFFCURVE",
"486.666 753.666 OFFCURVE",
"442 711 CURVE SMOOTH",
"354 625 LINE SMOOTH",
"291.333 563.666 OFFCURVE",
"248.833 511.166 OFFCURVE",
"226.5 467.5 CURVE SMOOTH",
"204.167 423.833 OFFCURVE",
"193 376.666 OFFCURVE",
"193 326 CURVE SMOOTH",
"193 218.667 OFFCURVE",
"229.833 133 OFFCURVE",
"303.5 69 CURVE SMOOTH",
"377.166 5 OFFCURVE",
"476 -27 OFFCURVE",
"600 -27 CURVE SMOOTH",
"669.333 -27 OFFCURVE",
"735.833 -17.667 OFFCURVE",
"799.5 1 CURVE SMOOTH",
"863.166 19.667 OFFCURVE",
"926.333 48 OFFCURVE",
"989 86 CURVE",
"989 274 LINE",
"923.666 228.667 OFFCURVE",
"861.333 194.5 OFFCURVE",
"802 171.5 CURVE SMOOTH",
"742.666 148.5 OFFCURVE",
"687 137 OFFCURVE",
"635 137 CURVE SMOOTH",
"562.333 137 OFFCURVE",
"504.166 155.333 OFFCURVE",
"460.5 192 CURVE SMOOTH",
"416.833 228.667 OFFCURVE",
"395 276.667 OFFCURVE",
"395 336 CURVE SMOOTH",
"395 368.667 OFFCURVE",
"402.833 399.666 OFFCURVE",
"418.5 429 CURVE SMOOTH",
"434.167 458.333 OFFCURVE",
"462.667 492.666 OFFCURVE",
"504 532 CURVE SMOOTH",
"594 621 LINE SMOOTH",
"650 675.666 OFFCURVE",
"688.166 725.833 OFFCURVE",
"708.5 771.5 CURVE SMOOTH",
"728.833 817.166 OFFCURVE",
"739 872.666 OFFCURVE",
"739 938 CURVE SMOOTH",
"739 1092 LINE"
);
},
{
closed = 1;
nodes = (
"745 1239 LINE",
"745 1493 LINE",
"543 1493 LINE",
"543 1239 LINE"
);
}
);
width = 1233;
}
);
unicode = 00BF;
},
{
glyphname = Agrave;
layers = (
{
layerId = "8A8F53B0-DF48-4C43-86E4-F0539724E722";
paths = (
{
closed = 1;
nodes = (
"616 1315 LINE",
"829 551 LINE",
"403 551 LINE"
);
},
{
closed = 1;
nodes = (
"494 1493 LINE",
"37 0 LINE",
"246 0 LINE",
"354 389 LINE",
"877 389 LINE",
"986.999 0 LINE",
"1196 0 LINE",
"739 1493 LINE"
);
},
{
closed = 1;
nodes = (
"561 1899 LINE",
"377 1899 LINE",
"604 1635 LINE",
"758 1635 LINE"
);
}
);
width = 1233;
}
);
unicode = 00C0;
},
{
glyphname = Aacute;
layers = (
{
layerId = "8A8F53B0-DF48-4C43-86E4-F0539724E722";
paths = (
{
closed = 1;
nodes = (
"616 1315 LINE",
"829 551 LINE",
"403 551 LINE"
);
},
{
closed = 1;
nodes = (
"494 1493 LINE",
"37 0 LINE",
"246 0 LINE",
"354 389 LINE",
"877 389 LINE",
"986.999 0 LINE",
"1196 0 LINE",
"739 1493 LINE"
);
},
{
closed = 1;
nodes = (
"672 1899 LINE",
"475 1635 LINE",
"629 1635 LINE",
"858 1899 LINE"
);
}
);
width = 1233;
}
);
unicode = 00C1;
},
{
glyphname = Acircumflex;
layers = (
{
layerId = "8A8F53B0-DF48-4C43-86E4-F0539724E722";
paths = (
{
closed = 1;
nodes = (
"616 1315 LINE",
"829 551 LINE",
"403 551 LINE"
);
},
{
closed = 1;
nodes = (
"494 1493 LINE",
"37 0 LINE",
"246 0 LINE",
"354 389 LINE",
"877 389 LINE",
"986.999 0 LINE",
"1196 0 LINE",
"739 1493 LINE"
);
},
{
closed = 1;
nodes = (
"522 1901 LINE",
"311 1635 LINE",
"451 1635 LINE",
"616 1813 LINE",
"782 1635 LINE",
"922 1635 LINE",
"711 1901 LINE"
);
}
);
width = 1233;
}
);
unicode = 00C2;
},
{
glyphname = Atilde;
layers = (
{
layerId = "8A8F53B0-DF48-4C43-86E4-F0539724E722";
paths = (
{
closed = 1;
nodes = (
"616 1315 LINE",
"829 551 LINE",
"403 551 LINE"
);
},
{
closed = 1;
nodes = (
"494 1493 LINE",
"37 0 LINE",
"246 0 LINE",
"354 389 LINE",
"877 389 LINE",
"986.999 0 LINE",
"1196 0 LINE",
"739 1493 LINE"
);
},
{
closed = 1;
nodes = (
"612 1710 LINE",
"646.666 1692 OFFCURVE",
"674 1680.33 OFFCURVE",
"694 1675 CURVE SMOOTH",
"714 1669.67 OFFCURVE",
"735.333 1667 OFFCURVE",
"758 1667 CURVE SMOOTH",
"814 1667 OFFCURVE",
"859 1686.83 OFFCURVE",
"893 1726.5 CURVE SMOOTH",
"927 1766.17 OFFCURVE",
"944.666 1819.33 OFFCURVE",
"946 1886 CURVE",
"821 1886 LINE",
"821 1880 LINE SMOOTH",
"821 1852.67 OFFCURVE",
"814.333 1830.5 OFFCURVE",
"801 1813.5 CURVE SMOOTH",
"787.666 1796.5 OFFCURVE",
"770.666 1788 OFFCURVE",
"750 1788 CURVE SMOOTH",
"740 1788 OFFCURVE",
"729.166 1790 OFFCURVE",
"717.5 1794 CURVE SMOOTH",
"705.833 1798 OFFCURVE",
"692.666 1804.33 OFFCURVE",
"678 1813 CURVE",
"621 1843 LINE SMOOTH",
"588.333 1861 OFFCURVE",
"561.833 1872.67 OFFCURVE",
"541.5 1878 CURVE SMOOTH",
"521.166 1883.33 OFFCURVE",
"499 1886 OFFCURVE",
"475 1886 CURVE SMOOTH",
"418.333 1886 OFFCURVE",
"372.833 1866.33 OFFCURVE",
"338.5 1827 CURVE SMOOTH",
"304.166 1787.67 OFFCURVE",
"287 1734.33 OFFCURVE",
"287 1667 CURVE",
"412 1667 LINE",
"412 1673 LINE SMOOTH",
"412 1703 OFFCURVE",
"418.666 1726.33 OFFCURVE",
"432 1743 CURVE SMOOTH",
"445.333 1759.67 OFFCURVE",
"463.666 1768 OFFCURVE",
"487 1768 CURVE SMOOTH",
"495 1768 OFFCURVE",
"504.166 1766.17 OFFCURVE",
"514.5 1762.5 CURVE SMOOTH",
"524.833 1758.83 OFFCURVE",
"538.333 1752.33 OFFCURVE",
"555 1743 CURVE SMOOTH"
);
}
);
width = 1233;
}
);
unicode = 00C3;
},
{
glyphname = Adieresis;
layers = (
{
layerId = "8A8F53B0-DF48-4C43-86E4-F0539724E722";
paths = (
{
closed = 1;
nodes = (
"616 1315 LINE",
"829 551 LINE",
"403 551 LINE"
);
},
{
closed = 1;
nodes = (
"494 1493 LINE",
"37 0 LINE",
"246 0 LINE",
"354 389 LINE",
"877 389 LINE",
"986.999 0 LINE",
"1196 0 LINE",
"739 1493 LINE"
);
},
{
closed = 1;
nodes = (
"319 1870 LINE",
"319 1667 LINE",
"522 1667 LINE",
"522 1870 LINE"
);
},
{
closed = 1;
nodes = (
"711 1870 LINE",
"711 1667 LINE",
"913 1667 LINE",
"913 1870 LINE"
);
}
);
width = 1233;
}
);
unicode = 00C4;
},
{
glyphname = Aring;
layers = (
{
layerId = "8A8F53B0-DF48-4C43-86E4-F0539724E722";
paths = (
{
closed = 1;
nodes = (
"768 1584 OFFCURVE",
"753.166 1548.33 OFFCURVE",
"723.5 1519 CURVE SMOOTH",
"693.833 1489.67 OFFCURVE",
"658 1475 OFFCURVE",
"616 1475 CURVE SMOOTH",
"574 1475 OFFCURVE",
"538.333 1489.67 OFFCURVE",
"509 1519 CURVE SMOOTH",
"479.666 1548.33 OFFCURVE",
"465 1584 OFFCURVE",
"465 1626 CURVE SMOOTH",
"465 1669.33 OFFCURVE",
"479.5 1705.5 OFFCURVE",
"508.5 1734.5 CURVE SMOOTH",
"537.5 1763.5 OFFCURVE",
"573.333 1778 OFFCURVE",
"616 1778 CURVE SMOOTH",
"658 1778 OFFCURVE",
"693.833 1763.17 OFFCURVE",
"723.5 1733.5 CURVE SMOOTH",
"753.166 1703.83 OFFCURVE",
"768 1668 OFFCURVE",
"768 1626 CURVE SMOOTH"
);
},
{
closed = 1;
nodes = (
"616 1311 LINE",
"829 551 LINE",
"403 551 LINE"
);
},
{
closed = 1;
nodes = (
"37 0 LINE",
"246 0 LINE",
"354 389 LINE",
"877 389 LINE",
"986.999 0 LINE",
"1196 0 LINE",
"768 1399 LINE",
"807.333 1423 OFFCURVE",
"837.666 1454.67 OFFCURVE",
"858.999 1494 CURVE SMOOTH",
"880.333 1533.33 OFFCURVE",
"890.999 1577.33 OFFCURVE",
"890.999 1626 CURVE SMOOTH",
"890.999 1702 OFFCURVE",
"864.166 1766.83 OFFCURVE",
"810.5 1820.5 CURVE SMOOTH",
"756.833 1874.17 OFFCURVE",
"692 1901 OFFCURVE",
"616 1901 CURVE SMOOTH",
"540 1901 OFFCURVE",
"475.333 1874.17 OFFCURVE",
"422 1820.5 CURVE SMOOTH",
"368.666 1766.83 OFFCURVE",
"342 1702 OFFCURVE",
"342 1626 CURVE SMOOTH",
"342 1577.33 OFFCURVE",
"352.833 1532.83 OFFCURVE",
"374.5 1492.5 CURVE SMOOTH",
"396.166 1452.17 OFFCURVE",
"426.333 1421 OFFCURVE",
"465 1399 CURVE"
);
}
);
width = 1233;
}
);
unicode = 00C5;
},
{
glyphname = AE;
layers = (
{
layerId = "8A8F53B0-DF48-4C43-86E4-F0539724E722";
paths = (
{
closed = 1;
nodes = (
"1161 1493 LINE",
"410 1493 LINE",
"0 0 LINE",
"184 0 LINE",
"285 383 LINE",
"637 383 LINE",
"637 0 LINE",
"1180 0 LINE",
"1180 170 LINE",
"823 170 LINE",
"823 711 LINE",
"1130 711 LINE",
"1130 881 LINE",
"823 881 LINE",
"823 1323 LINE",
"1161 1323 LINE"
);
},
{
closed = 1;
nodes = (
"530 1323 LINE",
"637 1323 LINE",
"637 551 LINE",
"328 551 LINE"
);
}
);
width = 1233;
}
);
unicode = 00C6;
},
{
glyphname = Ccedilla;
layers = (
{
layerId = "8A8F53B0-DF48-4C43-86E4-F0539724E722";
paths = (
{
closed = 1;
nodes = (
"682 0 LINE",
"711.333 -40.667 OFFCURVE",
"733.333 -75.5 OFFCURVE",
"748 -104.5 CURVE SMOOTH",
"762.666 -133.5 OFFCURVE",
"770 -158 OFFCURVE",
"770 -178 CURVE SMOOTH",
"770 -208.667 OFFCURVE",
"759.833 -232 OFFCURVE",
"739.5 -248 CURVE SMOOTH",
"719.166 -264 OFFCURVE",
"689.666 -272 OFFCURVE",
"651 -272 CURVE SMOOTH",
"619.666 -272 OFFCURVE",
"591.5 -269.5 OFFCURVE",
"566.5 -264.5 CURVE SMOOTH",
"541.5 -259.5 OFFCURVE",
"517.666 -251.333 OFFCURVE",
"495 -240 CURVE",
"495 -371 LINE",
"524.333 -379 OFFCURVE",
"553.5 -385 OFFCURVE",
"582.5 -389 CURVE SMOOTH",
"611.5 -393 OFFCURVE",
"641 -395 OFFCURVE",
"671 -395 CURVE SMOOTH",
"749.666 -395 OFFCURVE",
"809 -379.833 OFFCURVE",
"849 -349.5 CURVE SMOOTH",
"889 -319.167 OFFCURVE",
"909 -274.333 OFFCURVE",
"909 -215 CURVE SMOOTH",
"909 -183 OFFCURVE",
"900.166 -149.5 OFFCURVE",
"882.5 -114.5 CURVE SMOOTH",
"864.833 -79.5 OFFCURVE",
"837.333 -41.333 OFFCURVE",
"800 0 CURVE"
);
},
{
closed = 1;
nodes = (
"1073 260 LINE",
"1024.33 219.333 OFFCURVE",
"971.833 188.333 OFFCURVE",
"915.5 167 CURVE SMOOTH",
"859.166 145.667 OFFCURVE",
"801.666 135 OFFCURVE",
"743 135 CURVE SMOOTH",
"611.666 135 OFFCURVE",
"513.333 185.667 OFFCURVE",
"448 287 CURVE SMOOTH",
"382.667 388.333 OFFCURVE",
"350 541 OFFCURVE",
"350 745 CURVE SMOOTH",
"350 949.666 OFFCURVE",
"382.667 1102.67 OFFCURVE",
"448 1204 CURVE SMOOTH",
"513.333 1305.33 OFFCURVE",
"611.666 1356 OFFCURVE",
"743 1356 CURVE SMOOTH",
"800.333 1356 OFFCURVE",
"857.333 1345.33 OFFCURVE",
"914 1324 CURVE SMOOTH",
"970.666 1302.67 OFFCURVE",
"1023.67 1271.67 OFFCURVE",
"1073 1231 CURVE",
"1073 1438 LINE",
"1021.67 1465.33 OFFCURVE",
"969 1485.83 OFFCURVE",
"915 1499.5 CURVE SMOOTH",
"861 1513.17 OFFCURVE",
"803.666 1520 OFFCURVE",
"743 1520 CURVE SMOOTH",
"553 1520 OFFCURVE",
"404.833 1451.83 OFFCURVE",
"298.5 1315.5 CURVE SMOOTH",
"192.167 1179.17 OFFCURVE",
"139 989 OFFCURVE",
"139 745 CURVE SMOOTH",
"139 499.666 OFFCURVE",
"191.833 309.333 OFFCURVE",
"297.5 174 CURVE SMOOTH",
"403.167 38.667 OFFCURVE",
"551.667 -29 OFFCURVE",
"743 -29 CURVE SMOOTH",
"803.666 -29 OFFCURVE",
"861 -22.167 OFFCURVE",
"915 -8.5 CURVE SMOOTH",
"969 5.167 OFFCURVE",
"1021.67 25.667 OFFCURVE",
"1073 53 CURVE"
);
}
);
width = 1233;
}
);
unicode = 00C7;
},
{
glyphname = Egrave;
layers = (
{
layerId = "8A8F53B0-DF48-4C43-86E4-F0539724E722";
paths = (
{
closed = 1;
nodes = (
"197 1493 LINE",
"197 0 LINE",
"1102 0 LINE",
"1102 170 LINE",
"399 170 LINE",
"399 751 LINE",
"1053 751 LINE",
"1053 921 LINE",
"399 921 LINE",
"399 1323 LINE",
"1083 1323 LINE",
"1083 1493 LINE"
);
},
{
closed = 1;
nodes = (
"579 1899 LINE",
"395 1899 LINE",
"622 1635 LINE",
"776 1635 LINE"
);
}
);
width = 1233;
}
);
unicode = 00C8;
},
{
glyphname = Eacute;
layers = (
{
layerId = "8A8F53B0-DF48-4C43-86E4-F0539724E722";
paths = (
{
closed = 1;
nodes = (
"197 1493 LINE",
"197 0 LINE",
"1102 0 LINE",
"1102 170 LINE",
"399 170 LINE",
"399 751 LINE",
"1053 751 LINE",
"1053 921 LINE",
"399 921 LINE",
"399 1323 LINE",
"1083 1323 LINE",
"1083 1493 LINE"
);
},
{
closed = 1;
nodes = (
"690 1899 LINE",
"493 1635 LINE",
"647 1635 LINE",
"876 1899 LINE"
);
}
);
width = 1233;
}
);
unicode = 00C9;
},
{
glyphname = Ecircumflex;
layers = (
{
layerId = "8A8F53B0-DF48-4C43-86E4-F0539724E722";
paths = (
{
closed = 1;
nodes = (
"197 1493 LINE",
"197 0 LINE",
"1102 0 LINE",
"1102 170 LINE",
"399 170 LINE",
"399 751 LINE",
"1053 751 LINE",
"1053 921 LINE",
"399 921 LINE",
"399 1323 LINE",
"1083 1323 LINE",
"1083 1493 LINE"
);
},
{
closed = 1;
nodes = (
"540 1901 LINE",
"329 1635 LINE",
"469 1635 LINE",
"634 1813 LINE",
"800 1635 LINE",
"940 1635 LINE",
"729 1901 LINE"
);
}
);
width = 1233;
}
);
unicode = 00CA;
},
{
glyphname = Edieresis;
layers = (
{
layerId = "8A8F53B0-DF48-4C43-86E4-F0539724E722";
paths = (
{
closed = 1;
nodes = (
"197 1493 LINE",
"197 0 LINE",
"1102 0 LINE",
"1102 170 LINE",
"399 170 LINE",
"399 751 LINE",
"1053 751 LINE",
"1053 921 LINE",
"399 921 LINE",
"399 1323 LINE",
"1083 1323 LINE",
"1083 1493 LINE"
);
},
{
closed = 1;
nodes = (
"337 1870 LINE",
"337 1667 LINE",
"540 1667 LINE",
"540 1870 LINE"
);
},
{
closed = 1;
nodes = (
"729 1870 LINE",
"729 1667 LINE",
"931 1667 LINE",
"931 1870 LINE"
);
}
);
width = 1233;
}
);
unicode = 00CB;
},
{
glyphname = Igrave;
layers = (
{
layerId = "8A8F53B0-DF48-4C43-86E4-F0539724E722";
paths = (
{
closed = 1;
nodes = (
"201 1493 LINE",
"201 1323 LINE",
"514 1323 LINE",
"514 170 LINE",
"201 170 LINE",
"201 0 LINE",
"1030 0 LINE",
"1030 170 LINE",
"717 170 LINE",
"717 1323 LINE",
"1030 1323 LINE",
"1030 1493 LINE"
);
},
{
closed = 1;
nodes = (
"561 1899 LINE",
"377 1899 LINE",
"604 1635 LINE",
"758 1635 LINE"
);
}
);
width = 1233;
}
);
unicode = 00CC;
},
{
glyphname = Iacute;
layers = (
{
layerId = "8A8F53B0-DF48-4C43-86E4-F0539724E722";
paths = (
{
closed = 1;
nodes = (
"201 1493 LINE",
"201 1323 LINE",
"514 1323 LINE",
"514 170 LINE",
"201 170 LINE",
"201 0 LINE",
"1030 0 LINE",
"1030 170 LINE",
"717 170 LINE",
"717 1323 LINE",
"1030 1323 LINE",
"1030 1493 LINE"
);
},
{
closed = 1;
nodes = (
"672 1899 LINE",
"475 1635 LINE",
"629 1635 LINE",
"858 1899 LINE"
);
}
);
width = 1233;
}
);
unicode = 00CD;
},
{
glyphname = Icircumflex;
layers = (
{
layerId = "8A8F53B0-DF48-4C43-86E4-F0539724E722";
paths = (
{
closed = 1;
nodes = (
"201 1493 LINE",
"201 1323 LINE",
"514 1323 LINE",
"514 170 LINE",
"201 170 LINE",
"201 0 LINE",
"1030 0 LINE",
"1030 170 LINE",
"717 170 LINE",
"717 1323 LINE",
"1030 1323 LINE",
"1030 1493 LINE"
);
},
{
closed = 1;
nodes = (
"522 1901 LINE",
"311 1635 LINE",
"451 1635 LINE",
"616 1813 LINE",
"782 1635 LINE",
"922 1635 LINE",
"711 1901 LINE"
);
}
);
width = 1233;
}
);
unicode = 00CE;
},
{
glyphname = Idieresis;
layers = (
{
layerId = "8A8F53B0-DF48-4C43-86E4-F0539724E722";
paths = (
{
closed = 1;
nodes = (
"201 1493 LINE",
"201 1323 LINE",
"514 1323 LINE",
"514 170 LINE",
"201 170 LINE",
"201 0 LINE",
"1030 0 LINE",
"1030 170 LINE",
"717 170 LINE",
"717 1323 LINE",
"1030 1323 LINE",
"1030 1493 LINE"
);
},
{
closed = 1;
nodes = (
"319 1870 LINE",
"319 1667 LINE",
"522 1667 LINE",
"522 1870 LINE"
);
},
{
closed = 1;
nodes = (
"711 1870 LINE",
"711 1667 LINE",
"913 1667 LINE",
"913 1870 LINE"
);
}
);
width = 1233;
}
);
unicode = 00CF;
},
{
glyphname = Eth;
layers = (
{
layerId = "8A8F53B0-DF48-4C43-86E4-F0539724E722";
paths = (
{
closed = 1;
nodes = (
"133 1493 LINE",
"133 858 LINE",
"8 858 LINE",
"8 709 LINE",
"133 709 LINE",
"133 0 LINE",
"436 0 LINE SMOOTH",
"663.333 0 OFFCURVE",
"831.166 60.5 OFFCURVE",
"939.499 181.5 CURVE SMOOTH",
"1047.83 302.5 OFFCURVE",
"1102 490.333 OFFCURVE",
"1102 745 CURVE SMOOTH",
"1102 1001 OFFCURVE",
"1048 1189.67 OFFCURVE",
"939.999 1311 CURVE SMOOTH",
"831.999 1432.33 OFFCURVE",
"664 1493 OFFCURVE",
"436 1493 CURVE SMOOTH"
);
},
{
closed = 1;
nodes = (
"340 166 LINE",
"340 709 LINE",
"604 709 LINE",
"604 858 LINE",
"340 858 LINE",
"340 1327 LINE",
"436 1327 LINE SMOOTH",
"606.666 1327 OFFCURVE",
"725.5 1285.17 OFFCURVE",
"792.499 1201.5 CURVE SMOOTH",
"859.499 1117.83 OFFCURVE",
"892.999 965.666 OFFCURVE",
"892.999 745 CURVE SMOOTH",
"892.999 526.333 OFFCURVE",
"859.333 375.167 OFFCURVE",
"791.999 291.5 CURVE SMOOTH",
"724.666 207.833 OFFCURVE",
"606 166 OFFCURVE",
"436 166 CURVE SMOOTH"
);
}
);
width = 1233;
}
);
unicode = 00D0;
},
{
glyphname = Ntilde;
layers = (
{
layerId = "8A8F53B0-DF48-4C43-86E4-F0539724E722";
paths = (
{
closed = 1;
nodes = (
"19 1488 LINE",
"19 0 LINE",
"234 0 LINE",
"234 1225 LINE",
"818 0 LINE",
"1094 0 LINE",
"1094 1488 LINE",
"879 1488 LINE",
"879 263 LINE",
"295 1488 LINE"
);
},
{
closed = 1;
nodes = (
"612 1714 LINE",
"646.666 1696 OFFCURVE",
"674 1684.33 OFFCURVE",
"694 1679 CURVE SMOOTH",
"714 1673.67 OFFCURVE",
"735.333 1671 OFFCURVE",
"758 1671 CURVE SMOOTH",
"814 1671 OFFCURVE",
"859 1690.83 OFFCURVE",
"893 1730.5 CURVE SMOOTH",
"927 1770.17 OFFCURVE",
"944.666 1823.33 OFFCURVE",
"946 1890 CURVE",
"821 1890 LINE",
"821 1884 LINE SMOOTH",
"821 1856.67 OFFCURVE",
"814.333 1834.5 OFFCURVE",
"801 1817.5 CURVE SMOOTH",
"787.666 1800.5 OFFCURVE",
"770.666 1792 OFFCURVE",
"750 1792 CURVE SMOOTH",
"740 1792 OFFCURVE",
"729.166 1794 OFFCURVE",
"717.5 1798 CURVE SMOOTH",
"705.833 1802 OFFCURVE",
"692.666 1808.33 OFFCURVE",
"678 1817 CURVE",
"621 1847 LINE SMOOTH",
"588.333 1865 OFFCURVE",
"561.833 1876.67 OFFCURVE",
"541.5 1882 CURVE SMOOTH",
"521.166 1887.33 OFFCURVE",
"499 1890 OFFCURVE",
"475 1890 CURVE SMOOTH",
"418.333 1890 OFFCURVE",
"372.833 1870.33 OFFCURVE",
"338.5 1831 CURVE SMOOTH",
"304.166 1791.67 OFFCURVE",
"287 1738.33 OFFCURVE",
"287 1671 CURVE",
"412 1671 LINE",
"412 1677 LINE SMOOTH",
"412 1707 OFFCURVE",
"418.666 1730.33 OFFCURVE",
"432 1747 CURVE SMOOTH",
"445.333 1763.67 OFFCURVE",
"463.666 1772 OFFCURVE",
"487 1772 CURVE SMOOTH",
"495 1772 OFFCURVE",
"504.166 1770.17 OFFCURVE",
"514.5 1766.5 CURVE SMOOTH",
"524.833 1762.83 OFFCURVE",
"538.333 1756.33 OFFCURVE",
"555 1747 CURVE SMOOTH"
);
}
);
width = 1233;
}
);
unicode = 00D1;
},
{
glyphname = Ograve;
layers = (
{
layerId = "8A8F53B0-DF48-4C43-86E4-F0539724E722";
paths = (
{
closed = 1;
nodes = (
"905 525.666 OFFCURVE",
"882.5 369.167 OFFCURVE",
"837.5 275.5 CURVE SMOOTH",
"792.5 181.833 OFFCURVE",
"718.666 135 OFFCURVE",
"616 135 CURVE SMOOTH",
"514 135 OFFCURVE",
"440.5 182 OFFCURVE",
"395.5 276 CURVE SMOOTH",
"350.5 370 OFFCURVE",
"328 526.333 OFFCURVE",
"328 745 CURVE SMOOTH",
"328 964.333 OFFCURVE",
"350.5 1121 OFFCURVE",
"395.5 1215 CURVE SMOOTH",
"440.5 1309 OFFCURVE",
"514 1356 OFFCURVE",
"616 1356 CURVE SMOOTH",
"718.666 1356 OFFCURVE",
"792.5 1309 OFFCURVE",
"837.5 1215 CURVE SMOOTH",
"882.5 1121 OFFCURVE",
"905 964.333 OFFCURVE",
"905 745 CURVE SMOOTH"
);
},
{
closed = 1;
nodes = (
"1116 1005.67 OFFCURVE",
"1074.83 1200 OFFCURVE",
"992.5 1328 CURVE SMOOTH",
"910.166 1456 OFFCURVE",
"784.666 1520 OFFCURVE",
"616 1520 CURVE SMOOTH",
"448 1520 OFFCURVE",
"322.833 1456 OFFCURVE",
"240.5 1328 CURVE SMOOTH",
"158.167 1200 OFFCURVE",
"117 1005.67 OFFCURVE",
"117 745 CURVE SMOOTH",
"117 483.666 OFFCURVE",
"158 289.333 OFFCURVE",
"240 162 CURVE SMOOTH",
"322 34.667 OFFCURVE",
"447.333 -29 OFFCURVE",
"616 -29 CURVE SMOOTH",
"784.666 -29 OFFCURVE",
"910.166 35 OFFCURVE",
"992.5 163 CURVE SMOOTH",
"1074.83 291 OFFCURVE",
"1116 485 OFFCURVE",
"1116 745 CURVE SMOOTH"
);
},
{
closed = 1;
nodes = (
"561 1899 LINE",
"377 1899 LINE",
"604 1635 LINE",
"758 1635 LINE"
);
}
);
width = 1233;
}
);
unicode = 00D2;
},
{
glyphname = Oacute;
layers = (
{
layerId = "8A8F53B0-DF48-4C43-86E4-F0539724E722";
paths = (
{
closed = 1;
nodes = (
"905 525.666 OFFCURVE",
"882.5 369.167 OFFCURVE",
"837.5 275.5 CURVE SMOOTH",
"792.5 181.833 OFFCURVE",
"718.666 135 OFFCURVE",
"616 135 CURVE SMOOTH",
"514 135 OFFCURVE",
"440.5 182 OFFCURVE",
"395.5 276 CURVE SMOOTH",
"350.5 370 OFFCURVE",
"328 526.333 OFFCURVE",
"328 745 CURVE SMOOTH",
"328 964.333 OFFCURVE",
"350.5 1121 OFFCURVE",
"395.5 1215 CURVE SMOOTH",
"440.5 1309 OFFCURVE",
"514 1356 OFFCURVE",
"616 1356 CURVE SMOOTH",
"718.666 1356 OFFCURVE",
"792.5 1309 OFFCURVE",
"837.5 1215 CURVE SMOOTH",
"882.5 1121 OFFCURVE",
"905 964.333 OFFCURVE",
"905 745 CURVE SMOOTH"
);
},
{
closed = 1;
nodes = (
"1116 1005.67 OFFCURVE",
"1074.83 1200 OFFCURVE",
"992.5 1328 CURVE SMOOTH",
"910.166 1456 OFFCURVE",
"784.666 1520 OFFCURVE",
"616 1520 CURVE SMOOTH",
"448 1520 OFFCURVE",
"322.833 1456 OFFCURVE",
"240.5 1328 CURVE SMOOTH",
"158.167 1200 OFFCURVE",
"117 1005.67 OFFCURVE",
"117 745 CURVE SMOOTH",
"117 483.666 OFFCURVE",
"158 289.333 OFFCURVE",
"240 162 CURVE SMOOTH",
"322 34.667 OFFCURVE",
"447.333 -29 OFFCURVE",
"616 -29 CURVE SMOOTH",
"784.666 -29 OFFCURVE",
"910.166 35 OFFCURVE",
"992.5 163 CURVE SMOOTH",
"1074.83 291 OFFCURVE",
"1116 485 OFFCURVE",
"1116 745 CURVE SMOOTH"
);
},
{
closed = 1;
nodes = (
"672 1899 LINE",
"475 1635 LINE",
"629 1635 LINE",
"858 1899 LINE"
);
}
);
width = 1233;
}
);
unicode = 00D3;
},
{
glyphname = Ocircumflex;
layers = (
{
layerId = "8A8F53B0-DF48-4C43-86E4-F0539724E722";
paths = (
{
closed = 1;
nodes = (
"905 525.666 OFFCURVE",
"882.5 369.167 OFFCURVE",
"837.5 275.5 CURVE SMOOTH",
"792.5 181.833 OFFCURVE",
"718.666 135 OFFCURVE",
"616 135 CURVE SMOOTH",
"514 135 OFFCURVE",
"440.5 182 OFFCURVE",
"395.5 276 CURVE SMOOTH",
"350.5 370 OFFCURVE",
"328 526.333 OFFCURVE",
"328 745 CURVE SMOOTH",
"328 964.333 OFFCURVE",
"350.5 1121 OFFCURVE",
"395.5 1215 CURVE SMOOTH",
"440.5 1309 OFFCURVE",
"514 1356 OFFCURVE",
"616 1356 CURVE SMOOTH",
"718.666 1356 OFFCURVE",
"792.5 1309 OFFCURVE",
"837.5 1215 CURVE SMOOTH",
"882.5 1121 OFFCURVE",
"905 964.333 OFFCURVE",
"905 745 CURVE SMOOTH"
);
},
{
closed = 1;
nodes = (
"1116 1005.67 OFFCURVE",
"1074.83 1200 OFFCURVE",
"992.5 1328 CURVE SMOOTH",
"910.166 1456 OFFCURVE",
"784.666 1520 OFFCURVE",
"616 1520 CURVE SMOOTH",
"448 1520 OFFCURVE",
"322.833 1456 OFFCURVE",
"240.5 1328 CURVE SMOOTH",
"158.167 1200 OFFCURVE",
"117 1005.67 OFFCURVE",
"117 745 CURVE SMOOTH",
"117 483.666 OFFCURVE",
"158 289.333 OFFCURVE",
"240 162 CURVE SMOOTH",
"322 34.667 OFFCURVE",
"447.333 -29 OFFCURVE",
"616 -29 CURVE SMOOTH",
"784.666 -29 OFFCURVE",
"910.166 35 OFFCURVE",
"992.5 163 CURVE SMOOTH",
"1074.83 291 OFFCURVE",
"1116 485 OFFCURVE",
"1116 745 CURVE SMOOTH"
);
},
{
closed = 1;
nodes = (
"522 1901 LINE",
"311 1635 LINE",
"451 1635 LINE",
"616 1813 LINE",
"782 1635 LINE",
"922 1635 LINE",
"711 1901 LINE"
);
}
);
width = 1233;
}
);
unicode = 00D4;
},
{
glyphname = Otilde;
layers = (
{
layerId = "8A8F53B0-DF48-4C43-86E4-F0539724E722";
paths = (
{
closed = 1;
nodes = (
"905 525.666 OFFCURVE",
"882.5 369.167 OFFCURVE",
"837.5 275.5 CURVE SMOOTH",
"792.5 181.833 OFFCURVE",
"718.666 135 OFFCURVE",
"616 135 CURVE SMOOTH",
"514 135 OFFCURVE",
"440.5 182 OFFCURVE",
"395.5 276 CURVE SMOOTH",
"350.5 370 OFFCURVE",
"328 526.333 OFFCURVE",
"328 745 CURVE SMOOTH",
"328 964.333 OFFCURVE",
"350.5 1121 OFFCURVE",
"395.5 1215 CURVE SMOOTH",
"440.5 1309 OFFCURVE",
"514 1356 OFFCURVE",
"616 1356 CURVE SMOOTH",
"718.666 1356 OFFCURVE",
"792.5 1309 OFFCURVE",
"837.5 1215 CURVE SMOOTH",
"882.5 1121 OFFCURVE",
"905 964.333 OFFCURVE",
"905 745 CURVE SMOOTH"
);
},
{
closed = 1;
nodes = (
"1116 1005.67 OFFCURVE",
"1074.83 1200 OFFCURVE",
"992.5 1328 CURVE SMOOTH",
"910.166 1456 OFFCURVE",
"784.666 1520 OFFCURVE",
"616 1520 CURVE SMOOTH",
"448 1520 OFFCURVE",
"322.833 1456 OFFCURVE",
"240.5 1328 CURVE SMOOTH",
"158.167 1200 OFFCURVE",
"117 1005.67 OFFCURVE",
"117 745 CURVE SMOOTH",
"117 483.666 OFFCURVE",
"158 289.333 OFFCURVE",
"240 162 CURVE SMOOTH",
"322 34.667 OFFCURVE",
"447.333 -29 OFFCURVE",
"616 -29 CURVE SMOOTH",
"784.666 -29 OFFCURVE",
"910.166 35 OFFCURVE",
"992.5 163 CURVE SMOOTH",
"1074.83 291 OFFCURVE",
"1116 485 OFFCURVE",
"1116 745 CURVE SMOOTH"
);
},
{
closed = 1;
nodes = (
"612 1710 LINE",
"646.666 1692 OFFCURVE",
"674 1680.33 OFFCURVE",
"694 1675 CURVE SMOOTH",
"714 1669.67 OFFCURVE",
"735.333 1667 OFFCURVE",
"758 1667 CURVE SMOOTH",
"814 1667 OFFCURVE",
"859 1686.83 OFFCURVE",
"893 1726.5 CURVE SMOOTH",
"927 1766.17 OFFCURVE",
"944.666 1819.33 OFFCURVE",
"946 1886 CURVE",
"821 1886 LINE",
"821 1880 LINE SMOOTH",
"821 1852.67 OFFCURVE",
"814.333 1830.5 OFFCURVE",
"801 1813.5 CURVE SMOOTH",
"787.666 1796.5 OFFCURVE",
"770.666 1788 OFFCURVE",
"750 1788 CURVE SMOOTH",
"740 1788 OFFCURVE",
"729.166 1790 OFFCURVE",
"717.5 1794 CURVE SMOOTH",
"705.833 1798 OFFCURVE",
"692.666 1804.33 OFFCURVE",
"678 1813 CURVE",
"621 1843 LINE SMOOTH",
"588.333 1861 OFFCURVE",
"561.833 1872.67 OFFCURVE",
"541.5 1878 CURVE SMOOTH",
"521.166 1883.33 OFFCURVE",
"499 1886 OFFCURVE",
"475 1886 CURVE SMOOTH",
"418.333 1886 OFFCURVE",
"372.833 1866.33 OFFCURVE",
"338.5 1827 CURVE SMOOTH",
"304.166 1787.67 OFFCURVE",
"287 1734.33 OFFCURVE",
"287 1667 CURVE",
"412 1667 LINE",
"412 1673 LINE SMOOTH",
"412 1703 OFFCURVE",
"418.666 1726.33 OFFCURVE",
"432 1743 CURVE SMOOTH",
"445.333 1759.67 OFFCURVE",
"463.666 1768 OFFCURVE",
"487 1768 CURVE SMOOTH",
"495 1768 OFFCURVE",
"504.166 1766.17 OFFCURVE",
"514.5 1762.5 CURVE SMOOTH",
"524.833 1758.83 OFFCURVE",
"538.333 1752.33 OFFCURVE",
"555 1743 CURVE SMOOTH"
);
}
);
width = 1233;
}
);
unicode = 00D5;
},
{
glyphname = Odieresis;
layers = (
{
layerId = "8A8F53B0-DF48-4C43-86E4-F0539724E722";
paths = (
{
closed = 1;
nodes = (
"905 525.666 OFFCURVE",
"882.5 369.167 OFFCURVE",
"837.5 275.5 CURVE SMOOTH",
"792.5 181.833 OFFCURVE",
"718.666 135 OFFCURVE",
"616 135 CURVE SMOOTH",
"514 135 OFFCURVE",
"440.5 182 OFFCURVE",
"395.5 276 CURVE SMOOTH",
"350.5 370 OFFCURVE",
"328 526.333 OFFCURVE",
"328 745 CURVE SMOOTH",
"328 964.333 OFFCURVE",
"350.5 1121 OFFCURVE",
"395.5 1215 CURVE SMOOTH",
"440.5 1309 OFFCURVE",
"514 1356 OFFCURVE",
"616 1356 CURVE SMOOTH",
"718.666 1356 OFFCURVE",
"792.5 1309 OFFCURVE",
"837.5 1215 CURVE SMOOTH",
"882.5 1121 OFFCURVE",
"905 964.333 OFFCURVE",
"905 745 CURVE SMOOTH"
);
},
{
closed = 1;
nodes = (
"1116 1005.67 OFFCURVE",
"1074.83 1200 OFFCURVE",
"992.5 1328 CURVE SMOOTH",
"910.166 1456 OFFCURVE",
"784.666 1520 OFFCURVE",
"616 1520 CURVE SMOOTH",
"448 1520 OFFCURVE",
"322.833 1456 OFFCURVE",
"240.5 1328 CURVE SMOOTH",
"158.167 1200 OFFCURVE",
"117 1005.67 OFFCURVE",
"117 745 CURVE SMOOTH",
"117 483.666 OFFCURVE",
"158 289.333 OFFCURVE",
"240 162 CURVE SMOOTH",
"322 34.667 OFFCURVE",
"447.333 -29 OFFCURVE",
"616 -29 CURVE SMOOTH",
"784.666 -29 OFFCURVE",
"910.166 35 OFFCURVE",
"992.5 163 CURVE SMOOTH",
"1074.83 291 OFFCURVE",
"1116 485 OFFCURVE",
"1116 745 CURVE SMOOTH"
);
},
{
closed = 1;
nodes = (
"319 1870 LINE",
"319 1667 LINE",
"522 1667 LINE",
"522 1870 LINE"
);
},
{
closed = 1;
nodes = (
"711 1870 LINE",
"711 1667 LINE",
"913 1667 LINE",
"913 1870 LINE"
);
}
);
width = 1233;
}
);
unicode = 00D6;
},
{
glyphname = multiply;
layers = (
{
layerId = "8A8F53B0-DF48-4C43-86E4-F0539724E722";
paths = (
{
closed = 1;
nodes = (
"150 293 LINE",
"268 174 LINE",
"616 524 LINE",
"965 174 LINE",
"1081 293 LINE",
"733 641 LINE",
"1083 990.999 LINE",
"967 1108 LINE",
"616 758 LINE",
"266 1108 LINE",
"150 990.999 LINE",
"500 641 LINE"
);
}
);
width = 1233;
}
);
unicode = 00D7;
},
{
glyphname = Oslash;
layers = (
{
layerId = "8A8F53B0-DF48-4C43-86E4-F0539724E722";
paths = (
{
closed = 1;
nodes = (
"885 1036 LINE",
"891.666 1006 OFFCURVE",
"896.666 968.333 OFFCURVE",
"900 923 CURVE SMOOTH",
"903.333 877.666 OFFCURVE",
"905 818.333 OFFCURVE",
"905 745 CURVE SMOOTH",
"905 525.666 OFFCURVE",
"882.5 369.167 OFFCURVE",
"837.5 275.5 CURVE SMOOTH",
"792.5 181.833 OFFCURVE",
"718.666 135 OFFCURVE",
"616 135 CURVE SMOOTH",
"560 135 OFFCURVE",
"510.166 150 OFFCURVE",
"466.5 180 CURVE SMOOTH",
"422.833 210 OFFCURVE",
"391 251 OFFCURVE",
"371 303 CURVE"
);
},
{
closed = 1;
nodes = (
"338 471 LINE",
"334.667 493.666 OFFCURVE",
"332.167 521.833 OFFCURVE",
"330.5 555.5 CURVE SMOOTH",
"328.833 589.166 OFFCURVE",
"328 632.666 OFFCURVE",
"328 686 CURVE SMOOTH",
"328 938 OFFCURVE",
"349.833 1112.67 OFFCURVE",
"393.5 1210 CURVE SMOOTH",
"437.166 1307.33 OFFCURVE",
"511.333 1356 OFFCURVE",
"616 1356 CURVE SMOOTH",
"673.333 1356 OFFCURVE",
"721.166 1341.83 OFFCURVE",
"759.5 1313.5 CURVE SMOOTH",
"797.833 1285.17 OFFCURVE",
"825.333 1244 OFFCURVE",
"842 1190 CURVE"
);
},
{
closed = 1;
nodes = (
"1200 1485 LINE",
"1100 1559 LINE",
"961 1358 LINE",
"923 1411.33 OFFCURVE",
"875.166 1451.67 OFFCURVE",
"817.5 1479 CURVE SMOOTH",
"759.833 1506.33 OFFCURVE",
"692.666 1520 OFFCURVE",
"616 1520 CURVE SMOOTH",
"448 1520 OFFCURVE",
"322.833 1456 OFFCURVE",
"240.5 1328 CURVE SMOOTH",
"158.167 1200 OFFCURVE",
"117 1005.67 OFFCURVE",
"117 745 CURVE SMOOTH",
"117 639.667 OFFCURVE",
"123.167 543.333 OFFCURVE",
"135.5 456 CURVE SMOOTH",
"147.833 368.667 OFFCURVE",
"164.667 300.667 OFFCURVE",
"186 252 CURVE",
"8 0 LINE",
"111 -70 LINE",
"254 133 LINE",
"294.666 79 OFFCURVE",
"345 38.5 OFFCURVE",
"405 11.5 CURVE SMOOTH",
"465 -15.5 OFFCURVE",
"535.333 -29 OFFCURVE",
"616 -29 CURVE SMOOTH",
"784.666 -29 OFFCURVE",
"910.166 35 OFFCURVE",
"992.499 163 CURVE SMOOTH",
"1074.83 291 OFFCURVE",
"1116 485 OFFCURVE",
"1116 745 CURVE SMOOTH",
"1116 853.667 OFFCURVE",
"1108.83 951 OFFCURVE",
"1094.5 1037 CURVE SMOOTH",
"1080.17 1123 OFFCURVE",
"1059.33 1193 OFFCURVE",
"1032 1247 CURVE"
);
}
);
width = 1233;
}
);
unicode = 00D8;
},
{
glyphname = Ugrave;
layers = (
{
layerId = "8A8F53B0-DF48-4C43-86E4-F0539724E722";
paths = (
{
closed = 1;
nodes = (
"147 573 LINE SMOOTH",
"147 422.333 OFFCURVE",
"156.667 314.166 OFFCURVE",
"176 248.5 CURVE SMOOTH",
"195.333 182.833 OFFCURVE",
"228 129.333 OFFCURVE",
"274 88 CURVE SMOOTH",
"318.667 48.667 OFFCURVE",
"369.333 19.333 OFFCURVE",
"426 0 CURVE SMOOTH",
"482.666 -19.333 OFFCURVE",
"546 -29 OFFCURVE",
"616 -29 CURVE SMOOTH",
"686.666 -29 OFFCURVE",
"750.333 -19.333 OFFCURVE",
"807 0 CURVE SMOOTH",
"863.666 19.333 OFFCURVE",
"914 48.667 OFFCURVE",
"958 88 CURVE SMOOTH",
"1004.67 130 OFFCURVE",
"1037.5 183.167 OFFCURVE",
"1056.5 247.5 CURVE SMOOTH",
"1075.5 311.833 OFFCURVE",
"1085 420.333 OFFCURVE",
"1085 573 CURVE SMOOTH",
"1085 1493 LINE",
"883 1493 LINE",
"883 479 LINE SMOOTH",
"883 407 OFFCURVE",
"881 355.667 OFFCURVE",
"877 325 CURVE SMOOTH",
"873 294.333 OFFCURVE",
"866 270.667 OFFCURVE",
"856 254 CURVE SMOOTH",
"834 214.667 OFFCURVE",
"803 185 OFFCURVE",
"763 165 CURVE SMOOTH",
"723 145 OFFCURVE",
"674 135 OFFCURVE",
"616 135 CURVE SMOOTH",
"558.667 135 OFFCURVE",
"509.833 145 OFFCURVE",
"469.5 165 CURVE SMOOTH",
"429.167 185 OFFCURVE",
"398.333 214.667 OFFCURVE",
"377 254 CURVE",
"367 270.667 OFFCURVE",
"360 294.5 OFFCURVE",
"356 325.5 CURVE SMOOTH",
"352 356.5 OFFCURVE",
"350 408.333 OFFCURVE",
"350 481 CURVE SMOOTH",
"350 1493 LINE",
"147 1493 LINE"
);
},
{
closed = 1;
nodes = (
"561 1899 LINE",
"377 1899 LINE",
"604 1635 LINE",
"758 1635 LINE"
);
}
);
width = 1233;
}
);
unicode = 00D9;
},
{
glyphname = Uacute;
layers = (
{
layerId = "8A8F53B0-DF48-4C43-86E4-F0539724E722";
paths = (
{
closed = 1;
nodes = (
"147 573 LINE SMOOTH",
"147 422.333 OFFCURVE",
"156.667 314.166 OFFCURVE",
"176 248.5 CURVE SMOOTH",
"195.333 182.833 OFFCURVE",
"228 129.333 OFFCURVE",
"274 88 CURVE SMOOTH",
"318.667 48.667 OFFCURVE",
"369.333 19.333 OFFCURVE",
"426 0 CURVE SMOOTH",
"482.666 -19.333 OFFCURVE",
"546 -29 OFFCURVE",
"616 -29 CURVE SMOOTH",
"686.666 -29 OFFCURVE",
"750.333 -19.333 OFFCURVE",
"807 0 CURVE SMOOTH",
"863.666 19.333 OFFCURVE",
"914 48.667 OFFCURVE",
"958 88 CURVE SMOOTH",
"1004.67 130 OFFCURVE",
"1037.5 183.167 OFFCURVE",
"1056.5 247.5 CURVE SMOOTH",
"1075.5 311.833 OFFCURVE",
"1085 420.333 OFFCURVE",
"1085 573 CURVE SMOOTH",
"1085 1493 LINE",
"883 1493 LINE",
"883 479 LINE SMOOTH",
"883 407 OFFCURVE",
"881 355.667 OFFCURVE",
"877 325 CURVE SMOOTH",
"873 294.333 OFFCURVE",
"866 270.667 OFFCURVE",
"856 254 CURVE SMOOTH",
"834 214.667 OFFCURVE",
"803 185 OFFCURVE",
"763 165 CURVE SMOOTH",
"723 145 OFFCURVE",
"674 135 OFFCURVE",
"616 135 CURVE SMOOTH",
"558.667 135 OFFCURVE",
"509.833 145 OFFCURVE",
"469.5 165 CURVE SMOOTH",
"429.167 185 OFFCURVE",
"398.333 214.667 OFFCURVE",
"377 254 CURVE",
"367 270.667 OFFCURVE",
"360 294.5 OFFCURVE",
"356 325.5 CURVE SMOOTH",
"352 356.5 OFFCURVE",
"350 408.333 OFFCURVE",
"350 481 CURVE SMOOTH",
"350 1493 LINE",
"147 1493 LINE"
);
},
{
closed = 1;
nodes = (
"672 1899 LINE",
"475 1635 LINE",
"629 1635 LINE",
"858 1899 LINE"
);
}
);
width = 1233;
}
);
unicode = 00DA;
},
{
glyphname = Ucircumflex;
layers = (
{
layerId = "8A8F53B0-DF48-4C43-86E4-F0539724E722";
paths = (
{
closed = 1;
nodes = (
"147 573 LINE SMOOTH",
"147 422.333 OFFCURVE",
"156.667 314.166 OFFCURVE",
"176 248.5 CURVE SMOOTH",
"195.333 182.833 OFFCURVE",
"228 129.333 OFFCURVE",
"274 88 CURVE SMOOTH",
"318.667 48.667 OFFCURVE",
"369.333 19.333 OFFCURVE",
"426 0 CURVE SMOOTH",
"482.666 -19.333 OFFCURVE",
"546 -29 OFFCURVE",
"616 -29 CURVE SMOOTH",
"686.666 -29 OFFCURVE",
"750.333 -19.333 OFFCURVE",
"807 0 CURVE SMOOTH",
"863.666 19.333 OFFCURVE",
"914 48.667 OFFCURVE",
"958 88 CURVE SMOOTH",
"1004.67 130 OFFCURVE",
"1037.5 183.167 OFFCURVE",
"1056.5 247.5 CURVE SMOOTH",
"1075.5 311.833 OFFCURVE",
"1085 420.333 OFFCURVE",
"1085 573 CURVE SMOOTH",
"1085 1493 LINE",
"883 1493 LINE",
"883 479 LINE SMOOTH",
"883 407 OFFCURVE",
"881 355.667 OFFCURVE",
"877 325 CURVE SMOOTH",
"873 294.333 OFFCURVE",
"866 270.667 OFFCURVE",
"856 254 CURVE SMOOTH",
"834 214.667 OFFCURVE",
"803 185 OFFCURVE",
"763 165 CURVE SMOOTH",
"723 145 OFFCURVE",
"674 135 OFFCURVE",
"616 135 CURVE SMOOTH",
"558.667 135 OFFCURVE",
"509.833 145 OFFCURVE",
"469.5 165 CURVE SMOOTH",
"429.167 185 OFFCURVE",
"398.333 214.667 OFFCURVE",
"377 254 CURVE",
"367 270.667 OFFCURVE",
"360 294.5 OFFCURVE",
"356 325.5 CURVE SMOOTH",
"352 356.5 OFFCURVE",
"350 408.333 OFFCURVE",
"350 481 CURVE SMOOTH",
"350 1493 LINE",
"147 1493 LINE"
);
},
{
closed = 1;
nodes = (
"522 1901 LINE",
"311 1635 LINE",
"451 1635 LINE",
"616 1813 LINE",
"782 1635 LINE",
"922 1635 LINE",
"711 1901 LINE"
);
}
);
width = 1233;
}
);
unicode = 00DB;
},
{
glyphname = Udieresis;
layers = (
{
layerId = "8A8F53B0-DF48-4C43-86E4-F0539724E722";
paths = (
{
closed = 1;
nodes = (
"147 573 LINE SMOOTH",
"147 422.333 OFFCURVE",
"156.667 314.166 OFFCURVE",
"176 248.5 CURVE SMOOTH",
"195.333 182.833 OFFCURVE",
"228 129.333 OFFCURVE",
"274 88 CURVE SMOOTH",
"318.667 48.667 OFFCURVE",
"369.333 19.333 OFFCURVE",
"426 0 CURVE SMOOTH",
"482.666 -19.333 OFFCURVE",
"546 -29 OFFCURVE",
"616 -29 CURVE SMOOTH",
"686.666 -29 OFFCURVE",
"750.333 -19.333 OFFCURVE",
"807 0 CURVE SMOOTH",
"863.666 19.333 OFFCURVE",
"914 48.667 OFFCURVE",
"958 88 CURVE SMOOTH",
"1004.67 130 OFFCURVE",
"1037.5 183.167 OFFCURVE",
"1056.5 247.5 CURVE SMOOTH",
"1075.5 311.833 OFFCURVE",
"1085 420.333 OFFCURVE",
"1085 573 CURVE SMOOTH",
"1085 1493 LINE",
"883 1493 LINE",
"883 479 LINE SMOOTH",
"883 407 OFFCURVE",
"881 355.667 OFFCURVE",
"877 325 CURVE SMOOTH",
"873 294.333 OFFCURVE",
"866 270.667 OFFCURVE",
"856 254 CURVE SMOOTH",
"834 214.667 OFFCURVE",
"803 185 OFFCURVE",
"763 165 CURVE SMOOTH",
"723 145 OFFCURVE",
"674 135 OFFCURVE",
"616 135 CURVE SMOOTH",
"558.667 135 OFFCURVE",
"509.833 145 OFFCURVE",
"469.5 165 CURVE SMOOTH",
"429.167 185 OFFCURVE",
"398.333 214.667 OFFCURVE",
"377 254 CURVE",
"367 270.667 OFFCURVE",
"360 294.5 OFFCURVE",
"356 325.5 CURVE SMOOTH",
"352 356.5 OFFCURVE",
"350 408.333 OFFCURVE",
"350 481 CURVE SMOOTH",
"350 1493 LINE",
"147 1493 LINE"
);
},
{
closed = 1;
nodes = (
"319 1870 LINE",
"319 1667 LINE",
"522 1667 LINE",
"522 1870 LINE"
);
},
{
closed = 1;
nodes = (
"711 1870 LINE",
"711 1667 LINE",
"913 1667 LINE",
"913 1870 LINE"
);
}
);
width = 1233;
}
);
unicode = 00DC;
},
{
glyphname = Yacute;
layers = (
{
layerId = "8A8F53B0-DF48-4C43-86E4-F0539724E722";
paths = (
{
closed = 1;
nodes = (
"37 1493 LINE",
"514 670 LINE",
"514 0 LINE",
"717 0 LINE",
"717 670 LINE",
"1196 1493 LINE",
"978.999 1493 LINE",
"616 834 LINE",
"252 1493 LINE"
);
},
{
closed = 1;
nodes = (
"672 1899 LINE",
"475 1635 LINE",
"629 1635 LINE",
"858 1899 LINE"
);
}
);
width = 1233;
}
);
unicode = 00DD;
},
{
glyphname = Thorn;
layers = (
{
layerId = "8A8F53B0-DF48-4C43-86E4-F0539724E722";
paths = (
{
closed = 1;
nodes = (
"403 1057 LINE",
"637 1057 LINE SMOOTH",
"742.333 1057 OFFCURVE",
"821.166 1035.17 OFFCURVE",
"873.499 991.499 CURVE SMOOTH",
"925.833 947.833 OFFCURVE",
"951.999 882.333 OFFCURVE",
"951.999 795 CURVE SMOOTH",
"951.999 707.666 OFFCURVE",
"925.833 642 OFFCURVE",
"873.499 598 CURVE SMOOTH",
"821.166 554 OFFCURVE",
"742.333 532 OFFCURVE",
"637 532 CURVE SMOOTH",
"403 532 LINE"
);
},
{
closed = 1;
nodes = (
"201 1493 LINE",
"201 0 LINE",
"403 0 LINE",
"403 367 LINE",
"657 367 LINE SMOOTH",
"830.333 367 OFFCURVE",
"958.333 401.833 OFFCURVE",
"1041 471.5 CURVE SMOOTH",
"1123.67 541.166 OFFCURVE",
"1165 649 OFFCURVE",
"1165 795 CURVE SMOOTH",
"1165 940.333 OFFCURVE",
"1123.67 1048 OFFCURVE",
"1041 1118 CURVE SMOOTH",
"958.333 1188 OFFCURVE",
"830.333 1223 OFFCURVE",
"657 1223 CURVE SMOOTH",
"403 1223 LINE",
"403 1493 LINE"
);
}
);
width = 1233;
}
);
unicode = 00DE;
},
{
glyphname = germandbls;
layers = (
{
layerId = "8A8F53B0-DF48-4C43-86E4-F0539724E722";
paths = (
{
closed = 1;
nodes = (
"188 0 LINE",
"375 0 LINE",
"375 1133 LINE SMOOTH",
"375 1225.67 OFFCURVE",
"394 1293.83 OFFCURVE",
"432 1337.5 CURVE SMOOTH",
"470 1381.17 OFFCURVE",
"529.333 1403 OFFCURVE",
"610 1403 CURVE SMOOTH",
"685.333 1403 OFFCURVE",
"743.166 1384 OFFCURVE",
"783.5 1346 CURVE SMOOTH",
"823.833 1308 OFFCURVE",
"844.666 1253.33 OFFCURVE",
"846 1182 CURVE",
"742 1158.67 OFFCURVE",
"663 1118.5 OFFCURVE",
"609 1061.5 CURVE SMOOTH",
"555 1004.5 OFFCURVE",
"528 933.333 OFFCURVE",
"528 847.999 CURVE SMOOTH",
"528 795.333 OFFCURVE",
"543.166 746.833 OFFCURVE",
"573.5 702.5 CURVE SMOOTH",
"603.833 658.166 OFFCURVE",
"649.666 617.333 OFFCURVE",
"711 580 CURVE SMOOTH",
"778 541 LINE SMOOTH",
"857.999 491.666 OFFCURVE",
"908.833 451.166 OFFCURVE",
"930.499 419.5 CURVE SMOOTH",
"952.166 387.833 OFFCURVE",
"962.999 348.333 OFFCURVE",
"962.999 301 CURVE SMOOTH",
"962.999 247 OFFCURVE",
"941.666 203.833 OFFCURVE",
"898.999 171.5 CURVE SMOOTH",
"856.333 139.167 OFFCURVE",
"799 123 OFFCURVE",
"727 123 CURVE SMOOTH",
"687.666 123 OFFCURVE",
"645.833 128 OFFCURVE",
"601.5 138 CURVE SMOOTH",
"557.166 148 OFFCURVE",
"509.666 163.333 OFFCURVE",
"459 184 CURVE",
"459 20 LINE",
"503 4 OFFCURVE",
"547.5 -8.167 OFFCURVE",
"592.5 -16.5 CURVE SMOOTH",
"637.5 -24.833 OFFCURVE",
"683 -29 OFFCURVE",
"729 -29 CURVE SMOOTH",
"859.666 -29 OFFCURVE",
"962.333 0.667 OFFCURVE",
"1037 60 CURVE SMOOTH",
"1111.67 119.333 OFFCURVE",
"1149 200.333 OFFCURVE",
"1149 303 CURVE SMOOTH",
"1149 380.333 OFFCURVE",
"1130.5 446.333 OFFCURVE",
"1093.5 501 CURVE SMOOTH",
"1056.5 555.666 OFFCURVE",
"987.666 614 OFFCURVE",
"886.999 676 CURVE SMOOTH",
"828.999 713 LINE SMOOTH",
"784.333 741 OFFCURVE",
"752.833 767.833 OFFCURVE",
"734.5 793.5 CURVE SMOOTH",
"716.166 819.166 OFFCURVE",
"707 848.333 OFFCURVE",
"707 880.999 CURVE SMOOTH",
"707 947.666 OFFCURVE",
"735 1001.67 OFFCURVE",
"790.999 1043 CURVE SMOOTH",
"846.999 1084.33 OFFCURVE",
"926.666 1109.67 OFFCURVE",
"1030 1119 CURVE",
"1028.67 1263 OFFCURVE",
"992.999 1371.83 OFFCURVE",
"922.999 1445.5 CURVE SMOOTH",
"852.999 1519.17 OFFCURVE",
"749.999 1556 OFFCURVE",
"614 1556 CURVE SMOOTH",
"470 1556 OFFCURVE",
"363 1521.67 OFFCURVE",
"293 1453 CURVE SMOOTH",
"223 1384.33 OFFCURVE",
"188 1279 OFFCURVE",
"188 1137 CURVE SMOOTH"
);
}
);
width = 1233;
}
);
unicode = 00DF;
},
{
glyphname = agrave;
layers = (
{
layerId = "8A8F53B0-DF48-4C43-86E4-F0539724E722";
paths = (
{
closed = 1;
nodes = (
"702 563 LINE",
"874 563 LINE",
"874 522 LINE SMOOTH",
"873.333 398 OFFCURVE",
"844 300.833 OFFCURVE",
"786 230.5 CURVE SMOOTH",
"728 160.167 OFFCURVE",
"648.333 125 OFFCURVE",
"547 125 CURVE SMOOTH",
"475 125 OFFCURVE",
"418.666 143.667 OFFCURVE",
"378 181 CURVE SMOOTH",
"337.333 218.333 OFFCURVE",
"317 270.667 OFFCURVE",
"317 338 CURVE SMOOTH",
"317 412.666 OFFCURVE",
"344.167 468.833 OFFCURVE",
"398.5 506.5 CURVE SMOOTH",
"452.833 544.166 OFFCURVE",
"533.666 563 OFFCURVE",
"641 563 CURVE SMOOTH"
);
},
{
closed = 1;
nodes = (
"1059 639 LINE SMOOTH",
"1059 737 OFFCURVE",
"1053.67 810.5 OFFCURVE",
"1043 859.5 CURVE SMOOTH",
"1032.33 908.5 OFFCURVE",
"1014.33 949.666 OFFCURVE",
"989 982.999 CURVE SMOOTH",
"948.333 1037.67 OFFCURVE",
"895.166 1078.67 OFFCURVE",
"829.5 1106 CURVE SMOOTH",
"763.833 1133.33 OFFCURVE",
"684.666 1147 OFFCURVE",
"592 1147 CURVE SMOOTH",
"533.333 1147 OFFCURVE",
"472.833 1140.5 OFFCURVE",
"410.5 1127.5 CURVE SMOOTH",
"348.167 1114.5 OFFCURVE",
"283 1095 OFFCURVE",
"215 1069 CURVE",
"215 885 LINE",
"275.667 919.666 OFFCURVE",
"338 946 OFFCURVE",
"402 964 CURVE SMOOTH",
"466 981.999 OFFCURVE",
"529.333 990.999 OFFCURVE",
"592 990.999 CURVE SMOOTH",
"690 990.999 OFFCURVE",
"761.333 970.833 OFFCURVE",
"806 930.5 CURVE SMOOTH",
"850.666 890.166 OFFCURVE",
"873.333 825.333 OFFCURVE",
"874 736 CURVE SMOOTH",
"874 707 LINE",
"627 707 LINE SMOOTH",
"465 707 OFFCURVE",
"342.167 674.666 OFFCURVE",
"258.5 610 CURVE SMOOTH",
"174.833 545.333 OFFCURVE",
"133 450.666 OFFCURVE",
"133 326 CURVE SMOOTH",
"133 218 OFFCURVE",
"167 131.833 OFFCURVE",
"235 67.5 CURVE SMOOTH",
"303 3.167 OFFCURVE",
"394 -29 OFFCURVE",
"508 -29 CURVE SMOOTH",
"593.333 -29 OFFCURVE",
"665.833 -13.167 OFFCURVE",
"725.5 18.5 CURVE SMOOTH",
"785.166 50.167 OFFCURVE",
"834.666 99.333 OFFCURVE",
"874 166 CURVE",
"874 0 LINE",
"1059 0 LINE"
);
},
{
closed = 1;
nodes = (
"477 1638 LINE",
"279 1638 LINE",
"604 1262 LINE",
"758 1262 LINE"
);
}
);
width = 1233;
}
);
unicode = 00E0;
},
{
glyphname = aacute;
layers = (
{
layerId = "8A8F53B0-DF48-4C43-86E4-F0539724E722";
paths = (
{
closed = 1;
nodes = (
"702 563 LINE",
"874 563 LINE",
"874 522 LINE SMOOTH",
"873.333 398 OFFCURVE",
"844 300.833 OFFCURVE",
"786 230.5 CURVE SMOOTH",
"728 160.167 OFFCURVE",
"648.333 125 OFFCURVE",
"547 125 CURVE SMOOTH",
"475 125 OFFCURVE",
"418.666 143.667 OFFCURVE",
"378 181 CURVE SMOOTH",
"337.333 218.333 OFFCURVE",
"317 270.667 OFFCURVE",
"317 338 CURVE SMOOTH",
"317 412.666 OFFCURVE",
"344.167 468.833 OFFCURVE",
"398.5 506.5 CURVE SMOOTH",
"452.833 544.166 OFFCURVE",
"533.666 563 OFFCURVE",
"641 563 CURVE SMOOTH"
);
},
{
closed = 1;
nodes = (
"1059 639 LINE SMOOTH",
"1059 737 OFFCURVE",
"1053.67 810.5 OFFCURVE",
"1043 859.5 CURVE SMOOTH",
"1032.33 908.5 OFFCURVE",
"1014.33 949.666 OFFCURVE",
"989 982.999 CURVE SMOOTH",
"948.333 1037.67 OFFCURVE",
"895.166 1078.67 OFFCURVE",
"829.5 1106 CURVE SMOOTH",
"763.833 1133.33 OFFCURVE",
"684.666 1147 OFFCURVE",
"592 1147 CURVE SMOOTH",
"533.333 1147 OFFCURVE",
"472.833 1140.5 OFFCURVE",
"410.5 1127.5 CURVE SMOOTH",
"348.167 1114.5 OFFCURVE",
"283 1095 OFFCURVE",
"215 1069 CURVE",
"215 885 LINE",
"275.667 919.666 OFFCURVE",
"338 946 OFFCURVE",
"402 964 CURVE SMOOTH",
"466 981.999 OFFCURVE",
"529.333 990.999 OFFCURVE",
"592 990.999 CURVE SMOOTH",
"690 990.999 OFFCURVE",
"761.333 970.833 OFFCURVE",
"806 930.5 CURVE SMOOTH",
"850.666 890.166 OFFCURVE",
"873.333 825.333 OFFCURVE",
"874 736 CURVE SMOOTH",
"874 707 LINE",
"627 707 LINE SMOOTH",
"465 707 OFFCURVE",
"342.167 674.666 OFFCURVE",
"258.5 610 CURVE SMOOTH",
"174.833 545.333 OFFCURVE",
"133 450.666 OFFCURVE",
"133 326 CURVE SMOOTH",
"133 218 OFFCURVE",
"167 131.833 OFFCURVE",
"235 67.5 CURVE SMOOTH",
"303 3.167 OFFCURVE",
"394 -29 OFFCURVE",
"508 -29 CURVE SMOOTH",
"593.333 -29 OFFCURVE",
"665.833 -13.167 OFFCURVE",
"725.5 18.5 CURVE SMOOTH",
"785.166 50.167 OFFCURVE",
"834.666 99.333 OFFCURVE",
"874 166 CURVE",
"874 0 LINE",
"1059 0 LINE"
);
},
{
closed = 1;
nodes = (
"756 1638 LINE",
"475 1262 LINE",
"629 1262 LINE",
"954 1638 LINE"
);
}
);
width = 1233;
}
);
unicode = 00E1;
},
{
glyphname = acircumflex;
layers = (
{
layerId = "8A8F53B0-DF48-4C43-86E4-F0539724E722";
paths = (
{
closed = 1;
nodes = (
"702 563 LINE",
"874 563 LINE",
"874 522 LINE SMOOTH",
"873.333 398 OFFCURVE",
"844 300.833 OFFCURVE",
"786 230.5 CURVE SMOOTH",
"728 160.167 OFFCURVE",
"648.333 125 OFFCURVE",
"547 125 CURVE SMOOTH",
"475 125 OFFCURVE",
"418.666 143.667 OFFCURVE",
"378 181 CURVE SMOOTH",
"337.333 218.333 OFFCURVE",
"317 270.667 OFFCURVE",
"317 338 CURVE SMOOTH",
"317 412.666 OFFCURVE",
"344.167 468.833 OFFCURVE",
"398.5 506.5 CURVE SMOOTH",
"452.833 544.166 OFFCURVE",
"533.666 563 OFFCURVE",
"641 563 CURVE SMOOTH"
);
},
{
closed = 1;
nodes = (
"1059 639 LINE SMOOTH",
"1059 737 OFFCURVE",
"1053.67 810.5 OFFCURVE",
"1043 859.5 CURVE SMOOTH",
"1032.33 908.5 OFFCURVE",
"1014.33 949.666 OFFCURVE",
"989 982.999 CURVE SMOOTH",
"948.333 1037.67 OFFCURVE",
"895.166 1078.67 OFFCURVE",
"829.5 1106 CURVE SMOOTH",
"763.833 1133.33 OFFCURVE",
"684.666 1147 OFFCURVE",
"592 1147 CURVE SMOOTH",
"533.333 1147 OFFCURVE",
"472.833 1140.5 OFFCURVE",
"410.5 1127.5 CURVE SMOOTH",
"348.167 1114.5 OFFCURVE",
"283 1095 OFFCURVE",
"215 1069 CURVE",
"215 885 LINE",
"275.667 919.666 OFFCURVE",
"338 946 OFFCURVE",
"402 964 CURVE SMOOTH",
"466 981.999 OFFCURVE",
"529.333 990.999 OFFCURVE",
"592 990.999 CURVE SMOOTH",
"690 990.999 OFFCURVE",
"761.333 970.833 OFFCURVE",
"806 930.5 CURVE SMOOTH",
"850.666 890.166 OFFCURVE",
"873.333 825.333 OFFCURVE",
"874 736 CURVE SMOOTH",
"874 707 LINE",
"627 707 LINE SMOOTH",
"465 707 OFFCURVE",
"342.167 674.666 OFFCURVE",
"258.5 610 CURVE SMOOTH",
"174.833 545.333 OFFCURVE",
"133 450.666 OFFCURVE",
"133 326 CURVE SMOOTH",
"133 218 OFFCURVE",
"167 131.833 OFFCURVE",
"235 67.5 CURVE SMOOTH",
"303 3.167 OFFCURVE",
"394 -29 OFFCURVE",
"508 -29 CURVE SMOOTH",
"593.333 -29 OFFCURVE",
"665.833 -13.167 OFFCURVE",
"725.5 18.5 CURVE SMOOTH",
"785.166 50.167 OFFCURVE",
"834.666 99.333 OFFCURVE",
"874 166 CURVE",
"874 0 LINE",
"1059 0 LINE"
);
},
{
closed = 1;
nodes = (
"543 1638 LINE",
"297 1262 LINE",
"436 1262 LINE",
"616 1507 LINE",
"797 1262 LINE",
"936 1262 LINE",
"690 1638 LINE"
);
}
);
width = 1233;
}
);
unicode = 00E2;
},
{
glyphname = atilde;
layers = (
{
layerId = "8A8F53B0-DF48-4C43-86E4-F0539724E722";
paths = (
{
closed = 1;
nodes = (
"702 563 LINE",
"874 563 LINE",
"874 522 LINE SMOOTH",
"873.333 398 OFFCURVE",
"844 300.833 OFFCURVE",
"786 230.5 CURVE SMOOTH",
"728 160.167 OFFCURVE",
"648.333 125 OFFCURVE",
"547 125 CURVE SMOOTH",
"475 125 OFFCURVE",
"418.666 143.667 OFFCURVE",
"378 181 CURVE SMOOTH",
"337.333 218.333 OFFCURVE",
"317 270.667 OFFCURVE",
"317 338 CURVE SMOOTH",
"317 412.666 OFFCURVE",
"344.167 468.833 OFFCURVE",
"398.5 506.5 CURVE SMOOTH",
"452.833 544.166 OFFCURVE",
"533.666 563 OFFCURVE",
"641 563 CURVE SMOOTH"
);
},
{
closed = 1;
nodes = (
"1059 639 LINE SMOOTH",
"1059 737 OFFCURVE",
"1053.67 810.5 OFFCURVE",
"1043 859.5 CURVE SMOOTH",
"1032.33 908.5 OFFCURVE",
"1014.33 949.666 OFFCURVE",
"989 982.999 CURVE SMOOTH",
"948.333 1037.67 OFFCURVE",
"895.166 1078.67 OFFCURVE",
"829.5 1106 CURVE SMOOTH",
"763.833 1133.33 OFFCURVE",
"684.666 1147 OFFCURVE",
"592 1147 CURVE SMOOTH",
"533.333 1147 OFFCURVE",
"472.833 1140.5 OFFCURVE",
"410.5 1127.5 CURVE SMOOTH",
"348.167 1114.5 OFFCURVE",
"283 1095 OFFCURVE",
"215 1069 CURVE",
"215 885 LINE",
"275.667 919.666 OFFCURVE",
"338 946 OFFCURVE",
"402 964 CURVE SMOOTH",
"466 981.999 OFFCURVE",
"529.333 990.999 OFFCURVE",
"592 990.999 CURVE SMOOTH",
"690 990.999 OFFCURVE",
"761.333 970.833 OFFCURVE",
"806 930.5 CURVE SMOOTH",
"850.666 890.166 OFFCURVE",
"873.333 825.333 OFFCURVE",
"874 736 CURVE SMOOTH",
"874 707 LINE",
"627 707 LINE SMOOTH",
"465 707 OFFCURVE",
"342.167 674.666 OFFCURVE",
"258.5 610 CURVE SMOOTH",
"174.833 545.333 OFFCURVE",
"133 450.666 OFFCURVE",
"133 326 CURVE SMOOTH",
"133 218 OFFCURVE",
"167 131.833 OFFCURVE",
"235 67.5 CURVE SMOOTH",
"303 3.167 OFFCURVE",
"394 -29 OFFCURVE",
"508 -29 CURVE SMOOTH",
"593.333 -29 OFFCURVE",
"665.833 -13.167 OFFCURVE",
"725.5 18.5 CURVE SMOOTH",
"785.166 50.167 OFFCURVE",
"834.666 99.333 OFFCURVE",
"874 166 CURVE",
"874 0 LINE",
"1059 0 LINE"
);
},
{
closed = 1;
nodes = (
"612 1370 LINE",
"636.666 1348 OFFCURVE",
"659.666 1332.33 OFFCURVE",
"681 1323 CURVE SMOOTH",
"702.333 1313.67 OFFCURVE",
"726 1309 OFFCURVE",
"752 1309 CURVE SMOOTH",
"812.666 1309 OFFCURVE",
"860 1333.67 OFFCURVE",
"894 1383 CURVE SMOOTH",
"928 1432.33 OFFCURVE",
"945.333 1501.67 OFFCURVE",
"946 1591 CURVE",
"821 1591 LINE",
"820.333 1537 OFFCURVE",
"814 1497.67 OFFCURVE",
"802 1473 CURVE SMOOTH",
"790 1448.33 OFFCURVE",
"771 1436 OFFCURVE",
"745 1436 CURVE SMOOTH",
"736.333 1436 OFFCURVE",
"726.5 1439.17 OFFCURVE",
"715.5 1445.5 CURVE SMOOTH",
"704.5 1451.83 OFFCURVE",
"692 1461.67 OFFCURVE",
"678 1475 CURVE SMOOTH",
"621 1530 LINE",
"596.333 1552 OFFCURVE",
"573.333 1567.67 OFFCURVE",
"552 1577 CURVE SMOOTH",
"530.666 1586.33 OFFCURVE",
"507 1591 OFFCURVE",
"481 1591 CURVE SMOOTH",
"420.333 1591 OFFCURVE",
"373 1566.33 OFFCURVE",
"339 1517 CURVE SMOOTH",
"305 1467.67 OFFCURVE",
"287.667 1398.33 OFFCURVE",
"287 1309 CURVE",
"411 1309 LINE",
"412.333 1363 OFFCURVE",
"419 1402.33 OFFCURVE",
"431 1427 CURVE SMOOTH",
"443 1451.67 OFFCURVE",
"461.666 1464 OFFCURVE",
"487 1464 CURVE SMOOTH",
"496.333 1464 OFFCURVE",
"506.5 1460.83 OFFCURVE",
"517.5 1454.5 CURVE SMOOTH",
"528.5 1448.17 OFFCURVE",
"541 1438.33 OFFCURVE",
"555 1425 CURVE SMOOTH"
);
}
);
width = 1233;
}
);
unicode = 00E3;
},
{
glyphname = adieresis;
layers = (
{
layerId = "8A8F53B0-DF48-4C43-86E4-F0539724E722";
paths = (
{
closed = 1;
nodes = (
"702 563 LINE",
"874 563 LINE",
"874 522 LINE SMOOTH",
"873.333 398 OFFCURVE",
"844 300.833 OFFCURVE",
"786 230.5 CURVE SMOOTH",
"728 160.167 OFFCURVE",
"648.333 125 OFFCURVE",
"547 125 CURVE SMOOTH",
"475 125 OFFCURVE",
"418.666 143.667 OFFCURVE",
"378 181 CURVE SMOOTH",
"337.333 218.333 OFFCURVE",
"317 270.667 OFFCURVE",
"317 338 CURVE SMOOTH",
"317 412.666 OFFCURVE",
"344.167 468.833 OFFCURVE",
"398.5 506.5 CURVE SMOOTH",
"452.833 544.166 OFFCURVE",
"533.666 563 OFFCURVE",
"641 563 CURVE SMOOTH"
);
},
{
closed = 1;
nodes = (
"1059 639 LINE SMOOTH",
"1059 737 OFFCURVE",
"1053.67 810.5 OFFCURVE",
"1043 859.5 CURVE SMOOTH",
"1032.33 908.5 OFFCURVE",
"1014.33 949.666 OFFCURVE",
"989 982.999 CURVE SMOOTH",
"948.333 1037.67 OFFCURVE",
"895.166 1078.67 OFFCURVE",
"829.5 1106 CURVE SMOOTH",
"763.833 1133.33 OFFCURVE",
"684.666 1147 OFFCURVE",
"592 1147 CURVE SMOOTH",
"533.333 1147 OFFCURVE",
"472.833 1140.5 OFFCURVE",
"410.5 1127.5 CURVE SMOOTH",
"348.167 1114.5 OFFCURVE",
"283 1095 OFFCURVE",
"215 1069 CURVE",
"215 885 LINE",
"275.667 919.666 OFFCURVE",
"338 946 OFFCURVE",
"402 964 CURVE SMOOTH",
"466 981.999 OFFCURVE",
"529.333 990.999 OFFCURVE",
"592 990.999 CURVE SMOOTH",
"690 990.999 OFFCURVE",
"761.333 970.833 OFFCURVE",
"806 930.5 CURVE SMOOTH",
"850.666 890.166 OFFCURVE",
"873.333 825.333 OFFCURVE",
"874 736 CURVE SMOOTH",
"874 707 LINE",
"627 707 LINE SMOOTH",
"465 707 OFFCURVE",
"342.167 674.666 OFFCURVE",
"258.5 610 CURVE SMOOTH",
"174.833 545.333 OFFCURVE",
"133 450.666 OFFCURVE",
"133 326 CURVE SMOOTH",
"133 218 OFFCURVE",
"167 131.833 OFFCURVE",
"235 67.5 CURVE SMOOTH",
"303 3.167 OFFCURVE",
"394 -29 OFFCURVE",
"508 -29 CURVE SMOOTH",
"593.333 -29 OFFCURVE",
"665.833 -13.167 OFFCURVE",
"725.5 18.5 CURVE SMOOTH",
"785.166 50.167 OFFCURVE",
"834.666 99.333 OFFCURVE",
"874 166 CURVE",
"874 0 LINE",
"1059 0 LINE"
);
},
{
closed = 1;
nodes = (
"319 1552 LINE",
"319 1350 LINE",
"522 1350 LINE",
"522 1552 LINE"
);
},
{
closed = 1;
nodes = (
"711 1552 LINE",
"711 1350 LINE",
"913 1350 LINE",
"913 1552 LINE"
);
}
);
width = 1233;
}
);
unicode = 00E4;
},
{
glyphname = aring;
layers = (
{
layerId = "8A8F53B0-DF48-4C43-86E4-F0539724E722";
paths = (
{
closed = 1;
nodes = (
"702 563 LINE",
"874 563 LINE",
"874 522 LINE SMOOTH",
"873.333 398 OFFCURVE",
"844 300.833 OFFCURVE",
"786 230.5 CURVE SMOOTH",
"728 160.167 OFFCURVE",
"648.333 125 OFFCURVE",
"547 125 CURVE SMOOTH",
"475 125 OFFCURVE",
"418.666 143.667 OFFCURVE",
"378 181 CURVE SMOOTH",
"337.333 218.333 OFFCURVE",
"317 270.667 OFFCURVE",
"317 338 CURVE SMOOTH",
"317 412.666 OFFCURVE",
"344.167 468.833 OFFCURVE",
"398.5 506.5 CURVE SMOOTH",
"452.833 544.166 OFFCURVE",
"533.666 563 OFFCURVE",
"641 563 CURVE SMOOTH"
);
},
{
closed = 1;
nodes = (
"1059 639 LINE SMOOTH",
"1059 737 OFFCURVE",
"1053.67 810.5 OFFCURVE",
"1043 859.5 CURVE SMOOTH",
"1032.33 908.5 OFFCURVE",
"1014.33 949.666 OFFCURVE",
"989 982.999 CURVE SMOOTH",
"948.333 1037.67 OFFCURVE",
"895.166 1078.67 OFFCURVE",
"829.5 1106 CURVE SMOOTH",
"763.833 1133.33 OFFCURVE",
"684.666 1147 OFFCURVE",
"592 1147 CURVE SMOOTH",
"533.333 1147 OFFCURVE",
"472.833 1140.5 OFFCURVE",
"410.5 1127.5 CURVE SMOOTH",
"348.167 1114.5 OFFCURVE",
"283 1095 OFFCURVE",
"215 1069 CURVE",
"215 885 LINE",
"275.667 919.666 OFFCURVE",
"338 946 OFFCURVE",
"402 964 CURVE SMOOTH",
"466 981.999 OFFCURVE",
"529.333 990.999 OFFCURVE",
"592 990.999 CURVE SMOOTH",
"690 990.999 OFFCURVE",
"761.333 970.833 OFFCURVE",
"806 930.5 CURVE SMOOTH",
"850.666 890.166 OFFCURVE",
"873.333 825.333 OFFCURVE",
"874 736 CURVE SMOOTH",
"874 707 LINE",
"627 707 LINE SMOOTH",
"465 707 OFFCURVE",
"342.167 674.666 OFFCURVE",
"258.5 610 CURVE SMOOTH",
"174.833 545.333 OFFCURVE",
"133 450.666 OFFCURVE",
"133 326 CURVE SMOOTH",
"133 218 OFFCURVE",
"167 131.833 OFFCURVE",
"235 67.5 CURVE SMOOTH",
"303 3.167 OFFCURVE",
"394 -29 OFFCURVE",
"508 -29 CURVE SMOOTH",
"593.333 -29 OFFCURVE",
"665.833 -13.167 OFFCURVE",
"725.5 18.5 CURVE SMOOTH",
"785.166 50.167 OFFCURVE",
"834.666 99.333 OFFCURVE",
"874 166 CURVE",
"874 0 LINE",
"1059 0 LINE"
);
},
{
closed = 1;
nodes = (
"891 1600.67 OFFCURVE",
"864.5 1665.5 OFFCURVE",
"811.5 1718.5 CURVE SMOOTH",
"758.5 1771.5 OFFCURVE",
"693.333 1798 OFFCURVE",
"616 1798 CURVE SMOOTH",
"539.333 1798 OFFCURVE",
"474.5 1771.5 OFFCURVE",
"421.5 1718.5 CURVE SMOOTH",
"368.5 1665.5 OFFCURVE",
"342 1600.67 OFFCURVE",
"342 1524 CURVE SMOOTH",
"342 1447.33 OFFCURVE",
"368.5 1382.33 OFFCURVE",
"421.5 1329 CURVE SMOOTH",
"474.5 1275.67 OFFCURVE",
"539.333 1249 OFFCURVE",
"616 1249 CURVE SMOOTH",
"693.333 1249 OFFCURVE",
"758.5 1275.67 OFFCURVE",
"811.5 1329 CURVE SMOOTH",
"864.5 1382.33 OFFCURVE",
"891 1447.33 OFFCURVE",
"891 1524 CURVE SMOOTH"
);
},
{
closed = 1;
nodes = (
"768 1481.33 OFFCURVE",
"753.333 1445.33 OFFCURVE",
"724 1416 CURVE SMOOTH",
"694.666 1386.67 OFFCURVE",
"658.666 1372 OFFCURVE",
"616 1372 CURVE SMOOTH",
"573.333 1372 OFFCURVE",
"537.5 1386.5 OFFCURVE",
"508.5 1415.5 CURVE SMOOTH",
"479.5 1444.5 OFFCURVE",
"465 1480.67 OFFCURVE",
"465 1524 CURVE SMOOTH",
"465 1566.67 OFFCURVE",
"479.5 1602.5 OFFCURVE",
"508.5 1631.5 CURVE SMOOTH",
"537.5 1660.5 OFFCURVE",
"573.333 1675 OFFCURVE",
"616 1675 CURVE SMOOTH",
"658.666 1675 OFFCURVE",
"694.666 1660.33 OFFCURVE",
"724 1631 CURVE SMOOTH",
"753.333 1601.67 OFFCURVE",
"768 1566 OFFCURVE",
"768 1524 CURVE SMOOTH"
);
}
);
width = 1233;
}
);
unicode = 00E5;
},
{
glyphname = ae;
layers = (
{
layerId = "8A8F53B0-DF48-4C43-86E4-F0539724E722";
paths = (
{
closed = 1;
nodes = (
"543 442 LINE SMOOTH",
"543 319.333 OFFCURVE",
"530.666 235.833 OFFCURVE",
"506 191.5 CURVE SMOOTH",
"481.333 147.167 OFFCURVE",
"438.333 125 OFFCURVE",
"377 125 CURVE SMOOTH",
"321.667 125 OFFCURVE",
"279.167 141.167 OFFCURVE",
"249.5 173.5 CURVE SMOOTH",
"219.833 205.833 OFFCURVE",
"205 251.667 OFFCURVE",
"205 311 CURVE SMOOTH",
"205 386.333 OFFCURVE",
"225 439 OFFCURVE",
"265 469 CURVE SMOOTH",
"305 499 OFFCURVE",
"381.333 514 OFFCURVE",
"494 514 CURVE SMOOTH",
"543 514 LINE"
);
},
{
closed = 1;
nodes = (
"1036 657 LINE",
"709 657 LINE",
"709 700 LINE SMOOTH",
"709 804.666 OFFCURVE",
"721.666 879.666 OFFCURVE",
"747 925 CURVE SMOOTH",
"772.333 970.333 OFFCURVE",
"814 992.999 OFFCURVE",
"872 992.999 CURVE SMOOTH",
"930 992.999 OFFCURVE",
"971.833 970.833 OFFCURVE",
"997.499 926.5 CURVE SMOOTH",
"1023.17 882.166 OFFCURVE",
"1036 809.666 OFFCURVE",
"1036 709 CURVE SMOOTH"
);
},
{
closed = 1;
nodes = (
"1200 514 LINE",
"1200 604 LINE SMOOTH",
"1200 808 OFFCURVE",
"1175.83 949.5 OFFCURVE",
"1127.5 1028.5 CURVE SMOOTH",
"1079.17 1107.5 OFFCURVE",
"996.999 1147 OFFCURVE",
"880.999 1147 CURVE SMOOTH",
"821.666 1147 OFFCURVE",
"770 1136 OFFCURVE",
"726 1114 CURVE SMOOTH",
"682 1092 OFFCURVE",
"649 1060.67 OFFCURVE",
"627 1020 CURVE",
"602.333 1062.67 OFFCURVE",
"569.333 1094.5 OFFCURVE",
"528 1115.5 CURVE SMOOTH",
"486.666 1136.5 OFFCURVE",
"435.666 1147 OFFCURVE",
"375 1147 CURVE SMOOTH",
"335 1147 OFFCURVE",
"293 1141.5 OFFCURVE",
"249 1130.5 CURVE SMOOTH",
"205 1119.5 OFFCURVE",
"157.333 1102.33 OFFCURVE",
"106 1079 CURVE",
"106 911 LINE",
"147.333 937 OFFCURVE",
"190 957.166 OFFCURVE",
"234 971.499 CURVE SMOOTH",
"278 985.833 OFFCURVE",
"318.666 992.999 OFFCURVE",
"356 992.999 CURVE SMOOTH",
"418.666 992.999 OFFCURVE",
"466.5 971.666 OFFCURVE",
"499.5 929 CURVE SMOOTH",
"532.5 886.333 OFFCURVE",
"549 825 OFFCURVE",
"549 745 CURVE SMOOTH",
"549 657 LINE",
"432 657 LINE SMOOTH",
"304.666 657 OFFCURVE",
"207.667 627.166 OFFCURVE",
"141 567.5 CURVE SMOOTH",
"74.333 507.833 OFFCURVE",
"41 421 OFFCURVE",
"41 307 CURVE SMOOTH",
"41 197.667 OFFCURVE",
"68.167 114.333 OFFCURVE",
"122.5 57 CURVE SMOOTH",
"176.833 -0.333 OFFCURVE",
"256 -29 OFFCURVE",
"360 -29 CURVE SMOOTH",
"424.666 -29 OFFCURVE",
"479.166 -15.667 OFFCURVE",
"523.5 11 CURVE SMOOTH",
"567.833 37.667 OFFCURVE",
"603 77.667 OFFCURVE",
"629 131 CURVE",
"650.333 79 OFFCURVE",
"685.833 39.333 OFFCURVE",
"735.5 12 CURVE SMOOTH",
"785.166 -15.333 OFFCURVE",
"846.666 -29 OFFCURVE",
"919.999 -29 CURVE SMOOTH",
"967.333 -29 OFFCURVE",
"1013 -21.833 OFFCURVE",
"1057 -7.5 CURVE SMOOTH",
"1101 6.833 OFFCURVE",
"1141.33 27.667 OFFCURVE",
"1178 55 CURVE",
"1178 227 LINE",
"1144.67 193 OFFCURVE",
"1106.5 167.5 OFFCURVE",
"1063.5 150.5 CURVE SMOOTH",
"1020.5 133.5 OFFCURVE",
"972.666 125 OFFCURVE",
"920 125 CURVE SMOOTH",
"845.333 125 OFFCURVE",
"791.166 149 OFFCURVE",
"757.5 197 CURVE SMOOTH",
"723.833 245 OFFCURVE",
"707 322.667 OFFCURVE",
"707 430 CURVE SMOOTH",
"707 452.666 OFFCURVE",
"707.166 469.833 OFFCURVE",
"707.5 481.5 CURVE SMOOTH",
"707.833 493.166 OFFCURVE",
"708.333 504 OFFCURVE",
"709 514 CURVE"
);
}
);
width = 1233;
}
);
unicode = 00E6;
},
{
glyphname = ccedilla;
layers = (
{
layerId = "8A8F53B0-DF48-4C43-86E4-F0539724E722";
paths = (
{
closed = 1;
nodes = (
"686 0 LINE",
"715.333 -40.667 OFFCURVE",
"737.333 -75.5 OFFCURVE",
"752 -104.5 CURVE SMOOTH",
"766.666 -133.5 OFFCURVE",
"774 -158 OFFCURVE",
"774 -178 CURVE SMOOTH",
"774 -208.667 OFFCURVE",
"763.833 -232 OFFCURVE",
"743.5 -248 CURVE SMOOTH",
"723.166 -264 OFFCURVE",
"693.666 -272 OFFCURVE",
"655 -272 CURVE SMOOTH",
"623.666 -272 OFFCURVE",
"595.5 -269.5 OFFCURVE",
"570.5 -264.5 CURVE SMOOTH",
"545.5 -259.5 OFFCURVE",
"521.666 -251.333 OFFCURVE",
"499 -240 CURVE",
"499 -371 LINE",
"528.333 -379 OFFCURVE",
"557.5 -385 OFFCURVE",
"586.5 -389 CURVE SMOOTH",
"615.5 -393 OFFCURVE",
"645 -395 OFFCURVE",
"675 -395 CURVE SMOOTH",
"753.666 -395 OFFCURVE",
"813 -379.833 OFFCURVE",
"853 -349.5 CURVE SMOOTH",
"893 -319.167 OFFCURVE",
"913 -274.333 OFFCURVE",
"913 -215 CURVE SMOOTH",
"913 -183 OFFCURVE",
"904.166 -149.5 OFFCURVE",
"886.5 -114.5 CURVE SMOOTH",
"868.833 -79.5 OFFCURVE",
"841.333 -41.333 OFFCURVE",
"804 0 CURVE"
);
},
{
closed = 1;
nodes = (
"1061 248 LINE",
"1017.67 206.667 OFFCURVE",
"970.666 176.167 OFFCURVE",
"920 156.5 CURVE SMOOTH",
"869.333 136.833 OFFCURVE",
"812 127 OFFCURVE",
"748 127 CURVE SMOOTH",
"633.333 127 OFFCURVE",
"544.833 164.5 OFFCURVE",
"482.5 239.5 CURVE SMOOTH",
"420.166 314.5 OFFCURVE",
"389 421 OFFCURVE",
"389 559 CURVE SMOOTH",
"389 697.666 OFFCURVE",
"420 804.333 OFFCURVE",
"482 879 CURVE SMOOTH",
"544 953.666 OFFCURVE",
"632.666 991 OFFCURVE",
"748 991 CURVE SMOOTH",
"810 991 OFFCURVE",
"865.5 981.333 OFFCURVE",
"914.5 962 CURVE SMOOTH",
"963.5 942.666 OFFCURVE",
"1012.33 911.333 OFFCURVE",
"1061 868 CURVE",
"1061 1061 LINE",
"1009 1090.33 OFFCURVE",
"957.333 1112 OFFCURVE",
"906 1126 CURVE SMOOTH",
"854.666 1140 OFFCURVE",
"802 1147 OFFCURVE",
"748 1147 CURVE SMOOTH",
"574.666 1147 OFFCURVE",
"439.166 1095 OFFCURVE",
"341.5 990.999 CURVE SMOOTH",
"243.833 887 OFFCURVE",
"195 743 OFFCURVE",
"195 559 CURVE SMOOTH",
"195 375 OFFCURVE",
"243.833 231 OFFCURVE",
"341.5 127 CURVE SMOOTH",
"439.166 23 OFFCURVE",
"574.666 -29 OFFCURVE",
"748 -29 CURVE SMOOTH",
"802.666 -29 OFFCURVE",
"856.166 -21.833 OFFCURVE",
"908.5 -7.5 CURVE SMOOTH",
"960.833 6.833 OFFCURVE",
"1011.67 28.333 OFFCURVE",
"1061 57 CURVE"
);
}
);
width = 1233;
}
);
unicode = 00E7;
},
{
glyphname = egrave;
layers = (
{
layerId = "8A8F53B0-DF48-4C43-86E4-F0539724E722";
paths = (
{
closed = 1;
nodes = (
"1120 652 LINE",
"1114.67 788.666 OFFCURVE",
"1070.83 905.333 OFFCURVE",
"988.499 1002 CURVE SMOOTH",
"906.166 1098.67 OFFCURVE",
"793.666 1147 OFFCURVE",
"651 1147 CURVE SMOOTH",
"491 1147 OFFCURVE",
"363 1093.67 OFFCURVE",
"267 987 CURVE SMOOTH",
"171 880.333 OFFCURVE",
"123 737.666 OFFCURVE",
"123 559 CURVE SMOOTH",
"123 375.667 OFFCURVE",
"172 231.833 OFFCURVE",
"270 127.5 CURVE SMOOTH",
"368 23.167 OFFCURVE",
"504 -29 OFFCURVE",
"678 -29 CURVE SMOOTH",
"738.666 -29 OFFCURVE",
"801.5 -21.833 OFFCURVE",
"866.499 -7.5 CURVE SMOOTH",
"931.499 6.833 OFFCURVE",
"998.999 28.333 OFFCURVE",
"1069 57 CURVE",
"1069 240 LINE",
"996.333 202 OFFCURVE",
"928 173.667 OFFCURVE",
"864 155 CURVE SMOOTH",
"800 136.333 OFFCURVE",
"738.666 127 OFFCURVE",
"680 127 CURVE SMOOTH",
"564 127 OFFCURVE",
"474.166 160.333 OFFCURVE",
"410.5 227 CURVE SMOOTH",
"346.833 293.667 OFFCURVE",
"317.666 403.333 OFFCURVE",
"323 556 CURVE",
"323 562 LINE",
"1120 562 LINE"
);
},
{
closed = 1;
nodes = (
"330 705 LINE",
"335.333 778.333 OFFCURVE",
"366.666 844.333 OFFCURVE",
"424 903 CURVE SMOOTH",
"481.333 961.666 OFFCURVE",
"554.333 991 OFFCURVE",
"643 991 CURVE SMOOTH",
"733.666 991 OFFCURVE",
"803.166 962.833 OFFCURVE",
"851.5 906.5 CURVE SMOOTH",
"899.833 850.166 OFFCURVE",
"928 783.333 OFFCURVE",
"936 706 CURVE"
);
},
{
closed = 1;
nodes = (
"491 1638 LINE",
"293 1638 LINE",
"618 1262 LINE",
"772 1262 LINE"
);
}
);
width = 1233;
}
);
unicode = 00E8;
},
{
glyphname = eacute;
layers = (
{
layerId = "8A8F53B0-DF48-4C43-86E4-F0539724E722";
paths = (
{
closed = 1;
nodes = (
"1120 652 LINE",
"1114.67 788.666 OFFCURVE",
"1070.83 905.333 OFFCURVE",
"988.499 1002 CURVE SMOOTH",
"906.166 1098.67 OFFCURVE",
"793.666 1147 OFFCURVE",
"651 1147 CURVE SMOOTH",
"491 1147 OFFCURVE",
"363 1093.67 OFFCURVE",
"267 987 CURVE SMOOTH",
"171 880.333 OFFCURVE",
"123 737.666 OFFCURVE",
"123 559 CURVE SMOOTH",
"123 375.667 OFFCURVE",
"172 231.833 OFFCURVE",
"270 127.5 CURVE SMOOTH",
"368 23.167 OFFCURVE",
"504 -29 OFFCURVE",
"678 -29 CURVE SMOOTH",
"738.666 -29 OFFCURVE",
"801.5 -21.833 OFFCURVE",
"866.499 -7.5 CURVE SMOOTH",
"931.499 6.833 OFFCURVE",
"998.999 28.333 OFFCURVE",
"1069 57 CURVE",
"1069 240 LINE",
"996.333 202 OFFCURVE",
"928 173.667 OFFCURVE",
"864 155 CURVE SMOOTH",
"800 136.333 OFFCURVE",
"738.666 127 OFFCURVE",
"680 127 CURVE SMOOTH",
"564 127 OFFCURVE",
"474.166 160.333 OFFCURVE",
"410.5 227 CURVE SMOOTH",
"346.833 293.667 OFFCURVE",
"317.666 403.333 OFFCURVE",
"323 556 CURVE",
"323 562 LINE",
"1120 562 LINE"
);
},
{
closed = 1;
nodes = (
"330 705 LINE",
"335.333 778.333 OFFCURVE",
"366.666 844.333 OFFCURVE",
"424 903 CURVE SMOOTH",
"481.333 961.666 OFFCURVE",
"554.333 991 OFFCURVE",
"643 991 CURVE SMOOTH",
"733.666 991 OFFCURVE",
"803.166 962.833 OFFCURVE",
"851.5 906.5 CURVE SMOOTH",
"899.833 850.166 OFFCURVE",
"928 783.333 OFFCURVE",
"936 706 CURVE"
);
},
{
closed = 1;
nodes = (
"770 1638 LINE",
"489 1262 LINE",
"643 1262 LINE",
"967.999 1638 LINE"
);
}
);
width = 1233;
}
);
unicode = 00E9;
},
{
glyphname = ecircumflex;
layers = (
{
layerId = "8A8F53B0-DF48-4C43-86E4-F0539724E722";
paths = (
{
closed = 1;
nodes = (
"1120 652 LINE",
"1114.67 788.666 OFFCURVE",
"1070.83 905.333 OFFCURVE",
"988.499 1002 CURVE SMOOTH",
"906.166 1098.67 OFFCURVE",
"793.666 1147 OFFCURVE",
"651 1147 CURVE SMOOTH",
"491 1147 OFFCURVE",
"363 1093.67 OFFCURVE",
"267 987 CURVE SMOOTH",
"171 880.333 OFFCURVE",
"123 737.666 OFFCURVE",
"123 559 CURVE SMOOTH",
"123 375.667 OFFCURVE",
"172 231.833 OFFCURVE",
"270 127.5 CURVE SMOOTH",
"368 23.167 OFFCURVE",
"504 -29 OFFCURVE",
"678 -29 CURVE SMOOTH",
"738.666 -29 OFFCURVE",
"801.5 -21.833 OFFCURVE",
"866.499 -7.5 CURVE SMOOTH",
"931.499 6.833 OFFCURVE",
"998.999 28.333 OFFCURVE",
"1069 57 CURVE",
"1069 240 LINE",
"996.333 202 OFFCURVE",
"928 173.667 OFFCURVE",
"864 155 CURVE SMOOTH",
"800 136.333 OFFCURVE",
"738.666 127 OFFCURVE",
"680 127 CURVE SMOOTH",
"564 127 OFFCURVE",
"474.166 160.333 OFFCURVE",
"410.5 227 CURVE SMOOTH",
"346.833 293.667 OFFCURVE",
"317.666 403.333 OFFCURVE",
"323 556 CURVE",
"323 562 LINE",
"1120 562 LINE"
);
},
{
closed = 1;
nodes = (
"330 705 LINE",
"335.333 778.333 OFFCURVE",
"366.666 844.333 OFFCURVE",
"424 903 CURVE SMOOTH",
"481.333 961.666 OFFCURVE",
"554.333 991 OFFCURVE",
"643 991 CURVE SMOOTH",
"733.666 991 OFFCURVE",
"803.166 962.833 OFFCURVE",
"851.5 906.5 CURVE SMOOTH",
"899.833 850.166 OFFCURVE",
"928 783.333 OFFCURVE",
"936 706 CURVE"
);
},
{
closed = 1;
nodes = (
"557 1638 LINE",
"311 1262 LINE",
"450 1262 LINE",
"630 1507 LINE",
"811 1262 LINE",
"950 1262 LINE",
"704 1638 LINE"
);
}
);
width = 1233;
}
);
unicode = 00EA;
},
{
glyphname = edieresis;
layers = (
{
layerId = "8A8F53B0-DF48-4C43-86E4-F0539724E722";
paths = (
{
closed = 1;
nodes = (
"1120 652 LINE",
"1114.67 788.666 OFFCURVE",
"1070.83 905.333 OFFCURVE",
"988.499 1002 CURVE SMOOTH",
"906.166 1098.67 OFFCURVE",
"793.666 1147 OFFCURVE",
"651 1147 CURVE SMOOTH",
"491 1147 OFFCURVE",
"363 1093.67 OFFCURVE",
"267 987 CURVE SMOOTH",
"171 880.333 OFFCURVE",
"123 737.666 OFFCURVE",
"123 559 CURVE SMOOTH",
"123 375.667 OFFCURVE",
"172 231.833 OFFCURVE",
"270 127.5 CURVE SMOOTH",
"368 23.167 OFFCURVE",
"504 -29 OFFCURVE",
"678 -29 CURVE SMOOTH",
"738.666 -29 OFFCURVE",
"801.5 -21.833 OFFCURVE",
"866.499 -7.5 CURVE SMOOTH",
"931.499 6.833 OFFCURVE",
"998.999 28.333 OFFCURVE",
"1069 57 CURVE",
"1069 240 LINE",
"996.333 202 OFFCURVE",
"928 173.667 OFFCURVE",
"864 155 CURVE SMOOTH",
"800 136.333 OFFCURVE",
"738.666 127 OFFCURVE",
"680 127 CURVE SMOOTH",
"564 127 OFFCURVE",
"474.166 160.333 OFFCURVE",
"410.5 227 CURVE SMOOTH",
"346.833 293.667 OFFCURVE",
"317.666 403.333 OFFCURVE",
"323 556 CURVE",
"323 562 LINE",
"1120 562 LINE"
);
},
{
closed = 1;
nodes = (
"330 705 LINE",
"335.333 778.333 OFFCURVE",
"366.666 844.333 OFFCURVE",
"424 903 CURVE SMOOTH",
"481.333 961.666 OFFCURVE",
"554.333 991 OFFCURVE",
"643 991 CURVE SMOOTH",
"733.666 991 OFFCURVE",
"803.166 962.833 OFFCURVE",
"851.5 906.5 CURVE SMOOTH",
"899.833 850.166 OFFCURVE",
"928 783.333 OFFCURVE",
"936 706 CURVE"
);
},
{
closed = 1;
nodes = (
"333 1552 LINE",
"333 1350 LINE",
"536 1350 LINE",
"536 1552 LINE"
);
},
{
closed = 1;
nodes = (
"725 1552 LINE",
"725 1350 LINE",
"927 1350 LINE",
"927 1552 LINE"
);
}
);
width = 1233;
}
);
unicode = 00EB;
},
{
glyphname = igrave;
layers = (
{
layerId = "8A8F53B0-DF48-4C43-86E4-F0539724E722";
paths = (
{
closed = 1;
nodes = (
"256 1120 LINE",
"256 976.999 LINE",
"543 976.999 LINE",
"543 143 LINE",
"178 143 LINE",
"178 0 LINE",
"1092 0 LINE",
"1092 143 LINE",
"727 143 LINE",
"727 1120 LINE"
);
},
{
closed = 1;
nodes = (
"477 1638 LINE",
"279 1638 LINE",
"604 1262 LINE",
"758 1262 LINE"
);
}
);
width = 1233;
}
);
unicode = 00EC;
},
{
glyphname = iacute;
layers = (
{
layerId = "8A8F53B0-DF48-4C43-86E4-F0539724E722";
paths = (
{
closed = 1;
nodes = (
"256 1120 LINE",
"256 976.999 LINE",
"543 976.999 LINE",
"543 143 LINE",
"178 143 LINE",
"178 0 LINE",
"1092 0 LINE",
"1092 143 LINE",
"727 143 LINE",
"727 1120 LINE"
);
},
{
closed = 1;
nodes = (
"756 1638 LINE",
"475 1262 LINE",
"629 1262 LINE",
"954 1638 LINE"
);
}
);
width = 1233;
}
);
unicode = 00ED;
},
{
glyphname = icircumflex;
layers = (
{
layerId = "8A8F53B0-DF48-4C43-86E4-F0539724E722";
paths = (
{
closed = 1;
nodes = (
"256 1120 LINE",
"256 976.999 LINE",
"543 976.999 LINE",
"543 143 LINE",
"178 143 LINE",
"178 0 LINE",
"1092 0 LINE",
"1092 143 LINE",
"727 143 LINE",
"727 1120 LINE"
);
},
{
closed = 1;
nodes = (
"543 1638 LINE",
"297 1262 LINE",
"436 1262 LINE",
"616 1507 LINE",
"797 1262 LINE",
"936 1262 LINE",
"690 1638 LINE"
);
}
);
width = 1233;
}
);
unicode = 00EE;
},
{
glyphname = idieresis;
layers = (
{
layerId = "8A8F53B0-DF48-4C43-86E4-F0539724E722";
paths = (
{
closed = 1;
nodes = (
"256 1120 LINE",
"256 976.999 LINE",
"543 976.999 LINE",
"543 143 LINE",
"178 143 LINE",
"178 0 LINE",
"1092 0 LINE",
"1092 143 LINE",
"727 143 LINE",
"727 1120 LINE"
);
},
{
closed = 1;
nodes = (
"343 1552 LINE",
"343 1350 LINE",
"546 1350 LINE",
"546 1552 LINE"
);
},
{
closed = 1;
nodes = (
"735 1552 LINE",
"735 1350 LINE",
"937 1350 LINE",
"937 1552 LINE"
);
}
);
width = 1233;
}
);
unicode = 00EF;
},
{
glyphname = eth;
layers = (
{
layerId = "8A8F53B0-DF48-4C43-86E4-F0539724E722";
paths = (
{
closed = 1;
nodes = (
"967 1407 LINE",
"934 1505 LINE",
"645 1411 LINE",
"518 1556 LINE",
"299 1556 LINE",
"481 1356 LINE",
"244 1276 LINE",
"274 1178 LINE",
"553 1270 LINE",
"578.333 1240.67 OFFCURVE",
"603 1211.17 OFFCURVE",
"627 1181.5 CURVE SMOOTH",
"651 1151.83 OFFCURVE",
"674 1122 OFFCURVE",
"696 1092 CURVE",
"686 1093.33 OFFCURVE",
"675.166 1094.33 OFFCURVE",
"663.5 1095 CURVE SMOOTH",
"651.833 1095.67 OFFCURVE",
"634.666 1096 OFFCURVE",
"612 1096 CURVE SMOOTH",
"462.666 1096 OFFCURVE",
"346.166 1046.67 OFFCURVE",
"262.5 947.999 CURVE SMOOTH",
"178.833 849.333 OFFCURVE",
"137 711.666 OFFCURVE",
"137 535 CURVE SMOOTH",
"137 356.333 OFFCURVE",
"178.833 217.666 OFFCURVE",
"262.5 119 CURVE SMOOTH",
"346.166 20.333 OFFCURVE",
"464 -29 OFFCURVE",
"616 -29 CURVE SMOOTH",
"768.666 -29 OFFCURVE",
"886.833 20.333 OFFCURVE",
"970.499 119 CURVE SMOOTH",
"1054.17 217.666 OFFCURVE",
"1096 356.333 OFFCURVE",
"1096 535 CURVE SMOOTH",
"1096 668.333 OFFCURVE",
"1065.67 798.333 OFFCURVE",
"1005 924.999 CURVE SMOOTH",
"944.333 1051.67 OFFCURVE",
"848.333 1185.67 OFFCURVE",
"717 1327 CURVE"
);
},
{
closed = 1;
nodes = (
"826.333 871.333 OFFCURVE",
"852.666 814.166 OFFCURVE",
"871.999 746.5 CURVE SMOOTH",
"891.333 678.833 OFFCURVE",
"900.999 608.333 OFFCURVE",
"900.999 535 CURVE SMOOTH",
"900.999 404.333 OFFCURVE",
"876.333 303.666 OFFCURVE",
"827 233 CURVE SMOOTH",
"777.666 162.333 OFFCURVE",
"707.333 127 OFFCURVE",
"616 127 CURVE SMOOTH",
"525.333 127 OFFCURVE",
"455.333 162.333 OFFCURVE",
"406 233 CURVE SMOOTH",
"356.666 303.666 OFFCURVE",
"332 404.333 OFFCURVE",
"332 535 CURVE SMOOTH",
"332 667.666 OFFCURVE",
"357.5 769 OFFCURVE",
"408.5 839 CURVE SMOOTH",
"459.5 908.999 OFFCURVE",
"533.666 943.999 OFFCURVE",
"631 943.999 CURVE SMOOTH",
"661 943.999 OFFCURVE",
"689.666 941.833 OFFCURVE",
"717 937.499 CURVE SMOOTH",
"744.333 933.166 OFFCURVE",
"769.666 926.666 OFFCURVE",
"793 917.999 CURVE"
);
}
);
width = 1233;
}
);
unicode = 00F0;
},
{
glyphname = ntilde;
layers = (
{
layerId = "8A8F53B0-DF48-4C43-86E4-F0539724E722";
paths = (
{
closed = 1;
nodes = (
"1051 694 LINE SMOOTH",
"1051 846 OFFCURVE",
"1022.83 959.5 OFFCURVE",
"966.5 1034.5 CURVE SMOOTH",
"910.166 1109.5 OFFCURVE",
"825 1147 OFFCURVE",
"711 1147 CURVE SMOOTH",
"634.333 1147 OFFCURVE",
"568 1130.5 OFFCURVE",
"512 1097.5 CURVE SMOOTH",
"456 1064.5 OFFCURVE",
"411.666 1016 OFFCURVE",
"379 952 CURVE",
"379 1120 LINE",
"195 1120 LINE",
"195 0 LINE",
"379 0 LINE",
"379 633 LINE SMOOTH",
"379 747 OFFCURVE",
"402.166 834.5 OFFCURVE",
"448.5 895.5 CURVE SMOOTH",
"494.833 956.5 OFFCURVE",
"561 986.999 OFFCURVE",
"647 986.999 CURVE SMOOTH",
"722.333 986.999 OFFCURVE",
"777.666 963.333 OFFCURVE",
"813 916 CURVE SMOOTH",
"848.333 868.666 OFFCURVE",
"865.999 794.666 OFFCURVE",
"865.999 694 CURVE SMOOTH",
"865.999 0 LINE",
"1051 0 LINE"
);
},
{
closed = 1;
nodes = (
"612 1370 LINE",
"636.666 1348 OFFCURVE",
"659.666 1332.33 OFFCURVE",
"681 1323 CURVE SMOOTH",
"702.333 1313.67 OFFCURVE",
"726 1309 OFFCURVE",
"752 1309 CURVE SMOOTH",
"812.666 1309 OFFCURVE",
"860 1333.67 OFFCURVE",
"894 1383 CURVE SMOOTH",
"928 1432.33 OFFCURVE",
"945.333 1501.67 OFFCURVE",
"946 1591 CURVE",
"821 1591 LINE",
"820.333 1537 OFFCURVE",
"814 1497.67 OFFCURVE",
"802 1473 CURVE SMOOTH",
"790 1448.33 OFFCURVE",
"771 1436 OFFCURVE",
"745 1436 CURVE SMOOTH",
"736.333 1436 OFFCURVE",
"726.5 1439.17 OFFCURVE",
"715.5 1445.5 CURVE SMOOTH",
"704.5 1451.83 OFFCURVE",
"692 1461.67 OFFCURVE",
"678 1475 CURVE SMOOTH",
"621 1530 LINE",
"596.333 1552 OFFCURVE",
"573.333 1567.67 OFFCURVE",
"552 1577 CURVE SMOOTH",
"530.666 1586.33 OFFCURVE",
"507 1591 OFFCURVE",
"481 1591 CURVE SMOOTH",
"420.333 1591 OFFCURVE",
"373 1566.33 OFFCURVE",
"339 1517 CURVE SMOOTH",
"305 1467.67 OFFCURVE",
"287.667 1398.33 OFFCURVE",
"287 1309 CURVE",
"411 1309 LINE",
"412.333 1363 OFFCURVE",
"419 1402.33 OFFCURVE",
"431 1427 CURVE SMOOTH",
"443 1451.67 OFFCURVE",
"461.666 1464 OFFCURVE",
"487 1464 CURVE SMOOTH",
"496.333 1464 OFFCURVE",
"506.5 1460.83 OFFCURVE",
"517.5 1454.5 CURVE SMOOTH",
"528.5 1448.17 OFFCURVE",
"541 1438.33 OFFCURVE",
"555 1425 CURVE SMOOTH"
);
}
);
width = 1233;
}
);
unicode = 00F1;
},
{
glyphname = ograve;
layers = (
{
layerId = "8A8F53B0-DF48-4C43-86E4-F0539724E722";
paths = (
{
closed = 1;
nodes = (
"710 990.999 OFFCURVE",
"781 954.666 OFFCURVE",
"829 882 CURVE SMOOTH",
"877 809.333 OFFCURVE",
"901 701.666 OFFCURVE",
"901 559 CURVE SMOOTH",
"901 417 OFFCURVE",
"877 309.5 OFFCURVE",
"829 236.5 CURVE SMOOTH",
"781 163.5 OFFCURVE",
"710 127 OFFCURVE",
"616 127 CURVE SMOOTH",
"522.666 127 OFFCURVE",
"452 163.5 OFFCURVE",
"404 236.5 CURVE SMOOTH",
"356 309.5 OFFCURVE",
"332 417 OFFCURVE",
"332 559 CURVE SMOOTH",
"332 701.666 OFFCURVE",
"356 809.333 OFFCURVE",
"404 881.999 CURVE SMOOTH",
"452 954.666 OFFCURVE",
"522.666 990.999 OFFCURVE",
"616 990.999 CURVE SMOOTH"
);
},
{
closed = 1;
nodes = (
"460.666 1147 OFFCURVE",
"342 1096.67 OFFCURVE",
"260 995.999 CURVE SMOOTH",
"178 895.333 OFFCURVE",
"137 749.666 OFFCURVE",
"137 559 CURVE SMOOTH",
"137 367.666 OFFCURVE",
"178 221.833 OFFCURVE",
"260 121.5 CURVE SMOOTH",
"342 21.167 OFFCURVE",
"460.666 -29 OFFCURVE",
"616 -29 CURVE SMOOTH",
"772 -29 OFFCURVE",
"891 21.167 OFFCURVE",
"972.999 121.5 CURVE SMOOTH",
"1055 221.833 OFFCURVE",
"1096 367.666 OFFCURVE",
"1096 559 CURVE SMOOTH",
"1096 749.666 OFFCURVE",
"1054.83 895.333 OFFCURVE",
"972.5 995.999 CURVE SMOOTH",
"890.166 1096.67 OFFCURVE",
"771.333 1147 OFFCURVE",
"616 1147 CURVE SMOOTH"
);
},
{
closed = 1;
nodes = (
"477 1638 LINE",
"279 1638 LINE",
"604 1262 LINE",
"758 1262 LINE"
);
}
);
width = 1233;
}
);
unicode = 00F2;
},
{
glyphname = oacute;
layers = (
{
layerId = "8A8F53B0-DF48-4C43-86E4-F0539724E722";
paths = (
{
closed = 1;
nodes = (
"710 990.999 OFFCURVE",
"781 954.666 OFFCURVE",
"829 882 CURVE SMOOTH",
"877 809.333 OFFCURVE",
"901 701.666 OFFCURVE",
"901 559 CURVE SMOOTH",
"901 417 OFFCURVE",
"877 309.5 OFFCURVE",
"829 236.5 CURVE SMOOTH",
"781 163.5 OFFCURVE",
"710 127 OFFCURVE",
"616 127 CURVE SMOOTH",
"522.666 127 OFFCURVE",
"452 163.5 OFFCURVE",
"404 236.5 CURVE SMOOTH",
"356 309.5 OFFCURVE",
"332 417 OFFCURVE",
"332 559 CURVE SMOOTH",
"332 701.666 OFFCURVE",
"356 809.333 OFFCURVE",
"404 881.999 CURVE SMOOTH",
"452 954.666 OFFCURVE",
"522.666 990.999 OFFCURVE",
"616 990.999 CURVE SMOOTH"
);
},
{
closed = 1;
nodes = (
"460.666 1147 OFFCURVE",
"342 1096.67 OFFCURVE",
"260 995.999 CURVE SMOOTH",
"178 895.333 OFFCURVE",
"137 749.666 OFFCURVE",
"137 559 CURVE SMOOTH",
"137 367.666 OFFCURVE",
"178 221.833 OFFCURVE",
"260 121.5 CURVE SMOOTH",
"342 21.167 OFFCURVE",
"460.666 -29 OFFCURVE",
"616 -29 CURVE SMOOTH",
"772 -29 OFFCURVE",
"891 21.167 OFFCURVE",
"972.999 121.5 CURVE SMOOTH",
"1055 221.833 OFFCURVE",
"1096 367.666 OFFCURVE",
"1096 559 CURVE SMOOTH",
"1096 749.666 OFFCURVE",
"1054.83 895.333 OFFCURVE",
"972.5 995.999 CURVE SMOOTH",
"890.166 1096.67 OFFCURVE",
"771.333 1147 OFFCURVE",
"616 1147 CURVE SMOOTH"
);
},
{
closed = 1;
nodes = (
"756 1638 LINE",
"475 1262 LINE",
"629 1262 LINE",
"954 1638 LINE"
);
}
);
width = 1233;
}
);
unicode = 00F3;
},
